<svg xmlns="http://www.w3.org/2000/svg" xmlns:xlink="http://www.w3.org/1999/xlink" width="626.337" height="556.245" viewBox="0 0 626.337 556.245"><defs><clipPath id="a"><rect width="169.363" height="133.015" fill="none"/></clipPath><clipPath id="b"><rect width="21.008" height="27.37" fill="none"/></clipPath><clipPath id="c"><rect width="11.904" height="26.5" fill="none"/></clipPath><clipPath id="d"><rect width="62.732" height="6.56" fill="none"/></clipPath><clipPath id="e"><rect width="50.144" height="6.509" fill="none"/></clipPath><clipPath id="f"><rect width="74.112" height="126.791" fill="none"/></clipPath><clipPath id="g"><rect width="6.999" height="21.327" fill="none"/></clipPath><clipPath id="h"><rect width="2.48" height="18.719" fill="none"/></clipPath><clipPath id="i"><rect width="37.275" height="17.829" fill="none"/></clipPath><clipPath id="j"><rect width="31.629" height="9.445" fill="none"/></clipPath><clipPath id="k"><rect width="113.041" height="176.772" fill="none"/></clipPath><clipPath id="l"><rect width="18.632" height="20.524" fill="none"/></clipPath><clipPath id="m"><rect width="26.233" height="22.924" fill="none"/></clipPath><clipPath id="n"><rect width="28.319" height="24.264" fill="none"/></clipPath><clipPath id="o"><rect width="23.06" height="37.892" fill="none"/></clipPath><clipPath id="p"><rect width="27.096" height="22.969" fill="none"/></clipPath><clipPath id="q"><rect width="25.852" height="24.062" fill="none"/></clipPath><clipPath id="r"><rect width="20.066" height="32.735" fill="none"/></clipPath><clipPath id="s"><rect width="22.682" height="35.012" fill="none"/></clipPath><clipPath id="t"><rect width="170.719" height="224.67" fill="none"/></clipPath><clipPath id="u"><rect width="30.236" height="30.547" fill="none"/></clipPath><clipPath id="v"><rect width="41.933" height="34.04" fill="none"/></clipPath><clipPath id="w"><rect width="45.327" height="36.331" fill="none"/></clipPath><clipPath id="x"><rect width="38.102" height="57.192" fill="none"/></clipPath><clipPath id="y"><rect width="43.361" height="34.115" fill="none"/></clipPath><clipPath id="z"><rect width="31.086" height="50.181" fill="none"/></clipPath><clipPath id="aa"><rect width="282.837" height="215.385" fill="none"/></clipPath></defs><g transform="translate(-1034.25 -555.941)"><path d="M788.939,312.056a6.127,6.127,0,1,1,6.127-6.127,6.134,6.134,0,0,1-6.127,6.127m0-11.405a5.278,5.278,0,1,0,5.278,5.278,5.284,5.284,0,0,0-5.278-5.278" transform="translate(389.819 309.137)" fill="#cfc5bf"/><path d="M1076.909,201.155a4.571,4.571,0,1,1,4.571-4.571,4.576,4.576,0,0,1-4.571,4.571m0-8.292a3.721,3.721,0,1,0,3.721,3.721,3.726,3.726,0,0,0-3.721-3.721" transform="translate(151.475 397.87)" fill="#cfc5bf"/><path d="M884.815,36.968a3.674,3.674,0,1,1,3.674-3.674,3.678,3.678,0,0,1-3.674,3.674m0-6.5a2.825,2.825,0,1,0,2.825,2.825,2.828,2.828,0,0,0-2.825-2.825" transform="translate(308.873 531.556)" fill="#cfc5bf"/><path d="M1694.248,2561.924a4.571,4.571,0,1,1,4.571-4.571,4.576,4.576,0,0,1-4.571,4.571m0-8.292a3.722,3.722,0,1,0,3.722,3.722,3.726,3.726,0,0,0-3.722-3.722" transform="translate(-356.734 -1545.573)" fill="#cfc5bf"/><path d="M1828.753,2669.829a3.674,3.674,0,1,1,3.674-3.674,3.678,3.678,0,0,1-3.674,3.674m0-6.5a2.824,2.824,0,1,0,2.824,2.825,2.828,2.828,0,0,0-2.824-2.825" transform="translate(-468.201 -1635.879)" fill="#cfc5bf"/><path d="M1510.137,2242.624a3.674,3.674,0,1,1,3.674-3.674,3.678,3.678,0,0,1-3.674,3.674m0-6.5a2.825,2.825,0,1,0,2.825,2.825,2.828,2.828,0,0,0-2.825-2.825" transform="translate(-205.908 -1284.193)" fill="#cfc5bf"/><path d="M714.008,2287.4a6.127,6.127,0,1,1,6.127-6.127,6.134,6.134,0,0,1-6.127,6.127m0-11.4a5.278,5.278,0,1,0,5.278,5.278,5.284,5.284,0,0,0-5.278-5.278" transform="translate(451.504 -1317.018)" fill="#cfc5bf"/><path d="M348.3,2355.743a4.571,4.571,0,1,1,4.571-4.571,4.576,4.576,0,0,1-4.571,4.571m0-8.292a3.721,3.721,0,1,0,3.722,3.721,3.725,3.725,0,0,0-3.722-3.721" transform="translate(751.284 -1375.84)" fill="#cfc5bf"/><path d="M797.251,2428.713a3.674,3.674,0,1,1,3.674-3.674,3.678,3.678,0,0,1-3.674,3.674m0-6.5a2.824,2.824,0,1,0,2.825,2.824,2.828,2.828,0,0,0-2.825-2.824" transform="translate(380.958 -1437.387)" fill="#cfc5bf"/><path d="M3207.315,1840.411a4.571,4.571,0,1,1,5.365-3.605,4.576,4.576,0,0,1-5.365,3.605m1.6-8.138a3.722,3.722,0,1,0,2.936,4.369,3.727,3.727,0,0,0-2.936-4.369" transform="translate(-1603.052 -951.675)" fill="#cfc5bf"/><path d="M2745.214,1818.917a3.674,3.674,0,1,1,4.313-2.9,3.677,3.677,0,0,1-4.313,2.9m1.251-6.377a2.825,2.825,0,1,0,2.228,3.316,2.828,2.828,0,0,0-2.228-3.316" transform="translate(-1223.236 -935.444)" fill="#cfc5bf"/><path d="M3184.743,1608.347a3.674,3.674,0,1,1,4.313-2.9,3.678,3.678,0,0,1-4.312,2.9m1.25-6.377a2.824,2.824,0,1,0,2.229,3.315,2.827,2.827,0,0,0-2.229-3.315" transform="translate(-1585.067 -762.098)" fill="#cfc5bf"/><path d="M3212.676,2802.309a4.571,4.571,0,1,1,5.365-3.606,4.576,4.576,0,0,1-5.365,3.606m1.6-8.138a3.722,3.722,0,1,0,2.936,4.369,3.726,3.726,0,0,0-2.936-4.369" transform="translate(-1607.466 -1743.533)" fill="#cfc5bf"/><path d="M2750.576,2780.814a3.674,3.674,0,1,1,4.312-2.9,3.678,3.678,0,0,1-4.312,2.9m1.251-6.377a2.825,2.825,0,1,0,2.227,3.315,2.827,2.827,0,0,0-2.227-3.315" transform="translate(-1227.65 -1727.301)" fill="#cfc5bf"/><path d="M3190.1,2570.246a3.674,3.674,0,1,1,4.313-2.9,3.678,3.678,0,0,1-4.312,2.9m1.251-6.377a2.824,2.824,0,1,0,2.228,3.315,2.827,2.827,0,0,0-2.228-3.315" transform="translate(-1589.481 -1553.956)" fill="#cfc5bf"/><path d="M239.3,938.66a6.127,6.127,0,1,1,6.127-6.127,6.134,6.134,0,0,1-6.127,6.127m0-11.405a5.278,5.278,0,1,0,5.278,5.278,5.284,5.284,0,0,0-5.278-5.278" transform="translate(842.297 -206.699)" fill="#cfc5bf"/><path d="M446.856,1115.54a4.571,4.571,0,1,1,4.571-4.57,4.576,4.576,0,0,1-4.571,4.57m0-8.292a3.721,3.721,0,1,0,3.722,3.722,3.726,3.726,0,0,0-3.722-3.722" transform="translate(670.15 -354.874)" fill="#cfc5bf"/><path d="M451.033,758.9a3.674,3.674,0,1,1,3.674-3.674,3.678,3.678,0,0,1-3.674,3.674m0-6.5a2.825,2.825,0,1,0,2.825,2.825,2.828,2.828,0,0,0-2.825-2.825" transform="translate(665.973 -62.759)" fill="#cfc5bf"/><path d="M49.408,1250.646a3.674,3.674,0,1,1,3.674-3.674,3.678,3.678,0,0,1-3.674,3.674m0-6.5a2.825,2.825,0,1,0,2.825,2.825,2.828,2.828,0,0,0-2.825-2.825" transform="translate(996.6 -467.573)" fill="#cfc5bf"/><path d="M3110.373,1057.751a6.127,6.127,0,1,1,8.274,2.574,6.135,6.135,0,0,1-8.274-2.574m10.1-5.3a5.278,5.278,0,1,0-2.218,7.127,5.284,5.284,0,0,0,2.218-7.127" transform="translate(-1525.709 -307.437)" fill="#cfc5bf"/><path d="M2744.747,1103.532a4.571,4.571,0,1,1,6.172,1.921,4.576,4.576,0,0,1-6.172-1.921m7.342-3.857a3.722,3.722,0,1,0-1.565,5.025,3.727,3.727,0,0,0,1.565-5.025" transform="translate(-1224.862 -347.001)" fill="#cfc5bf"/><path d="M3175.563,760.455a3.674,3.674,0,1,1,4.961,1.544,3.679,3.679,0,0,1-4.961-1.544m5.753-3.022a2.825,2.825,0,1,0-1.187,3.814,2.828,2.828,0,0,0,1.187-3.814" transform="translate(-1579.605 -65.654)" fill="#cfc5bf"/><path d="M466.159,1402.509a6.127,6.127,0,1,1,6.127-6.127,6.134,6.134,0,0,1-6.127,6.127m0-11.405a5.278,5.278,0,1,0,5.278,5.278,5.284,5.284,0,0,0-5.278-5.278" transform="translate(655.54 -588.55)" fill="#cfc5bf"/><path d="M227.314,1784.536a4.571,4.571,0,1,1,4.571-4.571,4.576,4.576,0,0,1-4.571,4.571m0-8.292a3.721,3.721,0,1,0,3.721,3.721,3.725,3.725,0,0,0-3.721-3.721" transform="translate(850.882 -905.607)" fill="#cfc5bf"/><path d="M652.938,1443.74a3.674,3.674,0,1,1,3.674-3.674,3.678,3.678,0,0,1-3.674,3.674m0-6.5a2.825,2.825,0,1,0,2.825,2.825,2.828,2.828,0,0,0-2.825-2.825" transform="translate(499.76 -626.532)" fill="#cfc5bf"/><path d="M1062.817,1668.261a4.571,4.571,0,1,1,4.571-4.571,4.576,4.576,0,0,1-4.571,4.571m0-8.292a3.722,3.722,0,1,0,3.722,3.721,3.725,3.725,0,0,0-3.722-3.721" transform="translate(163.075 -809.887)" fill="#cfc5bf"/><path d="M146.3,2418.58a3.674,3.674,0,1,1,3.674-3.675,3.679,3.679,0,0,1-3.674,3.675m0-6.5a2.824,2.824,0,1,0,2.825,2.824,2.828,2.828,0,0,0-2.825-2.824" transform="translate(916.837 -1429.045)" fill="#cfc5bf"/><path d="M84.185,2572.823a4.571,4.571,0,1,1,4.571-4.57,4.576,4.576,0,0,1-4.571,4.57m0-8.292a3.722,3.722,0,1,0,3.722,3.722,3.726,3.726,0,0,0-3.722-3.722" transform="translate(968.71 -1554.545)" fill="#cfc5bf"/><path d="M2706.953,2182.536c-52.678-9.436-155.517,55.989-168.686,136.085h20.012c50.544-38.771,194.722-127.837,148.674-136.085" transform="translate(-1055.314 -1240.029)" fill="#765a9d"/><g transform="translate(1490.485 945.576)" opacity="0.5" style="mix-blend-mode:multiply;isolation:isolate"><g clip-path="url(#a)"><path d="M2749.654,2204.129c-15.883,1.24-33.665,7.356-52.855,18.18-16.921,9.544-34.356,22.374-51.82,38.133-27.053,24.411-51.6,53.957-64.1,76.7h1.241c12.521-22.561,36.821-51.737,63.59-75.892,37.485-33.825,74.43-53.726,104.031-56.037a.544.544,0,1,0-.084-1.084" transform="translate(-2580.877 -2204.127)" fill="#d4cac4"/></g></g><g transform="translate(1593.397 945.155)" opacity="0.5" style="mix-blend-mode:multiply;isolation:isolate"><g clip-path="url(#b)"><path d="M3163.586,2229.113a.528.528,0,0,1-.106-.01.543.543,0,0,1-.427-.639,29.826,29.826,0,0,1,3.491-8.184c2.581-4.478,7.561-11.309,16.626-18.421a.544.544,0,1,1,.671.855c-17.061,13.384-19.7,25.836-19.722,25.96a.543.543,0,0,1-.532.438" transform="translate(-3163.042 -2201.743)" fill="#d4cac4"/></g></g><g transform="translate(1586.611 950.6)" opacity="0.5" style="mix-blend-mode:multiply;isolation:isolate"><g clip-path="url(#c)"><path d="M3125.2,2259.044a.538.538,0,0,1-.109-.011.544.544,0,0,1-.425-.641c.062-.307.129-.644.2-1.008,1.162-5.876,3.579-18.105,10.781-24.7a.544.544,0,0,1,.734.8c-6.939,6.351-9.31,18.343-10.448,24.106-.072.365-.139.7-.2,1.013a.544.544,0,0,1-.532.436" transform="translate(-3124.651 -2232.544)" fill="#d4cac4"/></g></g><g transform="translate(1560.098 991.705)" opacity="0.5" style="mix-blend-mode:multiply;isolation:isolate"><g clip-path="url(#d)"><path d="M2986.762,2471.632c-4.089,0-8.008-.142-11.6-.457a.544.544,0,1,1,.095-1.083c19.519,1.714,48.952-1.758,61.461-5a.544.544,0,1,1,.273,1.052c-10.286,2.668-31.944,5.491-50.233,5.491" transform="translate(-2974.67 -2465.072)" fill="#d4cac4"/></g></g><g transform="translate(1554.301 1001.847)" opacity="0.5" style="mix-blend-mode:multiply;isolation:isolate"><g clip-path="url(#e)"><path d="M2974.451,2528.956a95.2,95.2,0,0,1-32.211-5.454.544.544,0,0,1,.369-1.023c20.2,7.279,39.234,5.613,48.779,3.972a.544.544,0,0,1,.184,1.072,101.994,101.994,0,0,1-17.122,1.433" transform="translate(-2941.881 -2522.447)" fill="#d4cac4"/></g></g><path d="M1027.779,2329.858l6.114,2.278c.108-.479.17-.773.17-.773,14.585-52.853-35.46-120.357-70.968-126.8-32.76-5.941,50.908,98.422,64.684,125.29" transform="translate(254.62 -1258.713)" fill="#765a9d"/><g transform="translate(1204.846 945.963)" opacity="0.5" style="mix-blend-mode:multiply;isolation:isolate"><g clip-path="url(#f)"><path d="M1038.682,2333.081a.348.348,0,0,0,.143.021.354.354,0,0,0,.335-.373c-.9-16.7-9.9-44.055-22.412-68.08a192.432,192.432,0,0,0-23.008-35.136c-9.271-10.994-18.755-18.789-28.188-23.166a.355.355,0,1,0-.3.644c17.58,8.16,35.644,28.753,50.864,57.986,12.467,23.944,21.441,51.187,22.333,67.791a.355.355,0,0,0,.231.314" transform="translate(-965.048 -2206.313)" fill="#d4cac4"/></g></g><g transform="translate(1232.74 956.062)" opacity="0.5" style="mix-blend-mode:multiply;isolation:isolate"><g clip-path="url(#g)"><path d="M1129.267,2284.749a.382.382,0,0,0,.068.019.356.356,0,0,0,.407-.294,19.49,19.49,0,0,0-.271-5.8,42.75,42.75,0,0,0-5.972-15.058.355.355,0,0,0-.605.371c7.386,12.075,6.161,20.293,6.147,20.375a.355.355,0,0,0,.226.389" transform="translate(-1122.841 -2263.445)" fill="#d4cac4"/></g></g><g transform="translate(1241.22 963.014)" opacity="0.5" style="mix-blend-mode:multiply;isolation:isolate"><g clip-path="url(#h)"><path d="M1171.861,2321.47a.323.323,0,0,0,.069.018.354.354,0,0,0,.406-.295c.032-.2.068-.424.107-.663.629-3.859,1.938-11.89-.966-17.564a.355.355,0,1,0-.632.323c2.8,5.467,1.514,13.343.9,17.127-.039.24-.075.463-.107.666a.355.355,0,0,0,.226.388" transform="translate(-1170.807 -2302.772)" fill="#d4cac4"/></g></g><g transform="translate(1216.977 982.616)" opacity="0.5" style="mix-blend-mode:multiply;isolation:isolate"><g clip-path="url(#i)"><path d="M1063.3,2429.112c2.5.932,4.931,1.739,7.2,2.364a.355.355,0,1,0,.188-.684c-12.33-3.4-29.543-12.232-36.455-17.068a.355.355,0,1,0-.407.582c5.684,3.977,18.289,10.639,29.477,14.807" transform="translate(-1033.67 -2413.659)" fill="#d4cac4"/></g></g><g transform="translate(1225.001 995.455)" opacity="0.5" style="mix-blend-mode:multiply;isolation:isolate"><g clip-path="url(#j)"><path d="M1089.385,2491.728a62.133,62.133,0,0,0,20.946,4.005.355.355,0,1,0,.007-.709,64.023,64.023,0,0,1-30.743-8.687.355.355,0,1,0-.357.613,66.48,66.48,0,0,0,10.147,4.778" transform="translate(-1079.061 -2486.288)" fill="#d4cac4"/></g></g><path d="M983.764,1553.223c-20.628-11.145-42.251-36.005-33.7-48.811s32.477-3.741,46.061,25.15c1.7-16.138,22.382-8.409,30.548,9.222s9.895,35.316,7.743,44.377c5.661-15.922,22.6-15.427,26.545-1.924s1.8,25.148-5.336,34.858c11.873-14.506,19.962-10.708,25.794-3.088,9.686,12.657-7.5,61.837-16.578,63.427l-.2,1.479s-33.508,1.718-53.607-10.04-15.361-29.624-.236-31.007c-17.887-5.024-32.154-23.523-26.878-33.96,3.756-7.429,11.086-7.694,15-7.229a48.981,48.981,0,0,1-29.01-19.62c-12.2-17.787,1.4-28.253,13.857-22.836" transform="translate(253.712 -677.856)" fill="#765a9d"/><g transform="translate(1205.661 823.637)" opacity="0.5" style="mix-blend-mode:multiply;isolation:isolate"><g clip-path="url(#k)"><path d="M1082.374,1691.1a.35.35,0,0,0,.309-.456c-4.581-14.482-22.549-51.821-44.687-89.237a565.758,565.758,0,0,0-34.588-52.442c-12.7-16.8-23.872-28.431-33.205-34.579a.351.351,0,1,0-.386.585c9.266,6.1,20.379,17.683,33.031,34.416a565.206,565.206,0,0,1,34.544,52.377c22.113,37.373,40.053,74.646,44.622,89.091a.351.351,0,0,0,.359.244" transform="translate(-969.659 -1514.331)" fill="#d4cac4"/></g></g><g transform="translate(1221.133 821.721)" opacity="0.5" style="mix-blend-mode:multiply;isolation:isolate"><g clip-path="url(#l)"><path d="M1072.483,1524a3.534,3.534,0,0,0,2.472-1.176c.985-1.169.93-2.8.746-4.243-.091-.706-.2-1.418-.336-2.117a.35.35,0,0,0-.695.085h0a.362.362,0,0,0,.005.04c.13.688.241,1.387.33,2.08.165,1.291.224,2.74-.586,3.7a3.232,3.232,0,0,1-3.2.819,7.9,7.9,0,0,1-3.145-1.893c-4.409-3.89-7.655-9.471-10.214-17.566a.351.351,0,1,0-.669.212c1.635,5.173,4.495,12.655,10.418,17.881a8.521,8.521,0,0,0,3.438,2.046,4.534,4.534,0,0,0,1.436.13" transform="translate(-1057.176 -1503.487)" fill="#d4cac4"/></g></g><g transform="translate(1203.307 840.981)" opacity="0.5" style="mix-blend-mode:multiply;isolation:isolate"><g clip-path="url(#m)"><path d="M973.891,1635.361l.037,0a22.588,22.588,0,0,0,2.308-.54c2.96-.861,4.983-2.34,5.849-4.275,1.579-3.525-.945-7.516-3.587-9.864-5.081-4.516-12.2-7.211-21.769-8.239a.351.351,0,0,0-.075.7c9.418,1.012,16.411,3.65,21.379,8.065,2.464,2.19,4.837,5.875,3.413,9.053-.985,2.2-3.483,3.329-5.4,3.888a21.921,21.921,0,0,1-2.236.523.351.351,0,0,0,.087.695" transform="translate(-956.34 -1612.437)" fill="#d4cac4"/></g></g><g transform="translate(1219.597 879.857)" opacity="0.5" style="mix-blend-mode:multiply;isolation:isolate"><g clip-path="url(#n)"><path d="M1067.5,1856.519q.728-.053,1.446-.133c3.734-.411,6.094-1.605,7.214-3.649a6.567,6.567,0,0,0-.239-6.124,15.023,15.023,0,0,0-4.147-4.527,47.69,47.69,0,0,0-22.887-9.723.351.351,0,0,0-.1.695,46.984,46.984,0,0,1,22.551,9.579,14.391,14.391,0,0,1,3.961,4.3,5.864,5.864,0,0,1,.243,5.458c-1,1.828-3.185,2.9-6.676,3.289a43.19,43.19,0,0,1-12.535-.543.351.351,0,0,0-.127.69,44.692,44.692,0,0,0,11.293.683" transform="translate(-1048.487 -1832.36)" fill="#d4cac4"/></g></g><g transform="translate(1255.512 842.837)" opacity="0.5" style="mix-blend-mode:multiply;isolation:isolate"><g clip-path="url(#o)"><path d="M1269.85,1660.818a4.264,4.264,0,0,0,1.542-.414c1.934-.926,2.988-3.136,3.219-6.757a54.715,54.715,0,0,0-2.626-20.526.35.35,0,0,0-.685.126h0a.349.349,0,0,0,.016.083,54.019,54.019,0,0,1,2.6,20.27c-.214,3.344-1.137,5.363-2.822,6.169-3.221,1.541-6.61-2.363-7.572-3.6a53.455,53.455,0,0,1-11.154-32.887.351.351,0,0,0-.7,0,54.16,54.16,0,0,0,11.3,33.32c.9,1.151,3.755,4.438,6.886,4.212" transform="translate(-1251.661 -1622.937)" fill="#d4cac4"/></g></g><g transform="translate(1237.587 924.122)" opacity="0.5" style="mix-blend-mode:multiply;isolation:isolate"><g clip-path="url(#p)"><path d="M1170.033,2105.681a11.485,11.485,0,0,0,2.824-.531,6.4,6.4,0,0,0,4.313-4.123c1.006-3.616-2.24-6.852-4.264-8.459-5.872-4.663-13.14-7.869-22.219-9.8a.351.351,0,0,0-.146.687c8.971,1.91,16.143,5.072,21.929,9.666,1.889,1.5,4.922,4.494,4.025,7.721a5.782,5.782,0,0,1-3.86,3.645,15.577,15.577,0,0,1-5.683.5,88.266,88.266,0,0,1-10.6-1.134.351.351,0,1,0-.117.691,88.864,88.864,0,0,0,10.687,1.143,26.287,26.287,0,0,0,3.114,0" transform="translate(-1150.263 -2082.759)" fill="#d4cac4"/></g></g><g transform="translate(1253.573 963.955)" opacity="0.5" style="mix-blend-mode:multiply;isolation:isolate"><g clip-path="url(#q)"><path d="M1255.963,2332.073a28.74,28.74,0,0,0,2.974-.371c2.178-.39,6.013-1.518,7.234-4.7,1.577-4.108-2.243-8.109-3.958-9.638a38.242,38.242,0,0,0-21.13-9.268.351.351,0,0,0-.077.7,37.539,37.539,0,0,1,20.74,9.094c1.607,1.433,5.191,5.164,3.771,8.864-1.1,2.863-4.671,3.9-6.7,4.263a33.388,33.388,0,0,1-11.157-.059.351.351,0,0,0-.109.693,36.948,36.948,0,0,0,8.415.427" transform="translate(-1240.693 -2308.092)" fill="#d4cac4"/></g></g><g transform="translate(1295.884 893.831)" opacity="0.5" style="mix-blend-mode:multiply;isolation:isolate"><g clip-path="url(#r)"><path d="M1488.5,1944.129c3.863-.28,6.362-4.542,7.54-7.161a62.923,62.923,0,0,0,4.062-12.293.351.351,0,1,0-.685-.15,62.223,62.223,0,0,1-4.016,12.156c-1.111,2.469-3.45,6.494-6.956,6.749a4.982,4.982,0,0,1-.611.005,6.326,6.326,0,0,1-4.871-3.35,16.109,16.109,0,0,1-1.719-6.09,63.292,63.292,0,0,1,1.126-22.158.351.351,0,1,0-.684-.156,63.973,63.973,0,0,0-1.138,22.4,16.72,16.72,0,0,0,1.807,6.354,7.027,7.027,0,0,0,5.441,3.7,5.563,5.563,0,0,0,.7-.006" transform="translate(-1480.04 -1911.408)" fill="#d4cac4"/></g></g><g transform="translate(1315.402 928.762)" opacity="0.5" style="mix-blend-mode:multiply;isolation:isolate"><g clip-path="url(#s)"><path d="M1597.4,2144c3.268-.237,6.106-3.249,7.329-4.753a45.162,45.162,0,0,0,8.4-16.393.351.351,0,0,0-.676-.186,44.455,44.455,0,0,1-8.265,16.137c-1.41,1.734-5.094,5.615-8.857,4.206-3.206-1.2-4.018-5.353-4.135-8.625a58.845,58.845,0,0,1,4.675-24.9.351.351,0,0,0-.646-.274,59.55,59.55,0,0,0-4.73,25.195c.125,3.486,1.022,7.921,4.59,9.257a5.423,5.423,0,0,0,2.319.333" transform="translate(-1590.453 -2109.007)" fill="#d4cac4"/></g></g><path d="M2408.456,1347.817c32.879-15.508,68.457-52.167,56.3-72.716s-49.962-8.539-73.436,35.039c-1.271-25.128-33.939-14.912-48.074,11.693s-18.307,53.838-15.742,68.047c-7.417-25.129-33.208-25.621-40.933-5.224-11.055,29.19,5.309,109.861,5.309,109.861s31.319-3.239,67.649-19.493c28.116-6.264,51.769-33.7,44.485-50.3-5.187-11.819-16.512-12.849-22.611-12.461,8.941-1.555,30.728-7.333,46.573-27.92,20.4-26.505.223-43.859-19.521-36.526" transform="translate(-844.956 -485.721)" fill="#765a9d"/><g transform="translate(1446.382 784.671)" opacity="0.5" style="mix-blend-mode:multiply;isolation:isolate"><g clip-path="url(#t)"><path d="M2331.932,1518.573a.545.545,0,0,0,.509-.352c7.9-20.933,33.461-66.948,67.02-114.39,22.131-31.285,64.859-87.037,102.377-108.914a.544.544,0,0,0-.547-.939c-15.033,8.766-32.3,23.75-51.321,44.536-16.477,18.006-33.769,39.771-51.4,64.689-33.613,47.517-59.223,93.635-67.15,114.634a.545.545,0,0,0,.509.736" transform="translate(-2331.388 -1293.903)" fill="#d4cac4"/></g></g><g transform="translate(1563.076 780.395)" opacity="0.5" style="mix-blend-mode:multiply;isolation:isolate"><g clip-path="url(#u)"><path d="M2997.212,1300.256a7.17,7.17,0,0,0,1.37-.133,13.208,13.208,0,0,0,5.5-2.878c9.613-7.589,14.672-18.93,17.643-26.8a.544.544,0,1,0-1.018-.384c-4.647,12.316-10.144,20.683-17.3,26.332a12.244,12.244,0,0,1-5.031,2.663,5.012,5.012,0,0,1-4.884-1.538c-1.173-1.557-.958-3.8-.594-5.78.2-1.066.428-2.14.687-3.192a.421.421,0,0,0,.01-.049.544.544,0,0,0-1.069-.2c-.264,1.069-.5,2.16-.7,3.243-.408,2.217-.631,4.738.794,6.631a5.686,5.686,0,0,0,4.591,2.084" transform="translate(-2991.519 -1269.709)" fill="#d4cac4"/></g></g><g transform="translate(1577.346 811.719)" opacity="0.5" style="mix-blend-mode:multiply;isolation:isolate"><g clip-path="url(#v)"><path d="M3085.157,1480.95a.544.544,0,0,0,.125-1.073,33.947,33.947,0,0,1-3.418-1c-2.928-1.028-6.7-2.986-8.038-6.476-1.936-5.041,2.049-10.545,6.049-13.728,8.063-6.415,19.114-9.908,33.779-10.677a.544.544,0,1,0-.057-1.086c-14.9.782-26.152,4.351-34.4,10.912-4.289,3.411-8.535,9.378-6.388,14.968,1.177,3.069,4.183,5.528,8.693,7.112a34.993,34.993,0,0,0,3.527,1.032.562.562,0,0,0,.126.015" transform="translate(-3072.236 -1446.91)" fill="#d4cac4"/></g></g><g transform="translate(1545.445 870.53)" opacity="0.5" style="mix-blend-mode:multiply;isolation:isolate"><g clip-path="url(#w)"><path d="M2913.833,1815.927a73.845,73.845,0,0,0,9.362-.61.544.544,0,0,0-.138-1.079,66.963,66.963,0,0,1-19.451-.219c-5.372-.891-8.661-2.742-10.057-5.657a9.094,9.094,0,0,1,.838-8.429,22.311,22.311,0,0,1,6.5-6.33,72.842,72.842,0,0,1,35.723-12.922.544.544,0,0,0-.094-1.084,73.931,73.931,0,0,0-36.256,13.117,23.283,23.283,0,0,0-6.8,6.658,10.183,10.183,0,0,0-.887,9.46c1.56,3.258,5.113,5.306,10.86,6.26a63.429,63.429,0,0,0,10.405.836" transform="translate(-2891.778 -1779.596)" fill="#d4cac4"/></g></g><g transform="translate(1500.198 810.176)" opacity="0.5" style="mix-blend-mode:multiply;isolation:isolate"><g clip-path="url(#x)"><path d="M2643.44,1495.374c4.519,0,8.763-4.387,10.162-5.991a83.973,83.973,0,0,0,20.317-50.629.544.544,0,1,0-1.086-.057,82.881,82.881,0,0,1-20.051,49.971c-1.594,1.828-7.172,7.586-12.028,4.927-2.54-1.391-3.8-4.594-3.848-9.79a83.775,83.775,0,0,1,5.734-31.162.544.544,0,1,0-1.022-.372,84.84,84.84,0,0,0-5.8,31.544c.052,5.625,1.5,9.136,4.413,10.734a6.582,6.582,0,0,0,3.207.825" transform="translate(-2635.818 -1438.181)" fill="#d4cac4"/></g></g><g transform="translate(1515.812 937.534)" opacity="0.5" style="mix-blend-mode:multiply;isolation:isolate"><g clip-path="url(#y)"><path d="M2741.01,2192.75a137.944,137.944,0,0,0,15.447-.871.544.544,0,1,0-.122-1.081,136.427,136.427,0,0,1-16.51.859,24.145,24.145,0,0,1-8.756-1.249,8.962,8.962,0,0,1-5.668-5.97c-1.117-5.072,3.834-9.453,6.884-11.614,9.346-6.623,20.718-10.911,34.767-13.109a.544.544,0,1,0-.168-1.074c-14.219,2.225-25.741,6.574-35.227,13.3-3.271,2.316-8.569,7.05-7.318,12.735a9.922,9.922,0,0,0,6.329,6.747,25.436,25.436,0,0,0,9.147,1.325q.6,0,1.195.005" transform="translate(-2724.151 -2158.635)" fill="#d4cac4"/></g></g><g transform="translate(1439.33 885.569)" opacity="0.5" style="mix-blend-mode:multiply;isolation:isolate"><g clip-path="url(#z)"><path d="M2308.92,1914.854c3.256,0,6.6-2.017,8.728-5.267a25.942,25.942,0,0,0,3.336-9.684,99.209,99.209,0,0,0,.133-34.779.544.544,0,1,0-1.072.184,98.1,98.1,0,0,1-.132,34.4,24.969,24.969,0,0,1-3.176,9.283c-1.929,2.946-4.924,4.775-7.817,4.775h-.009c-5.971-.01-9.543-6.957-11.141-11.1a96.432,96.432,0,0,1-5.189-19.159.544.544,0,0,0-1.074.176,97.6,97.6,0,0,0,5.248,19.375c1.7,4.4,5.535,11.781,12.154,11.793Z" transform="translate(-2291.501 -1864.673)" fill="#d4cac4"/></g></g><path d="M2418.4,725.069H2221.957a.557.557,0,0,1-.456-.257.792.792,0,0,1-.12-.582c1.628-9.176,9.984-20.807,17.882-24.89a22.749,22.749,0,0,1,23.191,1.443c8.608-17.01,25.418-28.141,45.1-29.821,6.439-.55,11.789.051,16.352,1.834a23.636,23.636,0,0,1,12.9,11.889,22.542,22.542,0,0,1,1.09,16.224c10.458-8.782,24.169-10.27,35.642-3.656,4.021,2.318,8.081,6.578,8.012,11.826a33.929,33.929,0,0,1,21.82-.7,23.846,23.846,0,0,1,9.792,5.177,18.275,18.275,0,0,1,5.813,10.691.791.791,0,0,1-.128.569.557.557,0,0,1-.451.249" transform="translate(-794.436 3.75)" fill="#fff"/><path d="M155.884,303.454H16.5a.4.4,0,0,1-.324-.177.531.531,0,0,1-.085-.4c1.155-6.3,7.084-14.293,12.687-17.1a16.592,16.592,0,0,1,16.454.992c6.107-11.685,18.034-19.331,32-20.485a26.329,26.329,0,0,1,11.6,1.26,16.574,16.574,0,0,1,9.156,8.167,15.032,15.032,0,0,1,.773,11.144c7.42-6.033,17.148-7.055,25.289-2.511,2.852,1.593,5.733,4.519,5.685,8.123a24.822,24.822,0,0,1,15.481-.478,17.1,17.1,0,0,1,6.948,3.556,12.441,12.441,0,0,1,4.125,7.344.53.53,0,0,1-.091.391.4.4,0,0,1-.32.171" transform="translate(1021.007 336.838)" fill="#fff"/><path d="M592.172,2959.342.45,2959.389c-.248,0-.45-.462-.45-1.031s.2-1.032.45-1.032l591.722-.047c.249,0,.45.462.45,1.032s-.2,1.031-.45,1.031" transform="translate(1034.25 -1878.564)" fill="#fff"/><path d="M256.906,3046.991,117.151,3047c-.249,0-.45-.462-.45-1.032s.2-1.032.45-1.032l139.755-.011c.248,0,.45.462.45,1.032s-.2,1.031-.45,1.031" transform="translate(938.179 -1950.719)" fill="#fff"/><path d="M1308.481,3046.844l-312.464.025c-.248,0-.45-.462-.45-1.032s.2-1.032.45-1.032l312.464-.024c.248,0,.45.461.45,1.031s-.2,1.031-.45,1.031" transform="translate(214.674 -1950.598)" fill="#fff"/><path d="M2968.191,3046.81l-51.59,0c-.249,0-.45-.462-.45-1.032s.2-1.031.45-1.031l51.591,0c.249,0,.45.462.45,1.031s-.2,1.032-.45,1.032" transform="translate(-1366.398 -1950.569)" fill="#fff"/><path d="M879.24,3136.926l-193.305.016c-.248,0-.45-.462-.45-1.032s.2-1.031.45-1.031l193.305-.016c.249,0,.45.462.45,1.032s-.2,1.031-.45,1.031" transform="translate(469.941 -2024.755)" fill="#fff"/><path d="M2081.214,3136.867l-91.035.007c-.249,0-.45-.461-.45-1.031s.2-1.032.45-1.032l91.036-.007c.248,0,.449.462.45,1.032s-.2,1.031-.45,1.031" transform="translate(-603.744 -2024.707)" fill="#fff"/><path d="M1613.812,73.823l-1.258,0,.141-37.859c.073-19.394-16.21-35.174-36.361-35.244L1367.441,0c-20.15-.069-36.549,15.6-36.621,34.989l-.4,108.752-2.722-.009a.965.965,0,0,0-.969.962l-.236,63.694a.965.965,0,0,0,.962.969l2.721.009-1.035,278.5c-.072,19.4,16.21,35.17,36.365,35.24l208.889.717a37.078,37.078,0,0,0,26.725-11.07,34.816,34.816,0,0,0,7.844-12.409,33.9,33.9,0,0,0,2.052-11.51l1.016-273.271,1.043,0a.966.966,0,0,0,.969-.963l.2-63.694a.966.966,0,0,0-.963-.969l-1.007,0,.039-10.5,1.259,0a.965.965,0,0,0,.969-.962l.237-63.694a.966.966,0,0,0-.962-.969" transform="translate(-57.748 555.942)" fill="#4d4749"/><path d="M1667.726,116.126l-.326,88.2-.252,67.372-.4,108.251-.276,74.5-.008,2.225-.366,98.24c-.051,13.568-10.706,24.713-24.385,26.2a28.091,28.091,0,0,1-3.216.17l-49.528-.17-41.475-.144-112.613-.386c-15.188-.053-27.459-11.94-27.4-26.556l.185-49.109.118-32.341.507-136.15.185-49.529.637-171.665c.051-14.615,12.412-26.42,27.6-26.367l203.62.7c15.184.049,27.455,11.94,27.4,26.556" transform="translate(-124.42 482.781)" fill="#ede2dc"/><path d="M1667.043,705.907H1408.292q.625-199.685,1.251-399.37l258.751.008q-.625,199.681-1.251,399.362" transform="translate(-125.091 303.592)" fill="#fff"/><path d="M2564.576,203.772h-2.485a.186.186,0,0,1-.186-.187V189.1a.186.186,0,0,1,.186-.187h2.485a.186.186,0,0,1,.187.187v14.488a.186.186,0,0,1-.187.187" transform="translate(-1074.773 400.425)" fill="#fff"/><path d="M2530.625,223.735h-2.485a.186.186,0,0,1-.187-.187v-10.2a.186.186,0,0,1,.187-.187h2.485a.186.186,0,0,1,.186.187v10.2a.186.186,0,0,1-.186.187" transform="translate(-1046.824 380.462)" fill="#fff"/><path d="M2600.143,194.456h-2.485a.187.187,0,0,1-.187-.187V177.78a.186.186,0,0,1,.187-.186h2.485a.186.186,0,0,1,.186.186v16.489a.186.186,0,0,1-.186.187" transform="translate(-1104.053 409.741)" fill="#fff"/><path d="M2635.71,183.808h-2.485a.187.187,0,0,1-.187-.187V164.847a.187.187,0,0,1,.187-.187h2.485a.187.187,0,0,1,.187.187v18.775a.187.187,0,0,1-.187.187" transform="translate(-1133.332 420.389)" fill="#fff"/><path d="M2721.34,195.027h-8.448a.634.634,0,0,1-.635-.634V178.228a.634.634,0,0,1,.635-.634h8.448a.635.635,0,0,1,.635.634v16.165a.635.635,0,0,1-.635.634" transform="translate(-1198.547 409.741)" fill="#fff"/><path d="M2729.7,169.609h-5.206a.112.112,0,0,1-.112-.112v-1.491a.112.112,0,0,1,.112-.112h5.206a.112.112,0,0,1,.112.112V169.5a.112.112,0,0,1-.112.112" transform="translate(-1208.529 417.727)" fill="#fff"/><rect width="8.288" height="11.146" transform="translate(1514.424 592.48)" fill="#ede2dc"/><path d="M1606.093,754.365h63.356V691.008h-63.356v63.357Zm9.051-9.051H1660.4V700.059h-45.255v45.255Z" transform="translate(-287.926 -12.914)" fill="#221c26" fill-rule="evenodd"/><path d="M2322.9,754.365h63.357V691.008H2322.9v63.357Zm9.051-9.051H2377.2V700.059h-45.255v45.255Z" transform="translate(-878.017 -12.914)" fill="#221c26" fill-rule="evenodd"/><path d="M1708.494,820.56h27.153V793.407h-27.153V820.56Z" transform="translate(-372.225 -97.211)" fill="#221c26" fill-rule="evenodd"/><path d="M2425.3,820.56h27.153V793.407H2425.3V820.56Z" transform="translate(-962.315 -97.211)" fill="#221c26" fill-rule="evenodd"/><path d="M2076.424,799.585h9.051v-9.051h-9.051v-4.5h9.051v-9.051h-9.051v-9.051h-9.051v31.657Z" transform="translate(-667.663 -76.236)" fill="#221c26" fill-rule="evenodd"/><path d="M2015.695,965.111h9.051v-18.1h-9.051v18.1Z" transform="translate(-625.12 -223.66)" fill="#3f5175" fill-rule="evenodd"/><rect width="45.297" height="9.051" transform="translate(1390.533 678.178)" fill="#221c26"/><rect width="9.051" height="9.051" transform="translate(1399.626 741.451)" fill="#3f5175"/><path d="M1633.246,1127.763h9.051v-18.1h9.051v-9.051h-45.255v9.051h18.1v9.051h9.051Z" transform="translate(-287.926 -350.108)" fill="#221c26" fill-rule="evenodd"/><path d="M1813.524,1512.126h9.051v-18.1h18.1v-9.051h9.051v-9.051h-9.051v-9.051h-9.051v-9.051h-9.051v9.051h-9.051v-9.051h-9.051v9.051h-18.1v-9.051h-27.153v9.051h9.051v9.051h9.051v18.1h9.051v-18.1h9.051v9.051h9.051v-9.051h9.051v9.051h-9.051v9.051h9.051v18.1Zm9.051-27.153h9.051v-9.051h-9.051Z" transform="translate(-413.982 -644.172)" fill="#221c26" fill-rule="evenodd"/><path d="M1606.57,1612.135v27.153h9.051v-18.1h9.051v18.039h9.051v-18.039h9.051v9.051h9.051v-9.051h9.051v-9.051Z" transform="translate(-288.319 -771.208)" fill="#221c26" fill-rule="evenodd"/><path d="M2494.6,1221.112h18.1v-9.051h-9.051v-9.051h-18.1v9.051h-9.05v18.1h9.05v.063h9.051v-9.114Z" transform="translate(-1004.464 -434.407)" fill="#221c26" fill-rule="evenodd"/><path d="M1862.1,1314.461h18.1v-9.051h-18.1Z" transform="translate(-498.673 -518.705)" fill="#221c26" fill-rule="evenodd"/><path d="M2070,982.737v-9.051h-9.051v9.051l-9.21-.042q.049,4.546.1,9.093h.06v9.051h-15.114v.126h-11.125v-1.621h-.147v-16.5h8.284v-.105l9.4-.042q-.1-4.5-.2-9.009h-.144v-9.051H2033.8v-9.051h-9.051v-9.051h-9.051v18.1h9.051v9.051h-9.051v45.255h9.051v-9.051H2051.9v9.051h9.051v-9.051h18.1v-9.051h9.051v-18.1Zm0,18.1h-9.051v-9.051H2070Z" transform="translate(-625.12 -223.268)" fill="#221c26" fill-rule="evenodd"/><path d="M2322.9,1471.168h63.357v-63.357H2322.9v63.357Zm9.051-9.051H2377.2v-45.255h-45.255v45.255Z" transform="translate(-878.016 -603.004)" fill="#221c26" fill-rule="evenodd"/><path d="M2425.3,1537.365h27.153v-27.153H2425.3v27.153Z" transform="translate(-962.315 -687.303)" fill="#221c26" fill-rule="evenodd"/><rect width="9.051" height="9.051" transform="translate(1426.863 714.214)" fill="#221c26"/><rect width="9.051" height="9.051" transform="translate(1426.863 731.895)" fill="#221c26"/><rect width="9.051" height="9.051" transform="translate(1426.863 696.238)" fill="#221c26"/><rect width="9.051" height="9.051" transform="translate(1408.677 732.4)" fill="#221c26"/><rect width="9.051" height="9.051" transform="translate(1453.931 750.502)" fill="#221c26"/><rect width="9.051" height="9.051" transform="translate(1472.033 750.502)" fill="#221c26"/><rect width="9.051" height="9.051" transform="translate(1490.135 750.502)" fill="#221c26"/><path d="M1657.294,1221.112h9.051v-18.1h-9.051v18.1Z" transform="translate(-330.076 -434.407)" fill="#221c26" fill-rule="evenodd"/><rect width="9.051" height="9.051" transform="translate(1372.473 768.604)" fill="#221c26"/><rect width="9.051" height="9.051" transform="translate(1354.371 777.655)" fill="#221c26"/><rect width="9.051" height="9.051" transform="translate(1318.167 786.705)" fill="#221c26"/><rect width="9.051" height="9.051" transform="translate(1336.269 786.705)" fill="#221c26"/><path d="M2066.9,1366.137H2085v-9.051h-18.1Z" transform="translate(-667.27 -561.246)" fill="#221c26" fill-rule="evenodd"/><path d="M2393.27,1313.39v-9.051h-18.1v9.051h18.1Z" transform="translate(-921.047 -517.823)" fill="#221c26" fill-rule="evenodd"/><rect width="9.051" height="9.051" transform="translate(1417.728 804.807)" fill="#221c26"/><rect width="9.051" height="9.051" transform="translate(1435.83 804.807)" fill="#221c26"/><rect width="9.051" height="9.051" transform="translate(1381.482 795.714)" fill="#221c26"/><rect width="9.051" height="9.051" transform="translate(1318.294 824.972)" fill="#221c26"/><rect width="9.051" height="9.051" transform="translate(1318.251 810.322)" fill="#221c26"/><path d="M1684.448,1372.8h-27.153v9.051h27.153Z" transform="translate(-330.076 -574.185)" fill="#221c26" fill-rule="evenodd"/><path d="M1569.823,2151.934l4.68-.455a5.709,5.709,0,0,0,1.715,3.462,5.181,5.181,0,0,0,3.486,1.105,5.36,5.36,0,0,0,3.5-.983,2.927,2.927,0,0,0,1.178-2.3,2.168,2.168,0,0,0-.5-1.438,3.966,3.966,0,0,0-1.731-1.032q-.845-.292-3.852-1.04a13.058,13.058,0,0,1-5.427-2.357,6.2,6.2,0,0,1-2.194-4.794,6.128,6.128,0,0,1,1.032-3.4,6.462,6.462,0,0,1,2.974-2.413,11.924,11.924,0,0,1,4.689-.829q4.485,0,6.753,1.967a6.94,6.94,0,0,1,2.381,5.25l-4.81.211a4.087,4.087,0,0,0-1.325-2.641,4.849,4.849,0,0,0-3.047-.8,5.5,5.5,0,0,0-3.282.861,1.736,1.736,0,0,0-.764,1.479,1.828,1.828,0,0,0,.715,1.446,12.648,12.648,0,0,0,4.42,1.593,23.347,23.347,0,0,1,5.193,1.715,6.7,6.7,0,0,1,2.633,2.421,7.5,7.5,0,0,1-.187,7.63,6.818,6.818,0,0,1-3.218,2.657,13.5,13.5,0,0,1-5.184.87q-4.518,0-6.939-2.089a9.082,9.082,0,0,1-2.893-6.086" transform="translate(-258.067 -1202.018)" fill="#3f5175"/><path d="M1713.607,2150.927l4.664,1.479a10.459,10.459,0,0,1-3.567,5.794,11.224,11.224,0,0,1-14.13-1.349q-3.056-3.242-3.056-8.866,0-5.948,3.072-9.238a10.531,10.531,0,0,1,8.077-3.291,9.909,9.909,0,0,1,7.1,2.584,9.4,9.4,0,0,1,2.438,4.388l-4.761,1.137a4.922,4.922,0,0,0-5.022-4,5.42,5.42,0,0,0-4.3,1.9q-1.65,1.9-1.65,6.16,0,4.518,1.625,6.436a5.277,5.277,0,0,0,4.225,1.917,4.816,4.816,0,0,0,3.3-1.219,7.083,7.083,0,0,0,1.983-3.835" transform="translate(-363.189 -1202.018)" fill="#3f5175"/><path d="M1848.476,2161.578h-5.233l-2.08-5.412h-9.523l-1.967,5.412h-5.1l9.28-23.825h5.087Zm-8.857-9.426-3.283-8.841-3.218,8.841Z" transform="translate(-467.781 -1203.91)" fill="#3f5175"/><path d="M1974.513,2161.579v-23.825h4.68l9.751,15.911v-15.911h4.469v23.825h-4.827l-9.6-15.537v15.537Z" transform="translate(-591.218 -1203.911)" fill="#3f5175"/><path d="M2110.482,2161.579v-23.825h4.681l9.751,15.911v-15.911h4.469v23.825h-4.827l-9.6-15.537v15.537Z" transform="translate(-703.152 -1203.911)" fill="#3f5175"/><rect width="4.81" height="23.825" transform="translate(1431.172 933.843)" fill="#3f5175"/><path d="M2298.762,2161.579v-23.825h4.681l9.75,15.911v-15.911h4.469v23.825h-4.827l-9.6-15.537v15.537Z" transform="translate(-858.148 -1203.911)" fill="#3f5175"/><path d="M2441.679,2150.927v-4.015h10.369v9.491a13.044,13.044,0,0,1-4.38,2.576,15.949,15.949,0,0,1-5.81,1.114,13.042,13.042,0,0,1-6.517-1.568,9.966,9.966,0,0,1-4.176-4.486,14.488,14.488,0,0,1-1.4-6.346,13.715,13.715,0,0,1,1.56-6.615,10.514,10.514,0,0,1,4.566-4.437,12.336,12.336,0,0,1,5.7-1.186,11.382,11.382,0,0,1,6.932,1.861,8.4,8.4,0,0,1,3.209,5.143l-4.778.894a5.045,5.045,0,0,0-1.893-2.771,5.725,5.725,0,0,0-3.47-1.015,6.517,6.517,0,0,0-5.013,2q-1.862,2-1.861,5.932,0,4.242,1.885,6.362a6.294,6.294,0,0,0,4.941,2.121,8.279,8.279,0,0,0,3.03-.593,10.4,10.4,0,0,0,2.609-1.438v-3.023Z" transform="translate(-965.995 -1202.018)" fill="#3f5175"/><rect width="4.567" height="4.567" transform="translate(1490.458 953.101)" fill="#3f5175"/><rect width="4.567" height="4.567" transform="translate(1499.705 953.101)" fill="#3f5175"/><rect width="4.567" height="4.567" transform="translate(1508.952 953.101)" fill="#3f5175"/><path d="M985.607,522.214a19.358,19.358,0,0,1,8.82,8.448,41.633,41.633,0,0,0-.121-18.786c-.452-1.888-3.452-1.419-5.135-.451a6.913,6.913,0,0,0-3.064,4.743,22.385,22.385,0,0,0-.5,6.046" transform="translate(222.916 135.619)" fill="#2b2024"/><path d="M1073.528,1239.85l16.039-9.94-1.054-1.3-12.916-2.374-22.409,16.121,8.519,6.9,6.077-2.247Z" transform="translate(167.239 -453.525)" fill="#242d42"/><path d="M1075.416,1247.209l14.985-11.241-12.916-2.374-23.285,16.475,9.395,6.545,6.077-2.248Z" transform="translate(166.406 -459.583)" fill="#3f5175"/><path d="M874.7,853.8a120.742,120.742,0,0,1,4.048,23.658c.513,7.5-.011,16.728-1.061,35.178-.166,2.911-.823,14.173-.823,14.173s10.823,3.494,13.486,11.321-1.665,15.652-4.162,16.485-24.309-8.158-24.309-8.158l-.833-38.128L874.7,853.8" transform="translate(325.415 -146.924)" fill="#a9cbe4"/><path d="M592.483,2732.344q2.784-23.471,7.652-46.633a170.246,170.246,0,0,1,19.439,2.025c-.241,4.62-.068,9.252.03,13.877.019.886,4.12,3.744,4.865,4.427q2.689,2.466,5.368,4.943c2.99,2.757,5.78,6.234,8.991,8.619a72.545,72.545,0,0,0,13.7,7.968c1.99.888,4.889,1.357,6.628,2.547,1.845,1.263,2.7,4.365,2.646,6.457-7.055,2.23-14.886,1.96-22.23,1.06s-14.661-2.346-22.059-2.273c-4.189.041-8.364.57-12.553.537a26.536,26.536,0,0,1-12.479-3.555" transform="translate(546.503 -1655.003)" fill="#2e2528"/><path d="M360.132,2760.426c12.8,3.013,25.654,6.037,38.759,7.1a15.7,15.7,0,0,0,4.442-.086,5.8,5.8,0,0,0,3.657-2.1c.744-1.005,1.658-2.282,1.038-3.369a34.563,34.563,0,0,0-9.979-10.593c-3.961-2.865-9.469-3.026-12.495-6.865-4.143-5.255-8.256-10.43-12.4-15.685-.218-5.7-.462-11.864-.68-17.562-1.9-.118-21.531-.753-21.526-.861a414.711,414.711,0,0,0,.1,43.956c.087,1.572-.132,2.8,1,3.9a8.29,8.29,0,0,0,4.245,1.918c1.545.306,2.3-.107,3.838.254" transform="translate(745.779 -1675.329)" fill="#2e2528"/><path d="M340.923,1566.316c.666,10.323,1.665,46.952,2,61.937s3.663,37.212,2,43.914-7.659,21.686-10.323,35.672-11.315,74.623-11.315,74.623,5.994,8.658,12.987,7.992,19.06-6.327,19.06-6.327,7.572-54.31,11.568-66.964,10.656-25.974,11.655-29.637,4-34.965,4-34.965,6.327,29.3,6.327,34.632-15.644,88.024-15.644,88.024,7.326,6.246,13.986,8.577,18.315,1.332,18.315,1.332,18.641-87.609,19.64-92.937-10.656-125.873-10.656-125.873Z" transform="translate(768.117 -733.489)" fill="#4d4749"/><path d="M655.235,1760.063H655.2a.711.711,0,0,1-.675-.746c.518-10.269,2.759-38.319,6.854-44.719,3.967-6.2,13.18-18.162,13.273-18.282a.711.711,0,0,1,1.127.869c-.092.119-9.268,12.034-13.2,18.18-3.91,6.109-6.154,34.544-6.632,44.024a.711.711,0,0,1-.71.675" transform="translate(495.43 -840.279)" fill="#2b2024"/><path d="M403.7,770.687a165.064,165.064,0,0,0-3.391,55.591,117.5,117.5,0,0,0,80.064.852c2-12.238,4.246-56.443,4.246-56.443s9.74-34.632,9.99-42.041,1.249-28.638,0-31.135-20.729-21.267-20.729-21.267l-45.454-12.293S405.949,682.776,403.2,686.4s1.249,29.864,1.249,29.864Z" transform="translate(705.505 9.36)" fill="#3f5175"/><path d="M369.143,801.382c-2.885.289-4.994,9.958-6.492,17.617s-3.663,48.191-3.663,55.98-1.569,16.536,3.829,19.111,53.779,7.159,58.608,7.492,12.654-3.361,12.654-3.361l5.161-5.53-5.661-16.416s-4.329-4.319-7.825-4.241-24.808.744-32.634-4.417c-.5-7.076.832-21.312.333-27.639s-6.33-40.4-24.31-38.6" transform="translate(738.897 -103.72)" fill="#a9cbe4"/><path d="M410.349,1169.418a.712.712,0,0,1-.656-.985c.835-2,5.748-8.846,10.716-12.614,4.932-3.742,11.11-2.014,15.045,1.359a.711.711,0,0,1-.926,1.08c-3.5-3-8.959-4.569-13.26-1.306-4.778,3.624-9.473,10.133-10.263,12.028a.711.711,0,0,1-.657.438" transform="translate(697.026 -393.82)" fill="#5188b0"/><path d="M888.191,1182.714a21.38,21.38,0,0,0-8.373-9.679,47.587,47.587,0,0,0-11.536-4.7,7.3,7.3,0,0,0-6.115,1.142,58.74,58.74,0,0,0-10.869,10.264l-.3,16.41,9.537-1.772c1.315-.245,2.848-.665,3.3-1.921.193-.531.177-1.184.844-1.418a1.354,1.354,0,0,1,1.373.341c.815.794,1.158,1.275,2.121,1.183,5.948-.567,11.714-5.772,13.257-11.545a36.058,36.058,0,0,0,3.395,2.9,3.714,3.714,0,0,0,1.926.907,1.5,1.5,0,0,0,1.438-2.117" transform="translate(333.69 -405.671)" fill="#ffa383"/><path d="M970.381,1203.956a.709.709,0,0,1-.5-.2,45.918,45.918,0,0,0-10.238-7.558.711.711,0,0,1,.678-1.25,47.325,47.325,0,0,1,10.555,7.792.711.711,0,0,1-.5,1.219" transform="translate(244.553 -427.696)" fill="#c76d4f"/><path d="M960.643,1232.007a.708.708,0,0,1-.486-.192,36.766,36.766,0,0,0-9.989-6.661.711.711,0,1,1,.586-1.3,38.184,38.184,0,0,1,10.374,6.918.711.711,0,0,1-.486,1.231" transform="translate(252.392 -451.516)" fill="#c76d4f"/><path d="M952.375,1263.026a.711.711,0,0,1-.6-.33,13.332,13.332,0,0,0-6.375-5.241.711.711,0,1,1,.516-1.325,14.763,14.763,0,0,1,7.061,5.8.712.712,0,0,1-.6,1.093" transform="translate(256.347 -478.096)" fill="#c76d4f"/><path d="M778.551,1222.219l1.1,22.5,15.4-.718-1.915-21.228Z" transform="translate(393.327 -450.22)" fill="#a9cbe4"/><path d="M965.2,1280.929c-1.98.146-4.645.334-6.329,1.387a7.519,7.519,0,0,0-3.452,4.658,6.718,6.718,0,0,0,1.092,5.159,7.78,7.78,0,0,0,4.38,3.006c2.787.739,5.728,0,8.516-.728l12.2-3.2a20.4,20.4,0,0,0,4.971-1.778,21.807,21.807,0,0,0,3.911-3.14c1.349-1.249,2.48-2.035,3.235-3.743a27.372,27.372,0,0,0,2.335-10.775c-.884-.683-2.2-.256-3.114.388a5.333,5.333,0,0,0-1.82,2.746c-.354,1.06-.539,2.169-.9,3.227a10.453,10.453,0,0,1-5.84,6.218c-.582-1.781-1.023-3.659-1.6-5.439a10.608,10.608,0,0,0-1.271-2.882,3.585,3.585,0,0,0-2.592-1.62,2.195,2.195,0,0,0-2.315,1.707c-.387,2.813.5,5.231.755,8.058-.687-2.091-1.5-3.925-2.183-6.016a3.149,3.149,0,0,0-1.232-1.927c-1.268-.688-2.694.378-3.458,1.6a3.832,3.832,0,0,0-2.809-.329,3.359,3.359,0,0,0-2.135,1.56,5.219,5.219,0,0,0-.339,1.867" transform="translate(247.834 -490.725)" fill="#ffa383"/><path d="M1003.325,1333.58a.664.664,0,0,1-.079,0,.711.711,0,0,1-.629-.785l.9-8.161a.711.711,0,0,1,1.414.156l-.9,8.161a.711.711,0,0,1-.706.633" transform="translate(208.875 -534.006)" fill="#c76d4f"/><path d="M1039.857,1318.577a.711.711,0,0,1-.694-.56l-2.3-10.562a.711.711,0,0,1,1.39-.3l2.3,10.562a.712.712,0,0,1-.544.846.728.728,0,0,1-.152.016" transform="translate(180.688 -519.678)" fill="#c76d4f"/><path d="M1077.7,1345.49a.711.711,0,0,1-.7-.572l-1-4.995a.711.711,0,1,1,1.395-.279l1,4.995a.712.712,0,0,1-.7.851" transform="translate(148.468 -546.417)" fill="#c76d4f"/><path d="M716.819,720.361l13.908-13.222s6.259,9.026,5.594,10.58-11.433,6.1-17.316,5.328-2.186-2.685-2.186-2.685" transform="translate(445.09 -26.193)" fill="#a9cbe4"/><path d="M665.048,571.257,659.2,564.8l-15.1,16.095,14.43,23.31,1.842-1.7c-3.109-9.864.58-21.515,4.672-31.25" transform="translate(504.007 90.984)" fill="#ffa383"/><path d="M745.452,612.4l-10.025-11.07c-4.092,9.734-7.781,21.385-4.672,31.25l10.02-9.234Z" transform="translate(433.628 60.912)" fill="#c96f50"/><path d="M569.376,630.164s-8.547-22.2-12.21-26.973-6.549-8.88-9.99-8.88-9.1,2.22-10.434,4.773-2.829,12.016-2.829,12.016,6.6-3.247,10.6.638,15.762,16.428,24.864,18.426" transform="translate(594.719 66.69)" fill="#a9cbe4"/><path d="M791.328,464.431q-1.552,6.687-3.5,13.273c-.536,1.81-.863,3.986-1.776,5.616-1.112,1.986-3.053,3.385-3.881,5.461-1.122,2.814-1.866,5.483-3.891,7.74-5.523,6.153-12.105,11.226-18.892,15.917-2.958,2.044-6.778-.087-9.888-1.89-2.827-1.639-3.613-4.167-4.769-7.068A56.5,56.5,0,0,1,741.45,475.3c1.042-8.215,10.945-12.726,18.633-15.8a36.946,36.946,0,0,1,24.348-1.01,12.556,12.556,0,0,1,4.188,1.988c1.218.966,3.06,2.44,2.708,3.954" transform="translate(424.287 179.812)" fill="#ffa383"/><path d="M753.4,333.776a63.988,63.988,0,0,0-3.681-7.7,22.522,22.522,0,0,1-10.752,6.333,13.32,13.32,0,0,0,3.071-7.728,50.034,50.034,0,0,1-27.074,5.523,19.38,19.38,0,0,0,.785-3.707c.1-.962-.034-1.806.149-2.786a20.494,20.494,0,0,0-11.951,14.152,14.535,14.535,0,0,1-1.139-8.484c-1.962,1.315-3.879,2.666-5.811,4.015l-4.071,2.841a15.31,15.31,0,0,0-3.245,2.617,26.753,26.753,0,0,1-2.8,3.037,1.93,1.93,0,0,1-1.767.668,1.327,1.327,0,0,1-.8-1.011c-.216-1.035.205-2.414.2-3.5q-.013-2.206,0-4.412.021-4.274.126-8.547.17-6.891.558-13.775c.117-2.076.075-3.587,1.179-5.363a31.561,31.561,0,0,1,3.115-4.188,33.026,33.026,0,0,1,17.723-10.437q1.33-.284,2.681-.449a19.447,19.447,0,0,1,9-5.37,6,6,0,0,0-.782,3.973,7.615,7.615,0,0,1,5.214-1.207c11.6.848,19.318,13.64,25.575,23.444a39.13,39.13,0,0,1,5.1,10.736,17.446,17.446,0,0,1-.607,11.32" transform="translate(470.961 320.903)" fill="#2b2024"/><path d="M712.015,521.618c-1.012,1.521-3.392,1.586-4.885.532a7.636,7.636,0,0,1-2.659-4.653c-.877-3.756-1.162-9.377,2.833-11.525a4.046,4.046,0,0,1,4.659.5,6.125,6.125,0,0,1,1.368,2.731,33.4,33.4,0,0,1,1.2,6.634c.161,2.073-1.362,4.051-2.513,5.782" transform="translate(454.761 139.83)" fill="#ffa383"/><path d="M881.34,637.232c0,.127-.007.255-.01.384a3.788,3.788,0,0,1-.418,2.119,2.161,2.161,0,0,1-2.008.687,7.888,7.888,0,0,1-2.537-.961.711.711,0,0,0-.65,1.265,9.088,9.088,0,0,0,3.016,1.108,4.431,4.431,0,0,0,.527.032,3.414,3.414,0,0,0,2.8-1.294,4.929,4.929,0,0,0,.69-2.927c0-.124.005-.246.009-.368a12.508,12.508,0,0,1,3.016-7.584.816.816,0,0,0,.244-1.169.8.8,0,0,0-.994-.155,13.836,13.836,0,0,0-3.687,8.862" transform="translate(313.655 38.738)" fill="#c76d4f"/><path d="M836.158,708.331a12.322,12.322,0,0,1-7.581-2.623.711.711,0,1,1,.882-1.116,10.867,10.867,0,0,0,7.57,2.28.711.711,0,1,1,.119,1.418q-.494.041-.99.041" transform="translate(352.367 -23.97)" fill="#c76d4f"/><path d="M860.193,579.255a7.21,7.21,0,0,1,3.035-1.061,9.58,9.58,0,0,1,3.222.139,9.865,9.865,0,0,1,3.005,1.167,7.412,7.412,0,0,1,2.367,2.17.7.7,0,0,1-.738,1.063l-.026-.006c-.969-.234-1.834-.493-2.7-.713s-1.7-.425-2.55-.6-1.7-.32-2.577-.455-1.774-.25-2.759-.433l-.025,0a.7.7,0,0,1-.256-1.269" transform="translate(326.376 80.021)" fill="#2b2024"/><path d="M947.662,604.234a8.789,8.789,0,0,1,2.237-1.216,11.507,11.507,0,0,1,2.48-.629,11.864,11.864,0,0,1,2.568-.082c.213.029.426.067.636.117a5.246,5.246,0,0,1,.618.216,3.286,3.286,0,0,1,1.131.8.807.807,0,0,1-.214,1.245l-.058.031a3.346,3.346,0,0,1-.619.253,3.793,3.793,0,0,1-.578.146,4.124,4.124,0,0,1-.556.078,4.792,4.792,0,0,1-.543.021c-.717-.032-1.434-.046-2.157-.037s-1.45.043-2.19.093l-2.279.175h-.011a.679.679,0,0,1-.464-1.215" transform="translate(254.33 60.135)" fill="#2b2024"/><path d="M868.032,613.8c-1.182,1.182-2.562,1.719-3.083,1.2s.016-1.9,1.2-3.083,2.563-1.719,3.083-1.2-.017,1.9-1.2,3.083" transform="translate(322.366 53.346)" fill="#2b2024"/><path d="M935.392,631.924c-1.182,1.182-2.562,1.719-3.083,1.2s.016-1.9,1.2-3.083,2.563-1.719,3.083-1.2-.016,1.9-1.2,3.083" transform="translate(266.914 38.427)" fill="#2b2024"/><g transform="translate(1266.619 896.801)" clip-path="url(#aa)"><path d="M325.568,263.192a6.793,6.793,0,0,1-6.479-7.084,6.877,6.877,0,0,1,4.9-6.221,1.891,1.891,0,0,0,1.357-1.98l-.111-1.25c-.244-2.531-.442-5.065-.641-7.6-.215-2.779-.423-5.432-.686-8.086-.22-2.553-.51-5.182-.865-7.839l-.493-3.637a1.89,1.89,0,0,0-.47-1.011c-.085-.092-.161-.191-.241-.3-.134-.182-.379-.5-.625-.786a1.894,1.894,0,0,0-.95-.588,1.88,1.88,0,0,1-.671-.325l-14.331-10.918a5.066,5.066,0,0,1-.481-.394c-1.682-1.482-2.895-2.716-4.191-4.06-1.3-1.362-2.4-2.606-3.48-3.922a42.952,42.952,0,0,1-3.412-4.742c-.016-.027-.449-.756-.527-.883l-4.252-6.373c-.142-.211-.248-.371-.4-.635l-.693-1.178-1.236-2.171c-.78-1.4-1.511-2.77-2.224-4.163s-1.407-2.811-2.123-4.387l-1.032-2.411-7.492-16.238A23.971,23.971,0,0,1,295.456,120a24.046,24.046,0,0,1,21.766,13.92,24.566,24.566,0,0,1,2.084,7.613c1.86,18.12,1.861,18.143,1.862,18.255-.008.225-.012.374-.009.46l.025.462c.049.806.172,1.826.364,3.019l.558,3.171.276,1.445.114.647c.057.244.2.757,2.2,7.632a1.9,1.9,0,0,1,.076.541,1.962,1.962,0,0,0,.031.358,12,12,0,0,0,.459,1.578c.289.825.658,1.7,1.014,2.5.141.331.3.656.437.95.2.4.3.62.371.826a1.926,1.926,0,0,0,.255.471s10.751,14.578,11,14.914l.6.734c.188.232.356.444.486.633a26.078,26.078,0,0,1,3.309,6.222,31.747,31.747,0,0,1,1.639,6.1,29,29,0,0,1,.369,3.432,20.094,20.094,0,0,1-.1,3.263l-.546,3.981c-.356,2.673-.647,5.312-.865,7.837-.266,2.695-.478,5.388-.687,8.079-.2,2.538-.4,5.071-.641,7.6l-.288,3.242c-.045.543-.087,1.026-.165,1.455a16.264,16.264,0,0,1-2.868,7.084A12.544,12.544,0,0,1,335,261.791a10.844,10.844,0,0,1-2.837,1.229,9.02,9.02,0,0,1-1.655.306c-.2.02-.686.05-.719.05s-4.223-.184-4.223-.184" transform="translate(-114.277 -50.511)" fill="#da904a"/><path d="M357.254,265.737a6.787,6.787,0,0,1-1.353-13.394,1.89,1.89,0,0,0,1.461-1.91l-.07-1.858c-.119-2.6-.193-5.195-.266-7.792-.078-2.767-.155-5.528-.29-8.289-.091-2.58-.251-5.28-.477-8.05a2.486,2.486,0,0,0-.457-1.247l-.536-.676a1.885,1.885,0,0,0-.987-.619,1.861,1.861,0,0,1-.658-.311s-12.47-9.18-12.764-9.393a29.062,29.062,0,0,1-2.912-2.353,70.479,70.479,0,0,1-7.383-7.758c-.58-.712-1.161-1.457-1.767-2.317-.3-.418-.614-.894-.932-1.389-.181-.279-.3-.446-.424-.612l-5.611-7.816-.733-1.191c-.559-.948-1.048-1.819-1.5-2.65a69.566,69.566,0,0,1-4.523-10.07l-.5-1.542-.367-1.306-2.064-5.983L306.8,151.87a23.945,23.945,0,1,1,45.222-15.762,24.6,24.6,0,0,1,1.334,7.6l.188,16.243.091,6.026a1.871,1.871,0,0,1-.072.543,1.878,1.878,0,0,0-.067.4,30.055,30.055,0,0,0,.423,5.145c.068.484.108.79.121,1.031a1.332,1.332,0,0,0,.1.558s3.059,9.106,3.083,9.18a1.917,1.917,0,0,1,.083.43,1.838,1.838,0,0,0,.036.252,8.152,8.152,0,0,0,.313,1.057,40.181,40.181,0,0,0,2.278,4.807,1.576,1.576,0,0,1,.094.207,1.966,1.966,0,0,0,.164.327c.184.293.741,1.018,1.122,1.509.006.008,9.718,12.581,9.99,12.927l.2.226a16.614,16.614,0,0,1,1.053,1.312,25.046,25.046,0,0,1,3.374,6.454,29.948,29.948,0,0,1,1.513,6.456,26.536,26.536,0,0,1,.169,3.729c0,.324-.024.668-.047.995l-1.9.076,1.885.131c-.021.3-.038.5-.06.658l-.192,1.074c-.484,2.7-.9,5.375-1.249,7.961-.4,2.733-.74,5.465-1.082,8.2-.323,2.583-.646,5.168-1.016,7.749l-.636,4.527a16.8,16.8,0,0,1-3.042,7.077,13.306,13.306,0,0,1-3.475,3.232,11.183,11.183,0,0,1-2.723,1.252,10.144,10.144,0,0,1-1.638.356c-.31.038-.591.065-.87.081-.051,0-.149.009-.216.009-.012,0-3.519-.147-4.091-.173" transform="translate(-128.569 -50.525)" fill="#e1a36a"/><path d="M126.5,265.065a5.879,5.879,0,0,1-1.675-11.513l.218-.066a1.884,1.884,0,0,0,1.361-1.8l0-.535c-.006-.717-.013-1.5.018-2.631l.3-14.639c.019-1.132.036-2.257.02-3.385a22.453,22.453,0,0,0-.3-2.652,33.245,33.245,0,0,0-1.386-5.659,8.817,8.817,0,0,0-.4-.983l-9.615-25.484-5.248-13.544c-3.212-8.345-6.718-17.184-10.719-27.028a20.749,20.749,0,1,1,38.443-15.625,21.307,21.307,0,0,1,1.484,6.474c.7,10.773,1.39,20.257,2.119,29l1.17,14.471,2.671,29.593a61.483,61.483,0,0,1-.269,8.653c-.149,1.462-.322,3-.6,4.524-.249,1.149-.463,2.292-.676,3.436l-3.122,17.077c-.082.466-.184.917-.3,1.361a18.445,18.445,0,0,1-2.252,5.255,14.411,14.411,0,0,1-2.158,2.673,9.8,9.8,0,0,1-4.537,2.56l-.433.1a1.9,1.9,0,0,1-.229.034l-3.312.309c-.187.018-.374.027-.558.027" transform="translate(-41.056 -53.277)" fill="#da904a"/><path d="M342.812,119.8c-.661,2.559,1.232,5.807,4.208,7.219l.317.151c2.975,1.412,7.943,3.484,11.04,4.6l8.375,3.032a89.5,89.5,0,0,0,11.515,3.144l1.616.3a105.361,105.361,0,0,0,11.866,1.4l2.645.127a42.693,42.693,0,0,0,11.726-1.4l3.55-1.041a49.534,49.534,0,0,0,10.773-4.938l2.546-1.648c2.765-1.789,4.555-4.415,3.978-5.835s-3.724-2.262-6.994-1.869L405.3,124.808a79.177,79.177,0,0,1-11.921.338l-6.582-.413a79.039,79.039,0,0,1-11.784-1.829l-25.19-6.3c-3.195-.8-6.35.64-7.011,3.2" transform="translate(-144.238 -48.985)" fill="#dc9655"/><path d="M211.973,63.689c-15.239-12.055-28.826-10.884-41.686-9.425-6.763.767-18.12,4.817-24.826,5.776C133.727,61.719,125.3,60.07,114.243,58c-4.705-2.781-9.191-6.049-13.285-8.355-2.586-1.456-6.19-2.375-7.352-3.724-1.991-2.313-1.129-6.144-1.229-10.75A45.69,45.69,0,0,0,89.919,20.6c-3.606-9.671-11.606-16.2-22.23-19.167A33.7,33.7,0,0,0,41.748,4.147,32.012,32.012,0,0,0,28.283,16.871c-2.47,4.2-4.571,6.3-8.03,7.288-2.66.76-8.148,1.363-10.817,2.089S3.518,28.178,2.1,30.554C-.488,34.9,4.67,47.135,6.688,48.908c6.677,5.868,23.285,3.372,28.945,6.981,4.184,2.668,5,4.65,7.412,9.653a40.639,40.639,0,0,1,2.876,7.663c.368,1.506.823,5.641,1.351,7.989A28.682,28.682,0,0,0,53.131,93.3c-.016.874-.01,1.768.025,2.688a50.118,50.118,0,0,0,4.937,20.518,36.918,36.918,0,0,0,12.915,14.622c13.043,8.509,20.933,9.414,35.615,10.52,9,.679,26.785-3.074,35.4-6.391s10.726-5.6,20.365-6.391c24.09-1.967,36.871,2.949,53.24-12.23,16.212-15.032,12.313-40.321-3.651-52.948" transform="translate(-0.585 0)" fill="#e1a36a"/><path d="M121.456,39.754a41.828,41.828,0,0,0-4.506-25.97C114.191,8.927,103,4.667,97,5.845c-3.459.679-1.594,9.034-1.235,12.106A56.689,56.689,0,0,1,94.9,38.766c-1.4,5.688-3.621,10.563-5.682,16.059-.065,4.7,7.041,2.347,16.429-1.606,6.7-2.822,14.457-6.147,15.812-13.465" transform="translate(-37.551 -2.377)" fill="#d47c2a"/><path d="M6.034,47.242a1.819,1.819,0,0,1,.237.309c1.03,1.69-.782,4.947-1.787,6.24-.574.739-1.408,1.419-2.233,1.138C1.5,54.673,1.108,53.742.807,52.908A12.132,12.132,0,0,1,.033,50.06c-.182-1.749.361-2.926,1.873-3.249,1.13-.241,3.144-.6,4.127.431" transform="translate(0 -19.593)" fill="#594747"/><path d="M125.943,78.555A75.16,75.16,0,0,1,78.287,106.27" transform="translate(-32.952 -33.065)" fill="none" stroke="#de0000" stroke-linecap="round" stroke-linejoin="round" stroke-width="10.855"/><path d="M13.7,75l1.725,2.69a4.932,4.932,0,0,0,3.889,2.041l8.222-.283" transform="translate(-5.766 -31.567)" fill="none" stroke="#fff" stroke-linecap="round" stroke-linejoin="round" stroke-width="4.203"/><path d="M53.1,45.316a2.875,2.875,0,0,1-2.074.207,1.968,1.968,0,0,1-1.083-1.5c-.369-1.544-.44-4.1,1.2-4.9a1.736,1.736,0,0,1,1.6.029,5.485,5.485,0,0,1,1.368,1.027c.968,1.106,2.027,2.781,1.244,3.825A6.755,6.755,0,0,1,53.1,45.316" transform="translate(-20.929 -16.389)" fill="#231815"/><path d="M146.365,271.439a5.882,5.882,0,0,1-2.06-11.38,1.893,1.893,0,0,0,1.206-1.959l-1.58-15.373a29.3,29.3,0,0,0-.437-3.065c-.184-1-.4-2.027-.658-3.047a48.691,48.691,0,0,0-1.748-5.807L132,204.6l-4.682-13.087c-2.819-7.946-5.955-16.492-9.59-26.134a20.786,20.786,0,0,1,19.436-28.107,20.882,20.882,0,0,1,19.442,13.45,21.284,21.284,0,0,1,1.328,6.818c.25,10.193.554,19.291.929,27.823l.576,13.887,1.432,27.756c.18,2.465.155,4.658.131,6.777l-.01,1.031-.107,3.8c-.054,1.284-.127,2.75-.212,3.8l-.894,13.765-.192,2.8c-.021.385-.071.759-.12,1.13a17.359,17.359,0,0,1-1.9,5.834A12.21,12.21,0,0,1,155.189,269a9.477,9.477,0,0,1-2.182,1.514,8.757,8.757,0,0,1-1.494.59c-.254.074-.566.137-.862.193l-.521.075a1.779,1.779,0,0,1-.243.02l-3.515.045Z" transform="translate(-48.987 -57.781)" fill="#e1a36a"/></g></g></svg>