<svg xmlns="http://www.w3.org/2000/svg" xmlns:xlink="http://www.w3.org/1999/xlink" width="670" height="637" viewBox="0 0 670 637"><defs><clipPath id="a"><rect width="505.851" height="429.898" fill="none"/></clipPath><clipPath id="c"><rect width="9.259" height="20.328" fill="none"/></clipPath><clipPath id="d"><rect width="57.483" height="44.053" fill="none"/></clipPath><clipPath id="e"><rect width="29.35" height="79.467" fill="none"/></clipPath><clipPath id="f"><rect width="60.814" height="15.404" fill="none"/></clipPath><clipPath id="g"><rect width="59.291" height="33.012" fill="none"/></clipPath></defs><g transform="translate(-980 -389)"><rect width="670" height="637" transform="translate(980 389)" fill="#d9cbec"/><g transform="translate(1062 493)" clip-path="url(#a)"><g clip-path="url(#a)"><path d="M393.949,115.708s-16.317,15.371-11.623,20.6,32.909-4.531,32.909-4.531l-6.365-17.882Z" transform="translate(-79.45 -23.72)" fill="#b21924"/><path d="M451.329,137.216c1.562-3.03,1.412-5.917,2.27-9.041.736-2.685,2.87-4.32,4.361-6.575a16,16,0,0,0,2.393-7.363,45.821,45.821,0,0,0-.65-5.535c-.5-2-1.057-3.988-1.7-5.954-2.717-8.247-8.107-15.229-10.63-23.459-2.667-8.7-3.394-17.7-11.317-23.545-4.439-3.275-9-4.108-14.4-4.133a19.755,19.755,0,0,1-7.314-1.111c-.294-.09-.58-.214-.867-.329a11.186,11.186,0,0,0-11.711,2.481A13.846,13.846,0,0,0,398.175,65.5c1.07,5.2,4.4,9.065,7.832,12.881l8.368,9.295c.615.683-.694,5.969-.8,6.859q-.716,6.165-1.433,12.33c-.477,4.1-.783,7.644.878,11.5,2.138,4.963,4.306,9.673,8.016,13.688,4.082,4.416,9.087,7.858,14.047,11.26a16.005,16.005,0,0,0,4.458,2.406,9.242,9.242,0,0,0,6.436-.644,47.022,47.022,0,0,0,5.35-7.86" transform="translate(-82.859 -10.3)" fill="#b21924"/><path d="M471.549,240.89c0,1.756-47.415,4.1-47.415,4.1l1.756-40.977,13.984-58.532a43.841,43.841,0,0,1,14.517,13.563c.287.433.568.884.838,1.347.175.293.345.585.515.89,5.854,10.536,1.756,38.049,5.268,42.147s6.439,9.951,6.439,15.219-4.682,9.366-2.341,12.878,6.439,7.61,6.439,9.366" transform="translate(-88.334 -30.299)" fill="#efb44b"/><path d="M415.481,245.915l-.585,11.707-63.221-9.366s2.342-4.682,1.171-18.732,62.635,16.39,62.635,16.39" transform="translate(-73.243 -47.031)" fill="#e68972"/><path d="M460.935,163.957A84.932,84.932,0,0,1,452.5,182.15c-.345.562-1.23.053-.89-.515A90.658,90.658,0,0,0,460.1,162.61c.287.434.568.884.837,1.347" transform="translate(-94.04 -33.867)" fill="#d89b39"/><path d="M379.793,132.525s-13.463-.585-19.456,3.271c-6.433,4.14-9.228,66.388-9.228,66.388s-1.171,9.366-.585,10.537,7.61,5.268,13.463,5.268,24.586,0,33.367,2.927,16.975,7.61,18.732,7.024,6.438-5.853,6.438-8.78.586-7.61.586-7.61,12.292-8.2,9.951-18.732-7.024-22.244-6.439-32.2,2.549-14.886,1.171-15.8c-3.512-2.342-16.39-9.952-16.39-9.952Z" transform="translate(-72.969 -27.594)" fill="#efb44b"/><path d="M434.966,92.875c-2.822,6.826-9.36,3.717-9.682,3.559-1.382,5.433-4.121,17.357-2.781,21.818,1.756,5.853,8.2,9.365,8.2,9.365s-3.512,29.855-12.878,28.1c-7.569-1.417-19.317-21.659-24.586-28.684s-6.439-8.78-6.439-8.78,10.536,0,12.292-1.757a7.28,7.28,0,0,0,1.177-2.341c.468-1.306.936-2.968,1.352-4.631a.386.386,0,0,1-.094.012l-.041.006c-1.34.169-9.152-.58-12.158-5.59-5.01-10.02,2.388-25.687,10.062-35.679,2.119-2.74,6.287-5,9.788-4.121,3.272.825,4.08,3.793,6.574,5.584a19.857,19.857,0,0,0,4.29,1.849,5.312,5.312,0,0,1,3.366,3.032,21.265,21.265,0,0,1,.3,2.587c.2,1.2.884,2.283,1.03,3.489a12.21,12.21,0,0,1-.105,2.394,19.308,19.308,0,0,0,.07,3.395,1.829,1.829,0,0,0,.5,1.306c.767.6,1.311-.8,1.815-1.194a14.013,14.013,0,0,1,2.2-1.405c1.452-.737,3.442-1.382,4.871-.263,2.716,2.072,1.633,6.122.884,7.949" transform="translate(-80.558 -13.321)" fill="#e68972"/><path d="M398.392,92.345a1.034,1.034,0,0,1,1.321-.584l1.518.6a1.021,1.021,0,1,1-.737,1.9l-1.518-.6a1.038,1.038,0,0,1-.584-1.321" transform="translate(-82.959 -19.097)" fill="#d1755f"/><path d="M418.557,74.762c1.246.694.964.473,2.173,1.236,1.226.774,2.352,1.7,3.548,2.521,1.078.74.017,2.485-1.07,1.739-1.195-.819-2.319-1.751-3.549-2.521-1.211-.758-.927-.541-2.173-1.236-1.146-.639-.077-2.378,1.071-1.739" transform="translate(-86.847 -15.542)" fill="#b21924"/><path d="M399.615,77.21a.955.955,0,0,0,.563-.729.864.864,0,0,0-.784-.988,7.4,7.4,0,0,0-1.819-.036c-.742.114-1.484.338-2.218.5a3.711,3.711,0,0,0-.9.287,1.262,1.262,0,0,0-.634.674c-.445,1.285,1.471.641,2.082.549a13.322,13.322,0,0,1,3.222-.182.968.968,0,0,0,.484-.079" transform="translate(-82.008 -15.706)" fill="#b21924"/><path d="M418.914,87.96a1.722,1.722,0,0,0,.758-2.516A2.593,2.593,0,0,0,417,84.493c-1.648.557-2.027,3.381-.131,3.878a2.748,2.748,0,0,0,2.044-.411" transform="translate(-86.557 -17.579)" fill="#1a1a1a"/><path d="M393,83.731a1.342,1.342,0,0,1,.238-1.877,2.518,2.518,0,0,1,2.449-.735,1.293,1.293,0,0,1,.627,1.811,2.96,2.96,0,0,1-1.385,1.21,1.776,1.776,0,0,1-1.765-.244,1.546,1.546,0,0,1-.165-.165" transform="translate(-81.791 -16.873)" fill="#1a1a1a"/><path d="M418.794,116.311c-3.431,4.683-8.248,8.412-14.986,8.745.469-1.306.937-2.967,1.352-4.63a.425.425,0,0,1-.093.011l.176-.04s.047-.006.059-.006a41.489,41.489,0,0,0,13.493-4.08" transform="translate(-84.101 -24.224)" fill="#1a1a1a"/><path d="M394.871,99.688a71.966,71.966,0,0,1,11.9.727c-1.466,5.3-10.355,9.81-11.9-.727" transform="translate(-82.239 -20.751)" fill="#fff"/><path d="M448.591,188.374c-1.991-7.165-3.989-17.819-3.378-25.218.124-1.49-1.379-2.351-1.5-.869-.509,6.171.393,16.466,1.637,22.537a68.2,68.2,0,0,0,2.628,9.2c1.159,3.254,2.237,6.421,1.389,9.9a17.754,17.754,0,0,1-4.834,8c-1.636,1.671-4.447,3.118-5.452,5.244-.948,2.008.032,4.257-.109,6.366a11.438,11.438,0,0,1-4.647,8.272c-.91.707.292,2.281,1.241,1.609a13.169,13.169,0,0,0,5.616-12.32c-.112-1.09-.283-2.536.412-3.5a10.478,10.478,0,0,1,1.75-1.437,35.877,35.877,0,0,0,3.49-3.28,20.717,20.717,0,0,0,4.347-6.964c2.209-6.176-.956-11.661-2.59-17.538" transform="translate(-90.389 -33.639)" fill="#d89b39"/><path d="M417.722,237.045c-5.309-1.7-10.26-4.377-15.619-5.918-5.765-1.659-11.5-1-17.382-.537-10.733.844-21.673-.311-30.845-6.348-.534-.352-.986.477-.492.842,6.446,4.787,14.689,6.577,22.579,6.89a114.588,114.588,0,0,0,13.449-.6,34.632,34.632,0,0,1,14.1,1.45c4.706,1.589,9.124,3.941,13.9,5.339a.583.583,0,0,0,.31-1.123" transform="translate(-73.555 -46.685)" fill="#d89b39"/><path d="M343.366,127.63c-.035,1.768-.948,3.05-1.416,4.683-.644,2.265-1.054,4.619-1.592,6.907-1.1,4.689-2.26,9.361-3.553,14a121.151,121.151,0,0,0-3.22,12.925,84.212,84.212,0,0,0-.749,12.68c-.029,3.032-.158,6.065-.41,9.085-.158,1.861.58,4.841-1.656,5.772a4.565,4.565,0,0,1-1.973.158,16.8,16.8,0,0,0-4.894.5c-1.861.474-3.635,1.264-5.508,1.668-3.454.743-6.662-.861-9.466-2.781-2.324-1.587-4.39-3.758-7.136-4.373-2.236-.5-4.548.129-6.831.345-5.871.55-11.725-1.732-16.537-5.139a63.348,63.348,0,0,1-10.478-9.911c-2.6-2.927-5.3-5.689-7.786-8.757-4.191-5.175-8.219-10.49-12.018-15.957-.234-.328-.462-.656-.691-.989l-.035-.053c-2.693-3.916-5.8-8.066-7.452-12.568-.082-.216-.146-.421-.2-.609-1.669-6.012-1.241-15.647,1.059-23.028,1.739-5.556,4.537-9.835,8.306-10.338,4.355,4.929,8.909,9.7,13.581,14.33,3.659,3.629,7.411,7.188,11.4,10.449.164.135.333.269.5.409.017.012.035.029.058.047,2.8,2.266,5.761,4.472,9.2,5.6,1.85.609,3.413,2.025,5.116,3.05a22.854,22.854,0,0,0,6.047,2.663c.146.041.292.077.445.105a30.966,30.966,0,0,0,6.381.621c5.532.123,11.069.416,16.425-1.282q.923-.3,1.827-.667c.328-.123.65-.264.971-.4,1.083-.474,2.149-1.007,3.2-1.545,4.964-2.546,9.822-5.4,15.12-7.148,1.206-.392,2.716-.878,3.963-.451" transform="translate(-49.725 -21.212)" fill="#efb44b"/><path d="M305.431,147.99a1.164,1.164,0,0,1-.749-.272,86.516,86.516,0,0,0-11.145-7.778,46.348,46.348,0,0,1-11.37-8.349,1.17,1.17,0,0,1,1.711-1.6,44.893,44.893,0,0,0,10.752,7.875,88.408,88.408,0,0,1,11.551,8.05,1.171,1.171,0,0,1-.75,2.07" transform="translate(-58.701 -26.996)" fill="#fff3e1"/><path d="M252.3,154.108a11.312,11.312,0,0,1-1.551-.109,1.171,1.171,0,0,1,.321-2.319,7.615,7.615,0,0,0,6.255-1.808c7.415-6.244,8.14-25.257,8.146-25.449a1.171,1.171,0,1,1,2.34.079c-.028.823-.774,20.252-8.979,27.16a9.909,9.909,0,0,1-6.533,2.446" transform="translate(-52.012 -25.678)" fill="#d89b39"/><path d="M264.74,127.42a.583.583,0,0,1-.469-.234L259,120.162a.585.585,0,1,1,.936-.7l5.269,7.025a.586.586,0,0,1-.468.937" transform="translate(-53.918 -24.831)" fill="#d89b39"/><path d="M258.978,136.908a.583.583,0,0,1-.414-.172l-4.683-4.683a.585.585,0,0,1,.828-.827l4.683,4.683a.585.585,0,0,1-.414,1" transform="translate(-52.84 -27.295)" fill="#d89b39"/><path d="M253.8,153.3a.584.584,0,0,1-.488-.26l-4.683-7.026a.585.585,0,0,1,.975-.648l4.683,7.025a.585.585,0,0,1-.163.811.575.575,0,0,1-.324.1" transform="translate(-51.762 -30.22)" fill="#d89b39"/><path d="M296.966,225c1.122-.009.913-1.74-.2-1.73-7.095.063-15.267-1.354-18.434-8.616-.448-1.027-2.074-.4-1.624.632,3.51,8.05,12.315,9.785,20.257,9.714" transform="translate(-57.614 -44.597)" fill="#7297c4"/><path d="M240.026,118.671c-1.575,6.846-1.711,14.818-.26,20.048.053.187.117.392.2.609.349.3,4.191,2.025,9.216-15.85a79.013,79.013,0,0,1-9.156-4.807" transform="translate(-49.726 -24.715)" fill="#1a1a1a"/><path d="M348.024,183.886a.53.53,0,0,1-1.059,0c-.1-12.767-.222-25.692-5.456-37.523.328-.124.65-.264.971-.4,5.549,11.7,5.637,25.229,5.544,37.926" transform="translate(-71.126 -30.399)" fill="#d89b39"/><path d="M357.478,215.6a16.822,16.822,0,0,1-7.537.792c-1.292-.181-1.872,1.779-.55,1.994a16.3,16.3,0,0,0,8.649-.748c1.237-.484.762-2.456-.561-2.037" transform="translate(-72.611 -44.89)" fill="#d89b39"/><path d="M241.089,96.4c-5.666-7.3-10.97-15.579-12.716-24.648a9.4,9.4,0,0,0-.7-2.515,2.755,2.755,0,0,0-1.967-1.573c-1.359-.18-2.5,1.035-3.122,2.255a13.4,13.4,0,0,0-1.194,7.391c.165,1.686-2.18-.222-2.8-.561q-2.478-1.353-4.977-2.67-5-2.629-10.083-5.092a6,6,0,0,0-2.1-.71,2.061,2.061,0,0,0-1.939.852,3.7,3.7,0,0,1-.442.767c-.848.853-3.189-.515-4.263-.42a2.09,2.09,0,0,0-1.952,1.578c-.261,1.785,1.658,3.286,2.9,4.2,2.828,2.067,5.781,3.91,8.556,6.035a6.6,6.6,0,0,1,2.542,3c-1,.492-2.186-.042-3.173-.568l-6.712-3.583a7.808,7.808,0,0,0-3.224-1.148c-1.441-.065-2.73.877-2,2.424a8.987,8.987,0,0,0,3.182,3.1c2.757,1.734,5.4,3.473,8.257,4.994,1.112.591,2.627,1.4,3.106,2.64l-5.609-1.085a15.074,15.074,0,0,0-1.96-.291,2.063,2.063,0,0,0-1.846.61,1.593,1.593,0,0,0,.044,1.709,6.481,6.481,0,0,0,2.537,2.326c5.426,2.651,11.14,4.679,16.554,7.354a38.3,38.3,0,0,1,5.546,3.108c4.317,3.237,13.953,14.824,14.9,15.884,3.006-8.017,7.157-17.123,4.666-25.356" transform="translate(-39.885 -14.088)" fill="#e68972"/><path d="M223.827,102.023a31.939,31.939,0,0,1,.475-9.236c.4-1.967,1.165-4.854,3.264-5.636,1.774-.661,1.983,1.118.4,1.982-1.155.632-1.289,4.18-1.431,5.326-.272,2.184.3,5.016.425,7.211.113,2.009-2.953,2.392-3.134.352" transform="translate(-46.588 -18.121)" fill="#d1755f"/><path d="M543.572,309.946s6.439-1.756,10.537,7.61,4.1,22.244,4.1,22.244l-25.757.585Z" transform="translate(-110.893 -64.525)" fill="#5b74ca"/><path d="M551.922,308.692c-2.254-2.142-5.645,1.23-3.419,3.419a25,25,0,0,1,7.3,17.01,2.48,2.48,0,0,0,1.239,2.159,2.349,2.349,0,0,0,1.927.252,2.617,2.617,0,0,0,1.836-2.411,27.974,27.974,0,0,0-8.886-20.429" transform="translate(-114.085 -64.148)" fill="#fff"/><path d="M413.444,272.186s88.977-19.317,104.2-.585-48,38.635-48,38.635l-67.319-17.561Z" transform="translate(-83.791 -54.863)" fill="#a6644f"/><path d="M346.5,259.151s2.385-8.3,3.805-9.073,59.123,7.024,65.27,11.414c2.131,1.522,3.512,12.878,3.512,12.878l-21.659,16.391Z" transform="translate(-72.165 -52.073)" fill="#a6644f"/><g transform="translate(317.384 206.126)" opacity="0.7"><g clip-path="url(#c)"><path d="M409.75,266.521q-.261-2.7-.523-5.4c-.063-.652-1.088-.662-1.028,0,.254,2.841.573,5.685.764,8.531.109,1.615-.559,2.292-1.7,3.23-.9.743-1.846,1.461-2.733,2.231a100.649,100.649,0,0,0-2.652-14.4.511.511,0,0,0-.984.271,140.567,140.567,0,0,1,2.868,19.183c.067.664,1.07.7,1.061,0-.016-1.241-.088-2.488-.185-3.735,1.184-.853,2.292-1.831,3.418-2.758a4.593,4.593,0,0,0,2.005-2.627,18,18,0,0,0-.307-4.524" transform="translate(-400.873 -260.349)" fill="#7f4133"/></g></g><path d="M395.233,320.045s-17.679.234-34.426.328c-14.862.082-28.994.059-29.38-.328,0,0-30.3-21.156-27.618-43.687.029-.269.065-.533.105-.8,3.512-22.83,28.52-19.3,37.382-16.086s53.937,60.575,53.937,60.575" transform="translate(-63.239 -53.55)" fill="#a6644f"/><g transform="translate(240.402 222.808)" opacity="0.7"><g clip-path="url(#d)"><path d="M361.124,325.129l-.316.3c-14.863.082-28.994.059-29.38-.328,0,0-30.305-21.155-27.618-43.686.1,7.8,4.162,15.495,9.471,20.272,5.854,5.268,47.843,23.438,47.843,23.438" transform="translate(-303.641 -281.419)" fill="#7f4133"/></g></g><path d="M488.676,318l-21.529-6.044-7.155,20.678,26.343,5.854Z" transform="translate(-95.802 -64.971)" fill="#e3916f"/><path d="M537.287,536.653c0,4.394-8.121,3.515-193.174,3.515-159.579,0-193.174,1.758-193.174-3.515,0-3.955,86.487-3.515,193.174-3.515s193.174-2.2,193.174,3.515" transform="translate(-31.436 -110.95)" fill="#307650"/><path d="M318.463,333.234s208.471-1.734,210.065.608,2.658,26.342,0,26.342-5.314,0-5.642,1.246c-.894,3.391,1.922,128.122.328,131.635s-342.506,3.8-344.1,2.048,1.329-133.758-1.082-134.466c-3.344-.983-5.03.122-5.562-1.634s-2.125-25.171,0-26.342,145.992.563,145.992.563" transform="translate(-35.697 -69.201)" fill="#f7f0ed"/><path d="M518.995,366.827c-10.93-.583-21.948-.178-32.89-.178H388.5q-65.249,0-130.5,0c-24.4.013-48.813-.252-73.206.2-1.811.033-1.814,3.067,0,3.1,43.48.8,87.012.2,130.5.2H481.861c12.351,0,24.8.48,37.134-.179a1.584,1.584,0,0,0,0-3.142" transform="translate(-38.203 -76.333)" fill="#e5d5ca"/><path d="M501.978,529.322a2.426,2.426,0,0,0-2.325.938,1.068,1.068,0,0,0-.227.2l.107-.32a18.836,18.836,0,0,1,1.4-2.632c.682-1.131,2.361-3.066,1.563-4.735-.93-1.946-2.963.439-3.836,1.211-.941.831-1.852,1.728-2.729,2.672-.116.124-1.7,2.1-1.793,2.067.018.007-.148-.974-.228-1.449.006-.025.009-.049.015-.074l-.028,0c-.02-.12-.032-.192-.028-.174-.124-.551-.629-1.044-1.078-.809a16.294,16.294,0,0,0-3.964,2.977c0-.128,0-.254,0-.382.26-.751.6-1.632.663-1.964a7.576,7.576,0,0,0,0-2.87c-.188-1.049-1.17-1-1.583-.273-1.557,2.764-2.309,6.6-4.948,7.934a.879.879,0,0,0-.271.215c-.078.013-.157.026-.234.037a251.541,251.541,0,0,1-51.117,2.6c-4.606-.26-9.216-.513-13.826-.644a6.335,6.335,0,0,0-.232-1.416.786.786,0,0,0-1.207-.417c-.357.241-.772.579-1.186.849-.053-.526-.086-1.169-.09-1.209-.063-.593-.677-1-1.082-.812a2.568,2.568,0,0,0-1.249,1.1,5.564,5.564,0,0,1-.682.975.855.855,0,0,0-.387-.3c-.33.062-.653-.076-.986.138s-.417.793-.694,1l-.082-.093a.853.853,0,0,0-.387-.3c-.325-.079-.724.093-.985.033-.515-.12-.389-.052-1.051-.773a3.347,3.347,0,0,0-1.437-1.053,1.843,1.843,0,0,0-2.18.93c-.454.781-.2,1.177-.842,1.521-.523.032-1.045.055-1.568.094-1.135.086-2.27.189-3.4.3-1.483.064-2.965.122-4.448.157l-1.54.033c-.146-.01-.264-.017-.369-.021a7.656,7.656,0,0,0-.179-1.067.791.791,0,0,0-.963-.518,16.074,16.074,0,0,0-2.58,1.01c-1.9.085-3.766.872-5.685.68-1.849-.184-3.468-.732-5.261-.813a.769.769,0,0,0-.483-.241,25.5,25.5,0,0,0-3.705-.055.814.814,0,0,0-.757-.777,4.235,4.235,0,0,0,.343-1.842,1.276,1.276,0,0,0-.435-1c-1.368-.895-2.634.116-3.917.951-2.282,1.485-4.345,3.042-6.986,2.772a.516.516,0,0,0-.289.052c-1.9-.31-3.834.177-5.761.066-2.9-.168-5.75-.935-8.654-.97-5.071-.062-10.167.378-15.242.72-.6-.275-1.013-.819-1.633-1.125a1.33,1.33,0,0,0-.987.006c-.009-.029-.014-.059-.021-.089.651-1.723,1.943-4.076,0-4.887-.725-.3-1.594.4-2.2.825a14.172,14.172,0,0,0-2.079,1.821,2.375,2.375,0,0,1-.736.29l-.258-.274a21.306,21.306,0,0,0-1.537-2.017c-.583-.471-.952-.356-1.264-.024a6.261,6.261,0,0,0-.358-.553c-.569-.788-1.433-.125-1.5.822q-.125,1.724-.251,3.45c-1.171-1.006-2.005-2.842-2.8-4.25-1-1.771-1.956-3.592-2.88-5.438-.56-1.118-1.8-.4-1.61.9a38.314,38.314,0,0,0,1.283,5.758c.209.67,1.469,3.186,1.171,3.872-.241.555-4.36.5-5.006.572-1.473.169-2.946.345-4.42.5-6.318.658-12.615.139-18.936-.119a.612.612,0,0,0-.3.061,4.537,4.537,0,0,1-.52-.239c-.418-.229-.785-.724-1.256-.757-.306-.022-.686.427-.9.406-.046.079-.092.158-.139.236a.606.606,0,0,0-.165-.637c-.242-.108-.5-.3-.752-.407-.435-.192-.787.1-.967.538a6.658,6.658,0,0,0-1.868-2.231c-.633-.371-1.576.257-1.3,1.317a24.008,24.008,0,0,0,.728,2.288c-2.176.143-4.212-.851-6.431-.775-1.175.04-2.334-.234-3.515-.192a26.013,26.013,0,0,1-3.9.165c-2.157-.245-4.286-.083-6.449-.274a9.451,9.451,0,0,0-5.545.722.14.14,0,0,1-.018,0c-.992.243-2.009-.7-2.975-.914a20.893,20.893,0,0,0-3.365-.321,4.055,4.055,0,0,0-2.039.139,3.142,3.142,0,0,0-.469.423q.226-.713.443-1.429c.351-1.146-.854-1.745-1.427-1.1l-2.3,2.591c-4.84.933-9.616-.086-14.458-.241-2.009-1.624-4.238-.56-6.534-.941a8.384,8.384,0,0,1-1.572-.565,2.547,2.547,0,0,0-1.514-.565c-.384-.016-.768-.022-1.152-.038l-.463-.551a.768.768,0,0,0-.908-.26c-1.511-1.964-2.09-5.185-3.781-6.986a.817.817,0,0,0-1.458.508,13.138,13.138,0,0,0,.26,4.382c-.7-.948-1.443-1.855-2.018-2.756-1-1.563-1.956-4.332-3.5-4.956-.537-.216-1.1.375-1.1,1.1.025,3.178,2.154,7.514,3.613,10.305-25.463-.614-54.762.923-80.21,1-29.17.09-56.7,0-84.388,0-2.807,0-1.974,2.869.835,3.007,29.148,1.432,57.725.911,86.895,1s58.229,2.207,87.375.971a2.562,2.562,0,0,0,2.024-1.086c30.93.2,62.053-.032,92.94.271,62.888-.268,126.211,4.114,188.967-1.287a1.455,1.455,0,0,0,1.071-.831.812.812,0,0,0,1.538-.37,9.867,9.867,0,0,1,.861-3.25,1.221,1.221,0,0,0-.762-1.754" transform="translate(-8.018 -108.34)" fill="#307650"/><path d="M440.711,301.646s-11.122,42.147-18.732,43.9c-2.779.641-7.419-1.576-9.833-2.67-4.932-2.237-9.672-5.1-14.464-7.624a30.448,30.448,0,0,0-6.3-2.735c-2.633-.7-5.4-.673-8.091-1.084a17.673,17.673,0,0,1-5.669-1.777,35.113,35.113,0,0,1-5.034-3.639,54.3,54.3,0,0,0-18.2-9.473c-2.3-.693-4.584-2.207-6.741-3.264q-3.184-1.56-6.362-3.13-5.389-2.66-10.767-5.343-3.619-1.8-7.231-3.621c-.39-.2-2.414-.864-2.581-1.3,0-.012-12.291-32.2.585-39.806s31.025,2.342,40.976,7.61,73.758,33.367,78.441,33.952" transform="translate(-65.691 -53.592)" fill="#a6644f"/><path d="M443.469,299.2c-16.274-6.468-32.2-13.665-48.088-21.028-15.356-7.118-30.7-14.506-46.589-20.387-1.264-.468-1.757,1.473-.568,1.979q24.185,10.269,47.977,21.345c15.372,7.121,30.777,14.314,46.63,20.316,1.4.53,2-1.682.639-2.225" transform="translate(-72.383 -53.674)" fill="#7f4133"/><path d="M453.746,396.055s-6.448,15.268-8.79,21.122-15.805,15.219-16.39,21.073,23.415,58.537,29.854,57.367,4.1-24.586,3.513-36.294.585-19.9,2.926-26.342,20.488-31.026,20.488-31.026Z" transform="translate(-89.255 -82.486)" fill="#e3916f"/><path d="M465.417,448.545c0,1.756-3.512,15.805-1.756,30.44s1.171,18.732,0,21.073a6.483,6.483,0,0,1-2.23,2.184,17.823,17.823,0,0,1-2.213,1.247c-1.827.878-4.29-.059-5.889-1.048-4.156-2.57-6.521-7.628-8.944-11.725q-4.434-7.472-8.319-15.261c-4.677-9.413-10.121-20.278-10.455-31.007-.076-2.418,2.839-6.035,6.147-9.209,3.94-3.775,8.435-6.913,9.073-6.6,0,0,.585,0,.585,3.512s0,9.366,2.927,10.536,13.463-3.512,17.561-1.17,3.512,5.268,3.512,7.024" transform="translate(-88.641 -89.268)" fill="#5b74ca"/><path d="M460.443,503.983a17.775,17.775,0,0,1-2.213,1.247c-1.827.878-4.29-.059-5.889-1.048-4.156-2.569-6.715-6.143-9.138-10.241-2.956-4.982-5.869-9.9-8.451-15.09-4.677-9.413-13.55-21.865-13.883-32.6-.076-2.417,4.829-7.847,9.9-9.274,1.294,3.255,6.521,16.321,9.073,20.916,2.927,5.268,0,10.536,1.171,15.805s11.121,25.757,15.8,29.269a4.935,4.935,0,0,0,3.624,1.013" transform="translate(-87.654 -91.009)" fill="#fff"/><path d="M469.546,486.832c-2.207-1.811-5.669-2.148-6.184-5.413-.505-3.2-.378-6.568-.732-9.8-.682-6.227-1.523-12.851-3.606-18.783-.392-1.117-2.108-.469-1.921.634,1.275,7.482,3.095,14.714,3.727,22.32.224,2.694-.215,6.3,1.374,8.669,1.467,2.184,4.269,2.459,6.327,3.83a.888.888,0,0,0,1.016-1.456" transform="translate(-95.197 -94.19)" fill="#3d57a4"/><path d="M476.232,322.553l-16.775,49.241s29.386,28.563,35.23,26.2,43.509-96.765,39.93-113.142-8.992-16.657-20.051-18.8-28.339,29.767-31.383,38.329c-2.6,7.328-6.951,18.175-6.951,18.175" transform="translate(-95.691 -55.388)" fill="#a6644f"/><g transform="translate(371.475 239.011)" opacity="0.7"><g clip-path="url(#e)"><path d="M497.593,302.2c-8.32,19.962-15.62,40.395-22.56,60.872q-2.982,8.8-5.813,17.654c-.2.627.779.892.983.271,6.749-20.563,13.913-40.986,21.64-61.2,2.211-5.785,4.463-11.555,6.668-17.342.219-.579-.688-.8-.918-.253" transform="translate(-469.194 -301.884)" fill="#7f4133"/></g></g><g transform="translate(344.802 220.784)" opacity="0.7"><g clip-path="url(#f)"><path d="M496.307,287.715c-.2-1.757-1.9-2.089-3.4-2.014l1.081-2.094a13.064,13.064,0,0,0,1.527-3.07c.247-1.28-1.117-1.646-2.124-1.672a4.639,4.639,0,0,0-3.8,1.879c-.657.824-1.132,1.777-2.15,2.2-1.211.5-2.619.137-3.9.173a24.287,24.287,0,0,0-5.951,1.358,37.972,37.972,0,0,1-7.259,1.211c-4.82.418-28.683,3.651-34.312,4.162-.687.062-.706,1.131,0,1.088,5.737-.349,31.044-3.7,36.458-4.344a45.042,45.042,0,0,0,7.409-1.648,14.193,14.193,0,0,1,3.914-.714,21.862,21.862,0,0,0,3.1.028c2.477-.371,2.724-2.666,4.628-3.8a2.867,2.867,0,0,1,1.985-.454c1.028.378.393,1.335.032,2.039l-2.074,4.038a.558.558,0,0,0,.622.808c1.108-.19,3.545-.542,2.916,1.675A6.449,6.449,0,0,1,494,290.033q-1.226,1.768-2.435,3.549c-.347.51.465.963.817.478q1.353-1.861,2.688-3.733c.543-.762,1.355-1.6,1.237-2.612" transform="translate(-435.504 -278.863)" fill="#7f4133"/></g></g><path d="M497.275,291.446c-4.276,6.081-7.34,13.085-10.081,19.967-.5,1.263,1.522,1.791,2.029.559,2.789-6.773,6.369-13.06,9.695-19.565a.952.952,0,0,0-1.643-.96" transform="translate(-101.451 -60.607)" fill="#7f4133"/><path d="M435.468,268.435c-6.724.054-13.573,1.751-20,3.6a.989.989,0,0,0,.526,1.906c6.523-1.665,13.129-2.445,19.716-3.741,1-.2.757-1.769-.238-1.761" transform="translate(-86.383 -55.907)" fill="#7f4133"/><path d="M132.041,15.008c0,.2,0,.411-.02.611a15.033,15.033,0,0,1-24.039,11.414,6.835,6.835,0,0,1-2.535-3.006c-.591-1.493-1.623-2.776-2.254-4.269a11.416,11.416,0,0,1-.762-2.505,15.718,15.718,0,0,1-.07-5.081,11.014,11.014,0,0,1,.25-1.272,8.883,8.883,0,0,1,1.032-2.385,17.631,17.631,0,0,1,1.864-2.455c3.006-3.4,8.2-6.433,12.836-6.023a14.216,14.216,0,0,1,10.771,6.854,25.327,25.327,0,0,1,2.335,4.921,10.4,10.4,0,0,1,.591,3.2" transform="translate(-21.282 0)" fill="#fa8747"/><path d="M132.086,17.248c0,.2,0,.411-.02.611a3.581,3.581,0,0,0-3.818-2.495c-2.726.19-4.489,2.966-6.183,4.89-2.1,2.385-4.549,5.03-8.016,5.01-5.672-.03-10.281-5.3-11.644-10.852a11.014,11.014,0,0,1,.25-1.272,8.883,8.883,0,0,1,1.032-2.385,11.656,11.656,0,0,0,6.423,10.421c2.8,1.453,5.511,1.583,7.966-.571,1.313-1.142,2.325-2.576,3.527-3.828,2.144-2.225,5.4-4.149,8.627-3.277a4.64,4.64,0,0,1,1.262.552,10.4,10.4,0,0,1,.591,3.2" transform="translate(-21.328 -2.24)" fill="#b21924"/><path d="M156.528,20.346c-.157,4.9-2.3,12-7.175,14.258a.889.889,0,0,0,.68,1.641c5.557-2.3,8.215-10.113,8.424-15.618.048-1.245-1.889-1.531-1.929-.282" transform="translate(-30.997 -4.069)" fill="#7297c4"/><g transform="translate(119.006 22.545)" opacity="0.5"><g clip-path="url(#g)"><path d="M209.314,60.086A182.114,182.114,0,0,0,151.38,28.517c-.9-.294-1.536,1.043-.63,1.343A183.829,183.829,0,0,1,208.3,61.306c.8.641,1.812-.574,1.017-1.219" transform="translate(-150.311 -28.475)" fill="#7297c4"/></g></g><path d="M48.261,68.351c1.506,2.634,4.073,4.495,6.172,6.62a34.081,34.081,0,0,1,5.2,6.408,21.321,21.321,0,0,0,3.287,4.552,6.389,6.389,0,0,0,8.377.88c.728-.462,2.355-9.553,2.3-12.437-.024-1.215-3.372-6.479-4.336-7.241-4.716-3.727-9.558-6.5-15.589-6.871-2.081-.128-4.429.137-5.744,2.01-1.3,1.853-.708,4.265.329,6.079" transform="translate(-9.828 -12.545)" fill="#5b4040"/><path d="M108.569,75.02a62.25,62.25,0,0,1,3.87-5.277,7.753,7.753,0,0,1,5.695-2.805,2.168,2.168,0,0,1,1.8.8c.541.835.018,1.931-.528,2.762a42.855,42.855,0,0,1-6.025,7.265,9.465,9.465,0,0,1-2.813,2.055c-.944.4-6.453.895-6.49-.624-.015-.618,1.884-1.433,2.332-1.811a14.226,14.226,0,0,0,2.161-2.363" transform="translate(-21.676 -13.94)" fill="#fc9081"/><path d="M67.276,323.191s-1.738,9.65,1.275,16.323,6.1,17.192,6.193,22-.795,8.67,4.012,8.578,9.483-6.913,6.47-13.587-6.082-16.23-3.254-19.17,5.657-5.878,12.349-7.93,32.368-16.97,33.144-26.6-4.492-33.57-1.849-46.121-24.919,4.325-24.919,4.325Z" transform="translate(-13.908 -52.492)" fill="#5b4040"/><path d="M176.7,199.025s18.338,3.494,21.3,7.283,11,21.906,8.171,24.845-8.578,4.012-13.476-.7,1.441-16.28-3.79-17.669-20.482,5.636-20.482,5.636Z" transform="translate(-35.077 -41.451)" fill="#4a3333"/><path d="M144.157,159.351a61.856,61.856,0,0,1-2.746,14.149c-4.67,14.88-14.079,27.316-21.283,36.314-9.389,11.724-28.117,38.047-29.991,40.963-1.032,1.614-2.315,5.592-4.529,10.491a64.29,64.29,0,0,1-7.515,12.817c-5.511,7.164-20.382,12.435-30.532,16.694a44.832,44.832,0,0,0-8.5,4.259c-6.633,4.93-11.163,19.44-14.88,26.243S10.986,335,8.951,329.267s2.646-12.545,6.453-14.55,8.167-25.151,10.962-30.021c1.884-3.3,10.8-9.369,16.915-14.149,2.906-2.285,5.191-4.268,5.782-5.522,1.853-3.877.461-25.973,5.05-37.6S66.168,204.122,70.838,197.3s8.948-34.791,10.692-44.441-2.445-26.875-2.445-26.875a85.419,85.419,0,0,0-7.325-14.7c-1.283-2.125-2.6-4.209-3.908-6.183-.982-1.513-1.944-2.967-2.876-4.339-3.518-5.251-6.343-9.319-6.784-10.922-1.032-3.828-.09-4.8.822-7.706s-.17-8.647,1.694-11.574a17.879,17.879,0,0,1,7.566-6.874c3.807-1.994,2.6-14.479,2.6-14.479s1.844-3.878,4.75-2.976,6.784,2.755,9.78,8.467-1.623,15.421,2.255,17.265S101.821,58.235,103.745,58.2s2.976,4.75,1.132,8.628S98.454,83.3,98.514,86.182c.07,3.879,2.826,7.8,5.321,10.813.28.34.551.671.822.982,2.9,3.4,7.886,5,9.659,9.359.3.732.481,1.5.852,2.2.972,1.844,3.066,2.786,4.95,3.718s3.868,2.234,4.309,4.279a4.545,4.545,0,0,0,.31,1.233,2.707,2.707,0,0,0,.862.861c6.263,4.659,12.245,8.848,15.691,16.083,3.337,6.984,2.826,14.379,2.846,21.844.009.6.009,1.193.02,1.794" transform="translate(-1.762 -9.6)" fill="#6c4e4e"/><path d="M102,88.213c-2.869-.986-6.026-.69-9.007-.9a22.446,22.446,0,0,1-10.189-3.476c-4.45-2.72-8.964,1.148-10.3,5.707-.241.827,1.095,1.4,1.432.572a8.48,8.48,0,0,1,3.878-4.667c2.794-1.408,4.944,1.1,7.352,2.116,3.635,1.537,7.321,1.629,11.2,1.781,2.282.089,5.5.391,6.784,2.754,1.5,2.761-2.885,4.782-4.695,5.86a25.956,25.956,0,0,1-12.238,4.092c-1.214.085-.432,1,.795.937,6-.31,11.471-1.42,16.249-5.121,1.648-1.277,3.237-3.024,2.99-5.3-.245-2.25-2.282-3.671-4.258-4.351" transform="translate(-15.095 -17.272)" fill="#4a3333"/><path d="M121.2,94.993a24.883,24.883,0,0,0-1.188,9.759c.086,1.192,1.96,1.159,1.862-.036a25.191,25.191,0,0,1,.993-9.3c.317-1.07-1.321-1.465-1.667-.425" transform="translate(-24.98 -19.658)" fill="#4a3333"/><path d="M92.68,45.474A11.755,11.755,0,0,0,88.7,44.2c-1.247-.113-1.837.541-1.93,1.719A6.391,6.391,0,0,0,86.9,47.45c.123.753.144,1.519.259,2.273.066.428.1,1.557.536,1.763a.923.923,0,0,0,.848-.093,3.792,3.792,0,0,0,.669-.582,16.713,16.713,0,0,1,4.94-2.786,1.666,1.666,0,0,0,.742-.53c.591-.9-.8-1.324-1.336-1.592-.29-.144-.582-.289-.876-.43" transform="translate(-18.07 -9.203)" fill="#1a1a1a"/><path d="M87.187,72.518a2.811,2.811,0,0,0-.857.023,1.14,1.14,0,0,0-.583.091,4.2,4.2,0,0,0-2.037,1.511,1.7,1.7,0,0,0,.753,2.5c1.693.644,3.324-1.1,3.831-2.545a1.23,1.23,0,0,0-1.107-1.576" transform="translate(-17.38 -15.099)" fill="#1a1a1a"/><path d="M60.725,256.71s-28.486,18.819-34.217,20.853S13.919,273,6.285,276.028s-7.579,5.915-3.734,5.841,8.632-1.127,12.5-.241,10.685,5.564,16.434,4.492S57.157,271.2,57.157,271.2Z" transform="translate(0 -53.465)" fill="#6c4e4e"/><path d="M160.175,206.91c-2.7.735-5.385,1.469-8.083,2.2a13.424,13.424,0,0,0-3.809,1.477c-3.3,2.131-4.039,6.511-5.323,10.219-2.086,6.021-6.284,11.247-7.693,17.476a19.965,19.965,0,0,1-1.447,5.288c-.863,1.623-2.7,2.927-4.472,2.442a10.8,10.8,0,0,1-2.274,7.265,3.012,3.012,0,0,1-1.774,1.265,12.3,12.3,0,0,0-1.69.081c-.708.215-1.1.945-1.421,1.614q-4.577,9.535-9.046,19.127-.719,1.542-1.427,3.095-1.24,4.977-2.48,9.954a29.7,29.7,0,0,1,1.9-4.192c1.868-2.921,20.593-29.244,29.984-40.965,7.212-8.995,16.618-21.436,21.284-36.316a2.734,2.734,0,0,0-2.222-.034" transform="translate(-22.75 -43.047)" fill="#e5d5ca"/><path d="M109.9,276.017c-7.911,17.281-6.215,46.908-28.115,53.769-1.036.325-1.246,1.025-.205.7,25.068-7.906,22-35.748,29.907-53.579.47-1.059-1.1-1.955-1.587-.887" transform="translate(-16.849 -57.386)" fill="#4a3333"/><path d="M159.007,170.948c-4.309-2.549-8.483-5.343-12.66-8.1a44.5,44.5,0,0,1-6.181-4.548,14.8,14.8,0,0,1-2.387-2.82,6.619,6.619,0,0,1-1.017-3.206c0-.556.12-1.111.068-1.664a3.12,3.12,0,0,0-1.127-2.059c-.784-.656-1.724-.643-2.572-1.1a3.978,3.978,0,0,1-1.68-2.02,18.559,18.559,0,0,0-1.378-3.485c-1.549-2.284-3.976-1.8-6.183-2.712-1.975-.818-2.614-3.221-4.48-4.12a5.924,5.924,0,0,0-2.507-.413c-4.02-.038-8.092.261-12.041-.538a37.086,37.086,0,0,1-9.854-3.878,42.865,42.865,0,0,1-8.388-5.609c-1.281-2.13-2.6-4.21-3.9-6.185-.99-1.51-1.951-2.963-2.881-4.339,2.131.306,4.153,1.488,6.282,1.187a4.9,4.9,0,0,1,1.536-.135,3.278,3.278,0,0,1,1.46.9,11.811,11.811,0,0,0,3.6,2.374,5.01,5.01,0,0,0,4.2-.187,1.927,1.927,0,0,1,.658-.3,1.645,1.645,0,0,1,1.064.344c2.716,1.678,5.784,3.207,8.949,2.809.691-.081,1.484-.374,1.624-1.06.177-.831-.79-1.6-.585-2.422a20.765,20.765,0,0,0,7.7-.359,4.841,4.841,0,0,0-.607-2.575c.467-.221,1.118.112,1.5-.241a1.041,1.041,0,0,0,.24-.534c.149-.762,0-1.481.082-2.233.1-.829.689-.686,1.166-1.34.276.341.552.672.817.984,2.9,3.4,7.886,5,9.661,9.354.3.735.481,1.51.85,2.2.978,1.847,3.709,2.787,5.593,3.722s3.564,1.959,4.008,4.008c.085.412-.227,1.129-.029,1.5a2.747,2.747,0,0,0,.864.868c6.263,4.659,12.752,8.437,16.2,15.669,3.336,6.994,2.31,14.785,2.339,22.256" transform="translate(-16.628 -22.989)" fill="#e5d5ca"/><path d="M97.96,396.01a38.039,38.039,0,0,1-13.9,15.938.853.853,0,0,0,.888,1.455,32.04,32.04,0,0,0,14.409-16.835c.3-.8-1.038-1.336-1.4-.558" transform="translate(-17.425 -82.398)" fill="#7297c4"/><path d="M41.915,73.936c-2.33-2.433-5.944-6.73-2.394-9.81.861-.747-.416-1.955-1.272-1.224-4.392,3.751-.611,9.214,2.39,12.36.819.858,2.095-.471,1.276-1.326" transform="translate(-7.55 -13.053)" fill="#7297c4"/><path d="M85.387,122.369s32.735,9.264,38.587-6.862c0,0,5.206.234,7.185,3.081s-7.468,11.683-20.906,12.9-21.9-4.307-21.9-4.307-4.538-2.845-2.964-4.815" transform="translate(-17.714 -24.057)" fill="#ed4450"/><path d="M142.807,161.821s13.735,14.16,20.538,17.876,19.41,9.243,22.386,13.993c2.587,4.129-.352,12.995-1.313,17.232-.834,3.678-1.811,7.336-3,10.916-.9,2.715-2.442,6.767-4.706,8.559-1.125.891-2.755.561-4.128.144a10.835,10.835,0,0,1-3.948-1.863c-2.095-1.771-2.688-4.873-2.057-7.543,1.321-5.59,11.767-12.33,10.2-18.137-1.035-3.826-11.683-7.468-14.53-5.49s-24.9,5.287-35.677-5.083,16.239-30.6,16.239-30.6" transform="translate(-25.831 -33.702)" fill="#6c4e4e"/><path d="M165.879,205.407a.347.347,0,0,0-.023-.279c-.128-.241-.467-.247-.737-.21a32.292,32.292,0,0,0-4.679,1.253,34.318,34.318,0,0,1-8.536,1.389,37.364,37.364,0,0,1-8.405-.983c-5.967-1.157-11.84-2.471-17.1-5.533-.918-.534-1.253.155-.436.744a41.15,41.15,0,0,0,10.09,5.206,55.369,55.369,0,0,0,12.747,2.944c4.7.522,9.5-1.385,13.866-2.926a21.591,21.591,0,0,0,2.679-1.084,1.059,1.059,0,0,0,.53-.522" transform="translate(-26.139 -41.831)" fill="#4a3333"/></g></g></g></svg>