<svg xmlns="http://www.w3.org/2000/svg" xmlns:xlink="http://www.w3.org/1999/xlink" width="491" height="478" viewBox="0 0 491 478"><defs><clipPath id="a"><rect width="34.651" height="34.652" fill="none"/></clipPath><clipPath id="b"><rect width="28.971" height="28.971" fill="none"/></clipPath><filter id="d" x="70" y="307.723" width="350.973" height="75.052" filterUnits="userSpaceOnUse"><feOffset dy="3" input="SourceAlpha"/><feGaussianBlur stdDeviation="3" result="e"/><feFlood flood-color="#b1b1b1" flood-opacity="0.102"/><feComposite operator="in" in2="e"/><feComposite in="SourceGraphic"/></filter><filter id="f" x="70" y="376.185" width="350.973" height="75.052" filterUnits="userSpaceOnUse"><feOffset dy="3" input="SourceAlpha"/><feGaussianBlur stdDeviation="3" result="g"/><feFlood flood-color="#b1b1b1" flood-opacity="0.102"/><feComposite operator="in" in2="g"/><feComposite in="SourceGraphic"/></filter></defs><g transform="translate(-1049 -1639)"><rect width="491" height="478" transform="translate(1049 1639)" fill="#13ac90"/><g transform="translate(-8 219)"><path d="M133.461,116.733c-.343.034-.685.085-1.011.136a18.052,18.052,0,0,0-3.6.953,21.87,21.87,0,0,0-2.228,1,20.911,20.911,0,0,0-2.057,1.277c-.325.221-.651.477-.977.732a11.471,11.471,0,0,0-1.439,1.293c-.223.222-.446.459-.668.7a18.166,18.166,0,0,0-2.776,4.033c-.172.324-.326.647-.48.97a18.545,18.545,0,0,0-1.594,7.556v223.74a18.711,18.711,0,0,0,1.149,6.45,19,19,0,0,0,2.074,4.033,20.424,20.424,0,0,0,1.68,2.127c.206.221.429.443.634.647a9.954,9.954,0,0,0,1.337,1.208c.326.272.651.528.994.766a20.291,20.291,0,0,0,3.239,1.871h.017a18.779,18.779,0,0,0,4.884,1.43,16.847,16.847,0,0,0,2.794.222H430.626a18.029,18.029,0,0,0,18.1-17.972V221.021l.086-.494a.231.231,0,0,0-.086-.1V134.6a17.589,17.589,0,0,0-1.936-8.083,18.09,18.09,0,0,0-16.161-9.888H135.432a18.846,18.846,0,0,0-1.971.1" transform="translate(1019.77 1342.369)" fill="#d8e6e0"/><path d="M322.087,116.637h17.985l-21.184,10.8-3.683,1.874-45.889,23.4-7.3,3.725-31.643,16.134-3.66,1.862-36.845,18.784-3.67,1.874L157.6,209.668l-3.717,1.9L118.52,229.6a3.941,3.941,0,0,1-1.876.446V221.38l34.429-17.551,3.671-1.874,45.969-23.435,3.671-1.874L258.419,149.1l7.3-3.725Z" transform="translate(1019.763 1342.365)" fill="#fff"/><path d="M417.629,116.637h9.125l14.119,28.737,3.6,7.336,27.052,55.028,1.8,3.679L493.413,252.3l1.8,3.656,2.152,4.376,15.5,31.536,4.1,8.341,15.833,32.21,2.382,4.845,3.844,7.838c.046.092.092.194.138.3l7.8,15.859,1.806,3.679,5.489,11.164a3.963,3.963,0,0,1,.414,1.782h-8.676L533.123,351.7l-3.705-7.553-20.793-42.311c-.058-.1-.1-.206-.149-.309l-16.455-33.49-3.625-7.359-8.975-18.27-1.8-3.656L451.172,184.9l-1.807-3.656-12.186-24.806-3.6-7.336Z" transform="translate(844.605 1342.365)" fill="#fff"/><path d="M749.92,431.672v8.152c-23.377-.936-42.263,2.485-57.311,7.812q-2.777.97-5.347,2.042c-27.387,11.147-40.618,28.336-44.269,33.781-.7,1.038-1.062,1.651-1.1,1.719a4.1,4.1,0,0,1-5.553,1.6,4.166,4.166,0,0,1-1.834-2.008,4.058,4.058,0,0,1,.188-3.523,53.62,53.62,0,0,1,4.2-6.126A101.942,101.942,0,0,1,665.684,451.4c.309-.187.617-.375.926-.579,1.971-1.191,4.1-2.4,6.358-3.591,11.4-6.007,26.547-11.572,45.9-14.159,2.64-.357,5.365-.663,8.175-.9a185.453,185.453,0,0,1,22.879-.494" transform="translate(718.575 1159.118)" fill="#fff"/><path d="M258.591,116.637h4.269l3.854,9.587,20.275,50.423,1.6,3.988a1.916,1.916,0,0,1,.15.754,2.01,2.01,0,0,1-1.289,1.885,2.058,2.058,0,0,1-2.67-1.131l-1.462-3.622-19.573-48.687-1.53-3.8-3.475-8.638a1.956,1.956,0,0,1-.15-.754" transform="translate(937.157 1342.365)" fill="#fff"/><path d="M183.994,137.5a2.318,2.318,0,0,1,.115.24,2.013,2.013,0,0,1,.138.731,2.048,2.048,0,0,1-1.081,1.794l-2.025,1.085-46.269,24.863-3.636,1.954-13.613,7.313a2.011,2.011,0,0,1-.978.252v-4.365l13-6.981,3.636-1.954L179.61,137.55l1.611-.868a2.047,2.047,0,0,1,2.773.823" transform="translate(1019.762 1330.845)" fill="#fff"/><path d="M724.375,456.979a2.023,2.023,0,0,1-.165.8l-34.352,79.687a2.058,2.058,0,0,1-2.694,1.071,2.032,2.032,0,0,1-1.079-2.675l34.352-79.686a2.054,2.054,0,0,1,3.938.8" transform="translate(688.474 1145.491)" fill="#fff"/><path d="M733.994,550.7l.1.085,25.314,19.3,28.759,21.9,3.53,2.688,14.362,10.943.017.017v5.14l-3.479-2.655-13.625-10.381-3.925-2.978-28.381-21.63-24.234-18.482-.926-.715a2.008,2.008,0,0,1-.394-2.842,2.065,2.065,0,0,1,2.879-.391" transform="translate(662.416 1090.006)" fill="#fff"/><path d="M651.451,372.057a2.035,2.035,0,0,1-1.093,1.8l-59.877,31.425a2.059,2.059,0,0,1-2.772-.849,2.029,2.029,0,0,1,.855-2.754l59.877-31.425a2.058,2.058,0,0,1,2.772.849,2.015,2.015,0,0,1,.238.95" transform="translate(745.766 1194.909)" fill="#fff"/><path d="M614.5,242.955a2.035,2.035,0,0,1-1.067,1.789l-75.22,40.907a2.059,2.059,0,0,1-2.785-.808,2.03,2.03,0,0,1,.814-2.766l75.22-40.907a2.059,2.059,0,0,1,2.785.809,2.009,2.009,0,0,1,.253.977" transform="translate(776.196 1270.04)" fill="#fff"/><path d="M616.186,194.466a2.054,2.054,0,0,1-3.96.751l-24.612-61.7a2.034,2.034,0,0,1,1.153-2.644,2.057,2.057,0,0,1,2.663,1.143l24.612,61.7a2.026,2.026,0,0,1,.144.75" transform="translate(745.766 1334.164)" fill="#fff"/><path d="M704.625,116.637h4.131a1.2,1.2,0,0,1-.023.286l-3.786,26.2h-.012l-.587,4.056-4.419,30.565-.587,4.056-6.237,43.076-5.65,39.1h-.011l-.955,6.639a2.055,2.055,0,0,1-3.659.948l-2.658-3.416-19.607-25.229-1.059-1.359a2.029,2.029,0,0,1,.38-2.857,1.6,1.6,0,0,1,.3-.183,2.049,2.049,0,0,1,2.578.548l1.5,1.92,18.859,24.269,5.351-36.975.724-5,6.087-42.048.587-4.068,4.418-30.565.587-4.045Z" transform="translate(704.091 1342.365)" fill="#fff"/><path d="M121.482,131.448l11.792,28.08,1.594,3.8,19.864,47.26,1.645,3.914.051.153c.085.2.446,1.344,1.011,3.148.051.153.1.324.154.494,1.148,3.727,2.914,9.836,4.336,16.439a95.8,95.8,0,0,1,2.348,16.389c.017.561.034,1.106.034,1.651,0,1.157-.052,2.28-.154,3.318-.034.255-.086.528-.12.766-1.2,6.16-9.2,11.3-18.3,15.231q-1.928.817-3.908,1.583a179.626,179.626,0,0,1-24.765,7.267,1.851,1.851,0,0,1-.428.051v-4.135a164.431,164.431,0,0,0,25.776-7.829,1.489,1.489,0,0,1,.378-.153c9.358-3.9,16.813-8.526,17.276-13.189.583-5.684-.737-13.836-2.417-21.29-1.268-5.582-2.742-10.756-3.77-14.21-.7-2.314-1.2-3.846-1.319-4.186l-.292-.715-1.2-2.825-19.829-47.192-1.594-3.778-10.934-26a18.206,18.206,0,0,1,2.776-4.033" transform="translate(1019.77 1333.746)" fill="#fff"/><path d="M369.531,394.025a2.033,2.033,0,0,1-1.114,1.813c-45.488,23.234-76.282,23.567-94.145,1.02-4.608-5.817-10.209-8.939-16.644-9.281-16.425-.872-33.426,16.217-33.6,16.391a2.064,2.064,0,0,1-2.9.036,2.029,2.029,0,0,1-.037-2.88c.745-.759,18.45-18.577,36.741-17.615,7.672.4,14.288,4.047,19.663,10.83,16.454,20.769,45.58,20.074,89.043-2.124a2.059,2.059,0,0,1,2.763.88,2.024,2.024,0,0,1,.227.93" transform="translate(959.316 1187.082)" fill="#fff"/><path d="M416.087,326.022a2.036,2.036,0,0,1-1.25,1.876,2.058,2.058,0,0,1-2.691-1.079l-36.428-85.211a2.031,2.031,0,0,1,1.087-2.671,2.057,2.057,0,0,1,2.691,1.079l36.429,85.211a2.017,2.017,0,0,1,.163.8" transform="translate(869.09 1271.288)" fill="#fff"/><path d="M188.32,289.417l1.553,3.622L205.638,329.9l.334.777a2.158,2.158,0,0,1,.161.8,2.091,2.091,0,0,1-.3,1.062l-.921,1.508L182.9,370.017l-2.29,3.748L154.4,416.59l-.391.651a1.964,1.964,0,0,1-1.093.868l-2.3.777-33.3,11.289a1.944,1.944,0,0,1-.667.115v-4.182l33.312-11.289.932-.32,2.509-4.1,25.3-41.351,22.254-36.381.829-1.348-1.243-2.9-14.337-33.5-1.668-3.908a2.043,2.043,0,0,1,1.093-2.674,2.069,2.069,0,0,1,2.693,1.086" transform="translate(1019.763 1242.541)" fill="#fff"/><path d="M433.6,400.493a20.329,20.329,0,0,0-3.77,1.618,19.985,19.985,0,0,0-10.4,16.258v.02c-.017.4-.034.808-.034,1.233a9.193,9.193,0,0,0,.034.971,14.626,14.626,0,0,0,.189,1.941v.02a20.089,20.089,0,0,0,14.448,16.318h.017a19.556,19.556,0,0,0,5.468.748,20.054,20.054,0,0,0,20.154-20,19.365,19.365,0,0,0-.308-3.478,17.5,17.5,0,0,0-.446-1.941,14.531,14.531,0,0,0-.686-1.982v-.02a20.219,20.219,0,0,0-18.715-12.6,19.952,19.952,0,0,0-5.948.889m20.789,13.042v.02a14.024,14.024,0,0,1,.668,1.982v.02a14.759,14.759,0,0,1,.394,1.941,14.541,14.541,0,0,1,.155,2.123,16.069,16.069,0,0,1-31.775,3.256v-.021a14.7,14.7,0,0,1-.274-1.941c-.034-.425-.051-.849-.051-1.294,0-.3,0-.586.017-.87v-.02a15.943,15.943,0,0,1,7.918-12.861,15.4,15.4,0,0,1,3.77-1.6h.018a16.123,16.123,0,0,1,19.161,9.261" transform="translate(843.58 1177.693)" fill="#fff"/><path d="M716.18,206.693a2.025,2.025,0,0,1-1.063,1.779l-.943.505h-.017l-.754.425v.02a19.866,19.866,0,0,0,11.448,7.866l.12-.809.463-3.256a15.763,15.763,0,0,1-9.512-7.5,2,2,0,0,1,.257.971m0,0a2.025,2.025,0,0,1-1.063,1.779l-.943.505h-.017l-.754.425v.02a19.866,19.866,0,0,0,11.448,7.866l.12-.809.463-3.256a15.763,15.763,0,0,1-9.512-7.5,2,2,0,0,1,.257.971m0,0a2.025,2.025,0,0,1-1.063,1.779l-.943.505-.771.425v.02a19.866,19.866,0,0,0,11.448,7.866l.12-.809.463-3.256a15.763,15.763,0,0,1-9.512-7.5,2,2,0,0,1,.257.971m-6.29-8.452a19.334,19.334,0,0,0,1.543,7.583v.02a18.681,18.681,0,0,0,.891,1.82c.205.364.411.728.634,1.071.137.223.291.445.446.668v.02a19.866,19.866,0,0,0,11.448,7.866c.24.061.48.122.72.162a10.753,10.753,0,0,0,1.165.2,15.592,15.592,0,0,0,2.177.2,4.854,4.854,0,0,0,.771.04,19.644,19.644,0,0,0,4.833-38.722H734.5a20.467,20.467,0,0,0-4.062-.566h-.754a19.728,19.728,0,0,0-19.8,19.634m35.477,0a15.644,15.644,0,0,1-15.682,15.57H729.5a16.672,16.672,0,0,1-4.061-.587,15.763,15.763,0,0,1-9.512-7.5v-.02a15.407,15.407,0,0,1-1.92-7.461,15.644,15.644,0,0,1,15.682-15.569h.171a14.944,14.944,0,0,1,4.061.566,15.621,15.621,0,0,1,11.449,15m-29.187,8.452a2.025,2.025,0,0,1-1.063,1.779l-.943.505h-.017l-.754.425v.02a19.866,19.866,0,0,0,11.448,7.866l.12-.809.463-3.256a15.763,15.763,0,0,1-9.512-7.5,2,2,0,0,1,.257.971m0,0a2.025,2.025,0,0,1-1.063,1.779l-.943.505h-.017l-.754.425v.02a19.866,19.866,0,0,0,11.448,7.866l.12-.809.463-3.256a15.763,15.763,0,0,1-9.512-7.5,2,2,0,0,1,.257.971" transform="translate(674.524 1306.302)" fill="#fff"/><path d="M449.064,268.684a2.036,2.036,0,0,1-1.2,1.856l-39.352,17.734a2.057,2.057,0,0,1-2.717-1.013,2.033,2.033,0,0,1,1.02-2.7l39.352-17.734a2.058,2.058,0,0,1,2.717,1.013,2.018,2.018,0,0,1,.183.841" transform="translate(851.6 1255.068)" fill="#fff"/><path d="M861.693,140.282a17.591,17.591,0,0,1,1.936,8.084v.9q-16.144,14.755-22.262,42.24c-.291,1.327-.566,2.688-.84,4.084-.6,3.233-1.114,6.569-1.525,10.041-.394,3.335-.686,6.654-.857,9.9v.017c-.137,2.3-.24,4.561-.274,6.79-.034,1.378-.051,2.757-.051,4.1,0,.851,0,1.685.017,2.5a228.363,228.363,0,0,0,2.913,33.73c.377,2.213.617,3.472.634,3.523a4.1,4.1,0,0,1-8.038,1.651c-.051-.255-.36-1.753-.771-4.272a225.692,225.692,0,0,1-2.9-30.905c-.1-3.37-.12-6.91-.034-10.534.137-5.616.5-11.487,1.2-17.444,3.462-29.2,13.968-50.953,30.849-64.415" transform="translate(604.865 1328.605)" fill="#fff"/><path d="M792.271,509.026l4.593-16.9v15.657l-.514,1.923L782.485,560.83l-.36,1.31a2.044,2.044,0,0,1-1.32,1.4l-1.046.357-25.793,8.7-32.238,10.875-4.147,1.4a2.052,2.052,0,0,1-2.6-1.276A2.03,2.03,0,0,1,716.262,581l3.668-1.242,31.758-10.7,24.148-8.135,2.605-.885.514-1.889Z" transform="translate(671.63 1123.85)" fill="#fff"/><path d="M853.845,338.844a29.8,29.8,0,0,1,7.232,4.119,30.465,30.465,0,0,1,5.45,5.445.225.225,0,0,1,.086.1l-.086.493v6.91c-.154-.272-.292-.545-.445-.817a4,4,0,0,0-.223-.357.129.129,0,0,0-.034-.085,28.164,28.164,0,0,0-7.232-8.441,26.608,26.608,0,0,0-12.134-5.173,31.386,31.386,0,0,0-5.741-.375,26.416,26.416,0,0,0-3.685.323,2.035,2.035,0,1,1-.84-3.982,24.98,24.98,0,0,1,4.576-.442,33.38,33.38,0,0,1,13.077,2.28" transform="translate(601.967 1214.386)" fill="#fff"/><path d="M843.9,262.815h26.873V266.9H843.9a2.042,2.042,0,0,1,0-4.084" transform="translate(597.726 1257.297)" fill="#fff"/><path d="M179.922,461.622l.265,1.611,7.663,47.11,1,6.182v.011l4.165,25.594.725,4.456,3.475,21.344.656,4.056.875,5.347a2.935,2.935,0,0,1,.023.32h-4.142l-1.116-6.912-8.446-51.909-.656-4.068-8.124-49.944-.414-2.548a2.051,2.051,0,0,1,4.051-.651" transform="translate(985.309 1142.595)" fill="#fff"/><path d="M608.4,543.885a4.079,4.079,0,0,1-2.867,3.884c-.465.146-46.784,14.143-64.627-29.266s19.5-62.836,19.876-63.028a4.117,4.117,0,0,1,5.516,1.788,4.061,4.061,0,0,1-1.8,5.479c-1.258.645-30.934,16.331-15.993,52.681,6.3,15.314,17.319,24.1,32.763,26.123A56.61,56.61,0,0,0,603.055,540a4.108,4.108,0,0,1,5.15,2.655,4.021,4.021,0,0,1,.193,1.231" transform="translate(775.673 1145.437)" fill="#fff"/><path d="M354.671,531.078a2.028,2.028,0,0,1-.751,1.576,2.062,2.062,0,0,1-2.888-.284l-34.66-41.983L211.62,562.267a2.06,2.06,0,0,1-2.854-.518,2.028,2.028,0,0,1,.521-2.834l106.307-72.947a2.062,2.062,0,0,1,2.753.385l35.857,43.434a2.022,2.022,0,0,1,.465,1.29" transform="translate(966.364 1127.643)" fill="#fff"/><path d="M298.192,520.493a2.03,2.03,0,0,1-.814,1.626,2.062,2.062,0,0,1-2.874-.4L264.72,482.647a2.029,2.029,0,0,1,.4-2.854,2.062,2.062,0,0,1,2.875.4l29.784,39.076a2.02,2.02,0,0,1,.416,1.228" transform="translate(933.832 1131.267)" fill="#fff"/><path d="M242.74,643.856a24.325,24.325,0,0,1-3.085,12.28c-6.054,10.593-18.711,12.664-19.247,12.747a2.038,2.038,0,1,1-.635-4.025c.127-.021,11.281-1.889,16.33-10.762,3.667-6.443,3.346-15.073-.953-25.649a2.029,2.029,0,0,1,1.134-2.652,2.057,2.057,0,0,1,2.671,1.126,45.5,45.5,0,0,1,3.785,16.936" transform="translate(960.755 1046.149)" fill="#fff"/><path d="M293.8,605.848l.322,1.348,4.557,19.413.944,3.988,2.393,10.192.932,4,3.866,16.419a1.561,1.561,0,0,1,.058.457h-4.166l-4.177-17.779c-.012-.046-.012-.08-.023-.114L290.5,609.688l-.691-2.914a2.015,2.015,0,0,1,.886-2.171,2.145,2.145,0,0,1,.645-.274,2.049,2.049,0,0,1,2.462,1.52" transform="translate(919.023 1058.584)" fill="#fff"/><path d="M359.474,545.311c0,4.071-5.28,7.346-10.413,10.53-4.362,2.707-9.784,6.077-9.137,8.522,2.39,8.946-23.816,18.308-31.9,20.961a2.039,2.039,0,1,1-1.288-3.869c16.414-5.389,30.052-12.893,29.226-16.048-1.428-5.358,4.853-9.254,10.929-13.023,3.886-2.41,9.215-5.714,8.343-7.591-3.142-6.831-8.443-15.493-8.5-15.58a2.033,2.033,0,0,1,.686-2.8,2.06,2.06,0,0,1,2.819.68c.222.362,5.479,8.953,8.724,16.007a5.25,5.25,0,0,1,.513,2.21" transform="translate(909.96 1104.07)" fill="#fff"/><path d="M623.1,664.385l.909,5.233,4.453,25.7a1.741,1.741,0,0,1,.035.343h-4.131l-4.718-27.171-.6-3.416a2.054,2.054,0,0,1,4.05-.686" transform="translate(727.407 1024.591)" fill="#fff"/><path d="M522.924,650.412a2.044,2.044,0,0,1,.38,1.177,2.02,2.02,0,0,1-.874,1.668l-2.934,2.068L489.876,676.11a1.636,1.636,0,0,1-.288.206l-16.661,11.7h-5.616a2.03,2.03,0,0,1,.875-1.657l15.73-11.049,4.2-2.948,27.893-19.584,4.062-2.845a2.056,2.056,0,0,1,2.854.48" transform="translate(815.692 1032.233)" fill="#fff"/><path d="M417.581,610.834a2.039,2.039,0,0,1-1.382,1.926L313.365,648.012a2.056,2.056,0,0,1-2.609-1.261,2.033,2.033,0,0,1,1.27-2.591l102.833-35.252a2.056,2.056,0,0,1,2.609,1.261,2.026,2.026,0,0,1,.112.665" transform="translate(906.865 1055.954)" fill="#fff"/><path d="M493.971,666.913a1.961,1.961,0,0,1-.027.325,2.046,2.046,0,0,1-2.343,1.689c-.4-.062-9.794-1.62-15.073-9.622-3.675-5.567-4.4-12.748-2.149-21.344a2.051,2.051,0,0,1,3.971,1.024c-1.938,7.417-1.406,13.491,1.587,18.052,4.258,6.491,12.23,7.852,12.31,7.865a2.047,2.047,0,0,1,1.724,2.01" transform="translate(812.322 1039.869)" fill="#fff"/><path d="M397.863,666.118l.495,1.84,7.606,28.291a2.065,2.065,0,0,1,.069.525h-4.165l-7.4-27.491-.575-2.114a2.043,2.043,0,0,1,1.128-2.377,2.792,2.792,0,0,1,.334-.115,2.043,2.043,0,0,1,2.508,1.44" transform="translate(858.456 1023.475)" fill="#fff"/><path d="M429.771,580.817a1.355,1.355,0,0,1-.451-2.632L474.9,562.091a7.316,7.316,0,0,0,4.55-9.194l-1.5-4.64a42.272,42.272,0,0,1-.309-24.416,1.354,1.354,0,0,1,2.6.767,39.579,39.579,0,0,0,.3,22.845l1.49,4.612a10.012,10.012,0,0,1-6.225,12.58L430.222,580.74a1.376,1.376,0,0,1-.451.077" transform="translate(838.327 1105.959)" fill="#ff5c5c"/><path d="M623.431,223.645a2.709,2.709,0,0,1-2.517-1.709l-1.5-3.774a2.709,2.709,0,1,1,5.033-2l1.5,3.775a2.711,2.711,0,0,1-2.516,3.711" transform="translate(727.29 1285.443)" fill="#ff5c5c"/><path d="M548.942,352.113a2.709,2.709,0,0,1-2.275-4.174,53.618,53.618,0,0,1,5.164-6.755,2.708,2.708,0,0,1,4.033,3.615,48.089,48.089,0,0,0-4.641,6.07,2.707,2.707,0,0,1-2.28,1.243m10.6-12.138A2.708,2.708,0,0,1,557.4,335.6a5.957,5.957,0,0,0,1.038-5.257,2.709,2.709,0,1,1,5.221-1.444,11.374,11.374,0,0,1-1.983,10.025,2.7,2.7,0,0,1-2.14,1.046m-1.781-15.011A2.709,2.709,0,0,1,555.3,323.4l-3.407-7.325a2.709,2.709,0,0,1,4.912-2.285l3.407,7.325a2.708,2.708,0,0,1-2.454,3.851m-6.815-14.65a2.708,2.708,0,0,1-2.458-1.566l-3.407-7.325a2.708,2.708,0,0,1,4.911-2.285l3.408,7.325a2.708,2.708,0,0,1-2.454,3.851m-6.815-14.65a2.709,2.709,0,0,1-2.458-1.566L541,292.654a11.316,11.316,0,0,1-1.067-4.808,11.432,11.432,0,0,1,.543-3.481,2.709,2.709,0,1,1,5.16,1.65,6.01,6.01,0,0,0-.286,1.83,5.929,5.929,0,0,0,.561,2.523l.673,1.446a2.709,2.709,0,0,1-2.454,3.851m4.328-13.435a2.708,2.708,0,0,1-1.264-5.1l7.148-3.765a2.709,2.709,0,0,1,2.525,4.793l-7.148,3.765a2.7,2.7,0,0,1-1.26.312m14.3-7.531a2.708,2.708,0,0,1-1.264-5.1l7.147-3.765a2.708,2.708,0,1,1,2.525,4.793l-7.147,3.765a2.7,2.7,0,0,1-1.26.312m14.3-7.532a2.708,2.708,0,0,1-1.265-5.1l2.432-1.281a5.962,5.962,0,0,0,2.541-2.569,2.708,2.708,0,1,1,4.821,2.468,11.347,11.347,0,0,1-4.837,4.893l-2.432,1.281a2.7,2.7,0,0,1-1.26.312m6.221-12.81a2.71,2.71,0,0,1-2.517-1.707l-2.989-7.506a2.708,2.708,0,1,1,5.032-2l2.989,7.506a2.711,2.711,0,0,1-2.515,3.712" transform="translate(773.432 1269.742)" fill="#ff5c5c"/><path d="M545.513,519.714a2.759,2.759,0,0,1-.767-.111,2.71,2.71,0,0,1-1.832-3.364,43.312,43.312,0,0,1,1.434-4.091,2.708,2.708,0,1,1,5.016,2.045c-.48,1.178-.9,2.382-1.255,3.577a2.709,2.709,0,0,1-2.6,1.944" transform="translate(771.76 1113.18)" fill="#ff5c5c"/><path d="M302.124,245.643a1.354,1.354,0,0,1-1.247-.824L286.66,211.445a10.1,10.1,0,0,1,4.658-12.893l113.065-58.109a10.063,10.063,0,0,1,13.947,5.228l10.859,27.271a1.354,1.354,0,0,1-2.516,1l-10.859-27.272a7.354,7.354,0,0,0-10.193-3.82L292.555,200.962a7.381,7.381,0,0,0-3.4,9.422l14.217,33.374a1.354,1.354,0,0,1-1.245,1.885" transform="translate(921.287 1329.158)" fill="#ff5c5c"/><path d="M460.793,375.53c0,8.743-15.82,27.422-15.82,27.422s-15.811-18.679-15.811-27.422a15.816,15.816,0,1,1,31.631,0" transform="translate(837.893 1200.909)" fill="#ff5c5c"/><path d="M464.1,386.024a7.375,7.375,0,1,1-7.375-7.375,7.375,7.375,0,0,1,7.375,7.375" transform="translate(826.143 1189.888)" fill="#fff"/><g transform="translate(1312.03 1571.06)" opacity="0.5"><g clip-path="url(#a)"><path d="M571.394,402.011a17.326,17.326,0,1,1-17.326-17.326,17.326,17.326,0,0,1,17.326,17.326" transform="translate(-536.742 -384.685)" fill="#ff5c5c"/></g></g><path d="M575.387,416.189a7.141,7.141,0,1,1-7.141-7.141,7.141,7.141,0,0,1,7.141,7.141" transform="translate(761.108 1172.197)" fill="#ff5c5c"/><g transform="translate(1325.334 1525.479)" opacity="0.5"><g clip-path="url(#b)"><path d="M597.54,290.137a14.486,14.486,0,1,1-14.485-14.485,14.485,14.485,0,0,1,14.485,14.485" transform="translate(-568.569 -275.652)" fill="#ff5c5c"/></g></g><path d="M600.879,301.991a5.97,5.97,0,1,1-5.97-5.97,5.97,5.97,0,0,1,5.97,5.97" transform="translate(744.911 1237.973)" fill="#ff5c5c"/><g transform="translate(1303.28 1618.999)" opacity="0.5"><g clip-path="url(#b)"><path d="M544.784,513.841A14.486,14.486,0,1,1,530.3,499.356a14.486,14.486,0,0,1,14.486,14.485" transform="translate(-515.813 -499.356)" fill="#ff5c5c"/></g></g><path d="M548.122,525.7a5.97,5.97,0,1,1-5.97-5.97,5.97,5.97,0,0,1,5.97,5.97" transform="translate(775.613 1107.789)" fill="#ff5c5c"/></g><g transform="matrix(1, 0, 0, 1, 1049, 1639)" filter="url(#d)"><g transform="translate(79 313.72)" fill="#fff" stroke="#efefef" stroke-width="0.5"><rect width="332.973" height="57.052" rx="25" stroke="none"/><rect x="0.25" y="0.25" width="332.473" height="56.552" rx="24.75" fill="none"/></g></g><g transform="matrix(1, 0, 0, 1, 1049, 1639)" filter="url(#f)"><g transform="translate(79 382.19)" fill="#fff" stroke="#efefef" stroke-width="0.5"><rect width="332.973" height="57.052" rx="25" stroke="none"/><rect x="0.25" y="0.25" width="332.473" height="56.552" rx="24.75" fill="none"/></g></g><text transform="translate(1185.052 1986.432)" fill="#8ac4b9" font-size="14" font-family="SegoeUI, Segoe UI"><tspan x="0" y="0" xml:space="preserve">Puppy&apos;s id  has been just got scanned</tspan></text><g transform="translate(1157.561 1971.913)"><path d="M16.853,30.809A2.2,2.2,0,0,0,19.1,28.336H14.6A2.2,2.2,0,0,0,16.853,30.809Z" transform="translate(-9.398 -12.138)" fill="#13ac90"/><path d="M21.5,17.758c-.719-.947-2.133-1.5-2.133-5.745,0-4.354-1.923-6.1-3.715-6.524-.168-.042-.289-.1-.289-.275V5.078a1.139,1.139,0,1,0-2.277,0v.135c0,.173-.121.233-.289.275-1.8.425-3.715,2.17-3.715,6.524,0,4.242-1.414,4.793-2.133,5.745a.926.926,0,0,0,.742,1.484H20.763A.927.927,0,0,0,21.5,17.758Z" transform="translate(-6.761 -3.93)" fill="#13ac90"/></g><g transform="translate(1213.059 2039.857)"><text transform="translate(34.952 14)" fill="#8ac4b9" font-size="14" font-family="SegoeUI, Segoe UI"><tspan x="0" y="0">Puppy is 5 km away</tspan></text><g transform="translate(0 0.351)"><path d="M31.549,10.15a2.837,2.837,0,1,1-2.837-2.837A2.837,2.837,0,0,1,31.549,10.15Z" transform="translate(-6.96 -7.313)" fill="#13ac90"/><g transform="translate(0 0.946)"><path d="M25.127,14.648a3.939,3.939,0,0,1-.922-.112l-2.8,2.855a.114.114,0,0,0,0,.166L25.854,22.3a.767.767,0,0,1,0,1.088.771.771,0,0,1-1.088,0l-4.433-4.723a.121.121,0,0,0-.171,0l-1.082,1.1a4.759,4.759,0,0,1-3.393,1.43,4.855,4.855,0,0,1-3.464-1.472l-1.04-1.058a.121.121,0,0,0-.171,0L6.579,23.385a.771.771,0,0,1-1.088,0,.767.767,0,0,1,0-1.088l4.451-4.741a.126.126,0,0,0,0-.166L3.576,10.913a.117.117,0,0,0-.2.083V23.958a1.9,1.9,0,0,0,1.891,1.891H26.073a1.9,1.9,0,0,0,1.891-1.891V13.437A3.921,3.921,0,0,1,25.127,14.648Z" transform="translate(-3.375 -8.826)" fill="#13ac90"/><path d="M21.332,10.329a3.929,3.929,0,0,1,.485-1.891H5.4a1.845,1.845,0,0,0-1.17.414l9.274,9.44a3.24,3.24,0,0,0,4.622,0l4.758-4.841A3.911,3.911,0,0,1,21.332,10.329Z" transform="translate(-3.511 -8.438)" fill="#13ac90"/></g></g></g></g></svg>