<svg width="158" height="159" viewBox="0 0 158 159" fill="none" xmlns="http://www.w3.org/2000/svg">
<path d="M1.52261 79.3025C1.52261 36.6764 36.0938 2.09283 78.7323 2.09283C121.371 2.09283 155.942 36.6764 155.942 79.3025C155.942 121.954 121.371 156.512 78.7323 156.512C36.0935 156.512 1.52261 121.954 1.52261 79.3025ZM93.5622 48.8343C93.5622 40.6439 86.9226 34.0044 78.7323 34.0044C70.542 34.0044 63.9025 40.6439 63.9025 48.8343C63.9025 57.0246 70.542 63.6641 78.7323 63.6641C86.9226 63.6641 93.5622 57.0246 93.5622 48.8343ZM92.697 121.427C95.6286 121.427 98.0055 119.05 98.0055 116.118V108.501C98.0055 105.57 95.6286 103.193 92.697 103.193H90.3884V72.955C90.3884 70.0233 88.0116 67.6465 85.0799 67.6465H64.7677C61.836 67.6465 59.4592 70.0233 59.4592 72.955V80.5721C59.4592 83.5038 61.836 85.8806 64.7677 85.8806H67.0762V103.193H64.7677C61.836 103.193 59.4592 105.57 59.4592 108.501V116.118C59.4592 119.05 61.836 121.427 64.7677 121.427H92.697Z" stroke="#765A9D" stroke-width="3"/>
</svg>
