<svg width="128" height="118" viewBox="0 0 128 118" fill="none" xmlns="http://www.w3.org/2000/svg">
<path d="M0 24C0 10.7452 10.7452 0 24 0H104C117.255 0 128 10.7452 128 24V94C128 107.255 117.255 118 104 118H24C10.7452 118 0 107.255 0 94V24Z" fill="white"/>
<path d="M39.8885 47.452H20V99.6555H39.8885V47.452Z" fill="#160134"/>
<path d="M29.9443 34.4012C35.4363 34.4012 39.8885 30.5058 39.8885 25.7006C39.8885 20.8954 35.4363 17 29.9443 17C24.4522 17 20 20.8954 20 25.7006C20 30.5058 24.4522 34.4012 29.9443 34.4012Z" fill="#160134"/>
<path d="M77.3707 43.7711C85.2829 43.7711 92.871 46.5211 98.4657 51.4161C104.06 56.3111 107.204 62.9502 107.204 69.8728V100.325H87.315V69.8728C87.315 67.5653 86.2673 65.3522 84.4024 63.7206C82.5375 62.0889 80.0081 61.1722 77.3707 61.1722C74.7334 61.1722 72.204 62.0889 70.3391 63.7206C68.4742 65.3522 67.4265 67.5653 67.4265 69.8728V100.325H47.538V69.8728C47.538 62.9502 50.6811 56.3111 56.2758 51.4161C61.8705 46.5211 69.4586 43.7711 77.3707 43.7711Z" fill="#160134"/>
</svg>
