<svg width="128" height="118" viewBox="0 0 128 118" fill="none" xmlns="http://www.w3.org/2000/svg">
<path d="M0 24C0 10.7452 10.7452 0 24 0H104C117.255 0 128 10.7452 128 24V94C128 107.255 117.255 118 104 118H24C10.7452 118 0 107.255 0 94V24Z" fill="white"/>
<path d="M96 18H78C70.0435 18 62.4129 20.2652 56.7868 24.2972C51.1607 28.3292 48 33.7978 48 39.5V52.4H30V69.6H48V104H72V69.6H90L96 52.4H72V39.5C72 38.3596 72.6321 37.2658 73.7574 36.4594C74.8826 35.653 76.4087 35.2 78 35.2H96V18Z" fill="#160134"/>
</svg>
