<svg width="158" height="159" viewBox="0 0 158 159" fill="none" xmlns="http://www.w3.org/2000/svg">
<path d="M78.788 0.592834C35.3072 0.592834 0.0782471 35.8218 0.0782471 79.3025C0.0782471 122.783 35.3072 158.012 78.788 158.012C122.269 158.012 157.498 122.783 157.498 79.3025C157.498 35.8218 122.269 0.592834 78.788 0.592834ZM124.49 88.1891C124.49 90.2838 122.777 91.9977 120.682 91.9977H91.4831V121.196C91.4831 123.291 89.7692 125.005 87.6745 125.005H69.9014C67.8067 125.005 66.0928 123.291 66.0928 121.196V91.9977H36.8941C34.7994 91.9977 33.0855 90.2838 33.0855 88.1891V70.416C33.0855 68.3213 34.7994 66.6074 36.8941 66.6074H66.0928V37.4087C66.0928 35.314 67.8067 33.6001 69.9014 33.6001H87.6745C89.7692 33.6001 91.4831 35.314 91.4831 37.4087V66.6074H120.682C122.777 66.6074 124.49 68.3213 124.49 70.416V88.1891Z" fill="#765A9D"/>
</svg>
