<svg width="128" height="118" viewBox="0 0 128 118" fill="none" xmlns="http://www.w3.org/2000/svg">
<path d="M0 24C0 10.7452 10.7452 0 24 0H104C117.255 0 128 10.7452 128 24V94C128 107.255 117.255 118 104 118H24C10.7452 118 0 107.255 0 94V24Z" fill="white"/>
<path d="M82.8167 23.7167H43.1834C32.2389 23.7167 23.3667 31.6151 23.3667 41.3583V76.6417C23.3667 86.3849 32.2389 94.2833 43.1834 94.2833H82.8167C93.7611 94.2833 102.633 86.3849 102.633 76.6417V41.3583C102.633 31.6151 93.7611 23.7167 82.8167 23.7167Z" stroke="#160134" stroke-width="13.7769" stroke-linecap="round" stroke-linejoin="round"/>
<path d="M78.8533 56.7772C79.3424 59.7137 78.779 62.7126 77.2433 65.3476C75.7075 67.9826 73.2775 70.1193 70.299 71.4539C67.3204 72.7886 63.945 73.2531 60.6528 72.7815C57.3607 72.3099 54.3193 70.9261 51.9615 68.8271C49.6036 66.728 48.0492 64.0205 47.5195 61.0896C46.9897 58.1588 47.5115 55.1538 49.0107 52.5022C50.5099 49.8506 52.9101 47.6873 55.8699 46.3201C58.8297 44.9529 62.1984 44.4513 65.4969 44.8867C68.8615 45.3309 71.9763 46.7266 74.3815 48.8678C76.7866 51.0089 78.3544 53.7819 78.8533 56.7772Z" stroke="black" stroke-width="13.7769" stroke-linecap="round" stroke-linejoin="round"/>
<path d="M84.7982 39.5942H84.8394" stroke="black" stroke-width="13.7769" stroke-linecap="round" stroke-linejoin="round"/>
</svg>
