<svg width="138" height="104" viewBox="0 0 138 104" fill="none" xmlns="http://www.w3.org/2000/svg">
<path d="M134.451 34.7333C135.495 33.9038 137.047 34.6798 137.047 35.9911V90.7161C137.047 97.8076 131.294 103.561 124.202 103.561H12.8789C5.78742 103.561 0.0339355 97.8076 0.0339355 90.7161V36.0178C0.0339355 34.6798 1.55928 33.9305 2.62969 34.7601C8.62402 39.4164 16.5719 45.3304 43.8675 65.1599C49.5139 69.281 59.0406 77.9514 68.5405 77.8978C78.094 77.9781 87.808 69.1204 93.2404 65.1599C120.536 45.3304 128.457 39.3896 134.451 34.7333ZM68.5405 69.3077C74.7489 69.4148 83.6869 61.4937 88.1827 58.2289C123.694 32.4587 126.396 30.2108 134.585 23.7883C136.137 22.5841 137.047 20.7109 137.047 18.7306V13.6461C137.047 6.55463 131.294 0.801147 124.202 0.801147H12.8789C5.78742 0.801147 0.0339355 6.55463 0.0339355 13.6461V18.7306C0.0339355 20.7109 0.943789 22.5573 2.49589 23.7883C10.6846 30.1841 13.3874 32.4587 48.8984 58.2289C53.3942 61.4937 62.3321 69.4148 68.5405 69.3077Z" fill="#765A9D"/>
</svg>
