<svg width="128" height="118" viewBox="0 0 128 118" fill="none" xmlns="http://www.w3.org/2000/svg">
<path d="M0 24C0 10.7452 10.7452 0 24 0H104C117.255 0 128 10.7452 128 24V94C128 107.255 117.255 118 104 118H24C10.7452 118 0 107.255 0 94V24Z" fill="white"/>
<path d="M108.777 27.0359C104.869 29.447 100.543 31.2911 95.9634 32.4972C93.5058 30.0254 90.2395 28.2734 86.6064 27.4782C82.9732 26.6831 79.1486 26.8831 75.6497 28.0512C72.1507 29.2194 69.1464 31.2993 67.0429 34.0096C64.9394 36.72 63.8383 39.93 63.8885 43.2056V46.7751C56.7171 46.9377 49.611 45.5465 43.2031 42.7253C36.7952 39.9041 31.2844 35.7405 27.1616 30.6054C27.1616 30.6054 10.8384 62.7306 47.5654 77.0084C39.1612 81.9984 29.1495 84.5005 19 84.1474C55.727 101.995 100.616 84.1474 100.616 43.0985C100.612 42.1042 100.502 41.1124 100.289 40.1358C104.454 36.5431 107.393 32.0071 108.777 27.0359Z" fill="#160134"/>
</svg>
