<svg width="287" height="253" viewBox="0 0 287 253" fill="none" xmlns="http://www.w3.org/2000/svg">
<g filter="url(#filter0_d_402_3)">
<rect x="4" width="279" height="245" rx="60" fill="white"/>
<path d="M143.333 84.1677C134.92 84.1677 126.695 86.4055 119.7 90.598C112.705 94.7906 107.253 100.75 104.033 107.722C100.814 114.694 99.9716 122.365 101.613 129.767C103.254 137.168 107.305 143.967 113.254 149.303C119.203 154.639 126.783 158.273 135.034 159.745C143.285 161.217 151.838 160.462 159.611 157.574C167.383 154.686 174.027 149.796 178.701 143.521C183.375 137.246 185.87 129.869 185.87 122.323C185.858 112.207 181.373 102.508 173.398 95.3548C165.423 88.2015 154.611 84.1782 143.333 84.1677ZM143.333 147.76C137.724 147.76 132.241 146.268 127.578 143.473C122.914 140.678 119.28 136.705 117.133 132.057C114.987 127.409 114.425 122.295 115.519 117.361C116.614 112.426 119.314 107.894 123.28 104.336C127.246 100.779 132.299 98.3564 137.8 97.3749C143.301 96.3934 149.003 96.8971 154.185 98.8224C159.367 100.748 163.795 104.008 166.911 108.191C170.027 112.374 171.691 117.292 171.691 122.323C171.691 129.069 168.703 135.539 163.385 140.31C158.067 145.08 150.854 147.76 143.333 147.76ZM185.87 39.6532H100.796C87.6381 39.6658 75.0235 44.3598 65.7198 52.7051C56.416 61.0505 51.183 72.3656 51.1689 84.1677V160.478C51.183 172.28 56.416 183.596 65.7198 191.941C75.0235 200.286 87.6381 204.98 100.796 204.993H185.87C199.027 204.98 211.642 200.286 220.945 191.941C230.249 183.596 235.482 172.28 235.496 160.478V84.1677C235.482 72.3656 230.249 61.0505 220.945 52.7051C211.642 44.3598 199.027 39.6658 185.87 39.6532ZM221.317 160.478C221.317 168.911 217.583 176.999 210.935 182.962C204.287 188.924 195.271 192.274 185.87 192.274H100.796C91.3943 192.274 82.378 188.924 75.7303 182.962C69.0826 176.999 65.348 168.911 65.348 160.478V84.1677C65.348 75.7349 69.0826 67.6474 75.7303 61.6845C82.378 55.7216 91.3943 52.3716 100.796 52.3716H185.87C195.271 52.3716 204.287 55.7216 210.935 61.6845C217.583 67.6474 221.317 75.7349 221.317 84.1677V160.478ZM200.049 80.9881C200.049 82.8747 199.425 84.7189 198.257 86.2876C197.088 87.8562 195.427 89.0789 193.484 89.8008C191.541 90.5228 189.403 90.7117 187.34 90.3436C185.277 89.9756 183.382 89.0671 181.895 87.7331C180.408 86.399 179.395 84.6994 178.984 82.849C178.574 80.9987 178.785 79.0807 179.59 77.3378C180.395 75.5948 181.758 74.105 183.506 73.0569C185.255 72.0087 187.311 71.4493 189.414 71.4493C192.235 71.4493 194.94 72.4543 196.934 74.2431C198.928 76.032 200.049 78.4582 200.049 80.9881Z" fill="black"/>
</g>
<defs>
<filter id="filter0_d_402_3" x="0" y="0" width="287" height="253" filterUnits="userSpaceOnUse" color-interpolation-filters="sRGB">
<feFlood flood-opacity="0" result="BackgroundImageFix"/>
<feColorMatrix in="SourceAlpha" type="matrix" values="0 0 0 0 0 0 0 0 0 0 0 0 0 0 0 0 0 0 127 0" result="hardAlpha"/>
<feOffset dy="4"/>
<feGaussianBlur stdDeviation="2"/>
<feComposite in2="hardAlpha" operator="out"/>
<feColorMatrix type="matrix" values="0 0 0 0 0 0 0 0 0 0 0 0 0 0 0 0 0 0 0.25 0"/>
<feBlend mode="normal" in2="BackgroundImageFix" result="effect1_dropShadow_402_3"/>
<feBlend mode="normal" in="SourceGraphic" in2="effect1_dropShadow_402_3" result="shape"/>
</filter>
</defs>
</svg>
