<svg xmlns="http://www.w3.org/2000/svg" xmlns:xlink="http://www.w3.org/1999/xlink" width="670" height="645" viewBox="0 0 670 645"><defs><clipPath id="a"><rect width="404.947" height="468.262" fill="none"/></clipPath><clipPath id="b"><rect width="404.948" height="468.262" transform="translate(0 2)" fill="none"/></clipPath><clipPath id="c"><rect width="8.193" height="7.283" fill="none"/></clipPath></defs><g transform="translate(-979 -224)"><rect width="670" height="645" transform="translate(979 224)" fill="#d9cbec"/><g transform="translate(17.884 -240)"><path d="M404.028,2084.775c0,27.545-91.112,35.78-202.681,35.78S0,2112.32,0,2084.775c0-33.208,90.445-49.874,202.014-49.874s202.014,6.314,202.014,49.874" transform="translate(1094.116 -1076.423)" fill="#fff" opacity="0.31"/><g transform="translate(1094.116 543.869)"><g clip-path="url(#a)"><g clip-path="url(#b)"><path d="M1097.285,1323.275s5.55,19.475,10.689,26.1a36.263,36.263,0,0,1,6.525,12.615s-10.436.579-7.777,4.711,13.581,2.948,17.108-.2,1.73-35-6.435-44.06-20.109.83-20.109.83" transform="translate(-754.74 -906.982)" fill="#bc9a80"/><path d="M455.9,679.935l12.991,42.58-15.516,7.217-22.733-42.58s19.486-10.1,25.259-7.217" transform="translate(-296.204 -467.32)" fill="#d68e61"/><path d="M413.644,1390.313c-3.251,2.7-18.4,8.656-23.819,8.656s-15.877.423-20.208,1.5-14.072-.057-15.152-1.68-.72-8.9-.966-11.307a12.722,12.722,0,0,1,.908-5.153c.034-.091.057-.143.057-.143l-.36-22.728L376.3,1357.3l.543,18.94s9.741,2.165,17.318,3.794a85.914,85.914,0,0,0,17.323,1.623c2.165,0,5.411,5.953,2.165,8.661" transform="translate(-243.123 -933.582)" fill="#d68e61"/><path d="M413.644,1432.044c-3.251,2.7-18.4,8.656-23.819,8.656s-15.877.423-20.208,1.5-14.072-.057-15.152-1.68-.72-8.9-.966-11.307a12.722,12.722,0,0,1,.908-5.154c2.822.5,7.525,1.109,11.061.4a58.026,58.026,0,0,1,11.369-6.5s9.741,2.165,17.318,3.794a85.914,85.914,0,0,0,17.323,1.623c2.165,0,5.411,5.953,2.165,8.662" transform="translate(-243.123 -975.313)" fill="#42312f"/><path d="M49.276,1367.2c-2.708,1.08-20.568,2.16-23.819,0s-14.072-11.913-15.695-14.078-9.2-6.49-9.741-9.2c-.451-2.263,6.639-10.936,8.993-13.735.468-.554.748-.88.748-.88l9.2-20.568,21.111,10.284s-11.364,17.323-9.741,18.4,3.788,14.072,5.41,15.695a36.709,36.709,0,0,0,10.284,5.953c3.251,1.085,5.953,7.039,3.251,8.124" transform="translate(0 -900.184)" fill="#d68e61"/><path d="M49.276,1414.457c-2.708,1.08-20.568,2.16-23.819,0s-14.072-11.913-15.695-14.078-9.2-6.49-9.741-9.2c-.451-2.263,6.639-10.936,8.993-13.735l9.227,7.056s7.216-1.08,12.09.183c1.622,1.08,3.788,14.072,5.41,15.695a36.715,36.715,0,0,0,10.284,5.953c3.251,1.085,5.953,7.039,3.251,8.124" transform="translate(0 -947.441)" fill="#42312f"/><path d="M87.822,729.626s-4.691,7.939-6.134,91.655c0,0-17.321,49.075-26.342,73.974-2.608,7.2-6.5,11.908-5.413,16.239s18.945,15.7,22.734,18.4,12.991,2.165,15.7,1.083,4.33-9.2,4.33-11.367,37.889-88.768,39.513-94.723,4.55-20.041,4.55-20.041.863,16.794,2.487,27.078-1.083,91.475,0,96.346,17.321,2.165,21.11,3.789,16.238-1.083,18.4-4.33,0-97.97,1.624-102.842-12.449-95.264-12.449-95.264Z" transform="translate(-34.218 -501.855)" fill="#a8674e"/><path d="M313.685,831a1.143,1.143,0,0,1-1.122-1.365c.092-.462,9.175-46.345,10.775-58.083a1.137,1.137,0,0,1,.137-.407,36.642,36.642,0,0,1,2.737-4.251,5.614,5.614,0,0,0,1.289-3.1c.7-3.524,3.135-23.637,3.16-23.84a1.143,1.143,0,1,1,2.269.273c-.1.832-2.466,20.4-3.188,24.015a7.745,7.745,0,0,1-1.693,4.013,33.737,33.737,0,0,0-2.476,3.826c-1.69,12.145-10.676,57.54-10.767,58a1.143,1.143,0,0,1-1.12.921" transform="translate(-214.973 -508.264)" fill="#7c3f29"/><path d="M190.918,365.846c.034,1.82-.543,3.787-5.416,4.868a69.747,69.747,0,0,1-8.119,1.623c-3.788.543-8.662,3.794-8.662,3.794s-1.623,9.741-1.623,11.364-7.033,3.251-12.45,4.331-15.152,3.245-24.357,1.08-30.31,3.794-36.806,5.416-17.317,4.868-18.4,2.166.543-11.907.543-16.237,2.7-17.323,2.7-17.323c-3.788,1.086-9.2-1.08-14.072-2.708s-7.576,0-15.695-4.325-7.576-17.866-6.5-19.489.543-12.45,1.623-18.946,4.331-18.946,5.953-26.522,5.417-30.853,10.284-41.679,15.7-12.45,20.031-14.609,20.568-8.662,20.568-8.662l33.224-3.279,14.906,3.434,1.663.383a29.6,29.6,0,0,1,5.5,1.291,31.236,31.236,0,0,1,12.364,7.37c7.576,7.582,13.354,76.5,13.891,82.455s8.66,34.461,8.843,44.206" transform="translate(-28.516 -155.935)" fill="#ffbf69"/><path d="M155.716,469.374a1.143,1.143,0,0,1-1.04-.669,8.883,8.883,0,0,1-.708-3.651c-.031-7.123,5.766-17.257,8.416-20.785,2.533-3.378,8.281-6.65,11.253-8.195L172,434.767l-.082-.407a5.121,5.121,0,0,0-1.15-2.02,6.924,6.924,0,0,0-2.031-1.516,13.994,13.994,0,0,1-5.3-4.7l-.017-.027c-.044-.073-.057-.1-.057-.1l-.6-1.257,1.206-.338a3.215,3.215,0,0,0,1.064-1.748,9.343,9.343,0,0,0,.376-1.668c.2-1.363.455-2.45.685-3.409a11.031,11.031,0,0,0,.405-4.91,37.037,37.037,0,0,1,1.108-13.486c.853-2.982.91-18.362.859-24.037a1.142,1.142,0,0,1,1.133-1.153h.01a1.142,1.142,0,0,1,1.142,1.133c.008.846.171,20.776-.947,24.684a34.942,34.942,0,0,0-1.051,12.484,13.169,13.169,0,0,1-.437,5.816c-.229.955-.465,1.943-.645,3.2a11.421,11.421,0,0,1-.47,2.067,6.4,6.4,0,0,1-1.263,2.315,11.9,11.9,0,0,0,3.821,3.095,9.213,9.213,0,0,1,2.707,2.031,7.664,7.664,0,0,1,1.57,2.658l4.053,3.241-1.945.66c-1.177.569-9.1,4.5-11.934,8.27-2.7,3.6-7.985,13.295-7.959,19.4a6.655,6.655,0,0,0,.5,2.713,1.143,1.143,0,0,1-1.039,1.617m8.661-43.9h0Zm-.45-1.047h0m.169-.061-.052.014Z" transform="translate(-105.903 -257.24)" fill="#d38937"/><path d="M113.713,540.883a1.143,1.143,0,0,1-.5-2.171c.56-.273,13.825-6.649,22.962-4.412a1.143,1.143,0,1,1-.543,2.22c-8.346-2.043-21.289,4.184-21.419,4.247a1.143,1.143,0,0,1-.5.115" transform="translate(-77.428 -367.178)" fill="#d38937"/><path d="M132.207,553.026a1.123,1.123,0,0,1-.278-.035,1.142,1.142,0,0,1-.831-1.385c.445-1.779,6.988-5.8,7.733-6.248,2.847-1.729,8.079-4.591,11.146-4.357a1.143,1.143,0,1,1-.176,2.279c-.081-.006-.165-.009-.252-.009-4.3,0-15.285,7.525-16.27,9.007a1.144,1.144,0,0,1-1.072.749m1.052-.718h0" transform="translate(-90.148 -372.105)" fill="#d38937"/><path d="M425.939,474.2a1.143,1.143,0,0,1-1.136-1.034c-.208-2.171-.593-5.388-1.041-9.114-1.085-9.039-2.57-21.419-2.57-28.165,0-4.746-.566-13.133-1.113-21.243-.541-8.028-1.053-15.611-1.053-19.893,0-8.445-3.549-25.576-3.584-25.748a1.143,1.143,0,1,1,2.237-.466c.149.712,3.632,17.535,3.632,26.214,0,4.205.509,11.751,1.047,19.739.55,8.148,1.118,16.574,1.118,21.4,0,6.609,1.477,18.911,2.554,27.893.449,3.74.837,6.971,1.046,9.168a1.142,1.142,0,0,1-1.029,1.246,1.1,1.1,0,0,1-.11.006" transform="translate(-285.735 -252.866)" fill="#d38937"/><path d="M442.113,531.215c-.157,0-.316-.005-.476-.018a3.946,3.946,0,0,1-3.143-2.1,2.417,2.417,0,0,1,.159-2.469,3.681,3.681,0,0,1,1.963-1.278,102.868,102.868,0,0,1,10.516-2.984,2.031,2.031,0,0,0-.429-.691,4.885,4.885,0,0,0-3.61-1.352,19.784,19.784,0,0,0-2.734.381,13.2,13.2,0,0,1-5.116.265,1.143,1.143,0,1,1,.454-2.24,11.328,11.328,0,0,0,4.245-.272,21.821,21.821,0,0,1,3.054-.418,7.233,7.233,0,0,1,5.4,2.1,3.965,3.965,0,0,1,1.07,3.29l-.11.789-.779.169a100.433,100.433,0,0,0-11.219,3.126,2.116,2.116,0,0,0-.819.409c-.021.031-.042.062.019.19a1.707,1.707,0,0,0,1.256.81,8.276,8.276,0,0,0,1.558-.093,7.335,7.335,0,0,1,2.89.055,1.143,1.143,0,0,1-.608,2.2,5.479,5.479,0,0,0-2.01.011,12.688,12.688,0,0,1-1.528.12" transform="translate(-301.426 -356.315)" fill="#d38937"/><path d="M1223.643,1156.063c-.126.1-.268.206-.417.308-4.045,2.777-15.46,5.462-15.46,5.462l-6.137-5.771s12.992-9.381,16.6-14.438a19.616,19.616,0,0,0,2.137-4.411c2.331-6.331,3.954-15.261,6.165-14.712,1.445.36,3.245,6.136,3.97,8.3s0,5.411-.725,7.576,0,2.166,1.445,4.691-3.97,10.107-7.576,12.992" transform="translate(-826.511 -772.069)" fill="#bc9a80"/><path d="M1261.434,1156.063c-.126.1-.268.206-.417.308-.171-1.405.234-2.857.114-4.285a6,6,0,0,0-4.559-5.211c1.234-2.279,2.5-4.708,2.36-7.3a4.889,4.889,0,0,0-.777-2.365c2.331-6.331,3.954-15.261,6.165-14.712,1.445.36,3.245,6.136,3.97,8.3s0,5.411-.726,7.576,0,2.166,1.445,4.691-3.97,10.107-7.576,12.992" transform="translate(-864.302 -772.069)" fill="#a8674e"/><path d="M643.438,965.16c-6.682,0-14.688-5.028-23.864-15-8.209-8.924-17.316-21.688-27.067-37.939-9.564-15.94-13.694-26.67-17.688-37.047a196.67,196.67,0,0,0-9.948-22.739c-4.309-8.187-10.579-12.916-18.635-14.055a26.31,26.31,0,0,0-10.845.724l-.724-2.167a28.321,28.321,0,0,1,11.888-.82c6.067.858,14.52,4.2,20.337,15.253a198.563,198.563,0,0,1,10.058,22.983c3.959,10.286,8.052,20.922,17.515,36.692,9.671,16.118,18.684,28.758,26.789,37.568,10.159,11.042,18.556,15.711,24.961,13.883l.628,2.2a12.341,12.341,0,0,1-3.407.469" transform="translate(-367.758 -574.909)" fill="#42312f"/><path d="M951.141,1133.013c-1.446,2.885-8.3,4.691-11.547,4.691s-9.021-1.445-8.661-3.245,7.936-5.056,7.936-5.056-1.44-9.741-7.576-14.792c-.954-.788-2.125-1.765-3.439-2.879a158.68,158.68,0,0,1-16.277-15.683,30.521,30.521,0,0,1-4.822-7.056s-19.848.36-23.093.72-6.136,27.425-6.136,27.425,1.806,15.518.726,18.043-5.057,3.605-8.3,3.245-11.907-1.44-10.467-3.245,6.856-5.776,6.856-5.776-4.691-15.878-8.3-23.094a25.556,25.556,0,0,1-2.525-14.072l-5.051-1.446s1.44,35.006,1.8,38.251-6.856,7.942-10.821,7.942-11.547-4.331-11.187-5.416,8.3-5.411,9.381-7.216-9.741-25.259-11.547-32.475.36-51.6.36-51.6V1024.4s-12.632,2.891-20.568-5.051-10.1-12.627-7.942-14.792,19.128-7.216,19.128-7.216.36-16.237,5.411-17.683,23.82-3.611,27.425.36,17.323,45.827,19.488,50.158,38.612,15.158,49.433,21.288,19.849,24.9,25.625,40.777,6.13,37.891,4.691,40.777" transform="translate(-549.677 -672.521)" fill="#d3b297"/><path d="M958.3,1147.994a13.543,13.543,0,0,0-3.868,13.841,3.855,3.855,0,0,0,.824,1.579c1.071,1.1,2.956.815,4.261,0s2.321-2.041,3.662-2.794c4.867-2.734,11.026,1.858,16.42.417.611-1.954-1.009-3.9-2.719-5.025s-3.747-2.012-4.719-3.814c-1.043-1.932-.532-4.318-1.009-6.461-.758-3.406-6.211-8.492-10.13-7.327-6.5,1.934.769,6.5-2.721,9.583" transform="translate(-656.092 -782.911)" fill="#a8674e"/><path d="M1175.558,1353.775a158.7,158.7,0,0,1-16.277-15.683,10.111,10.111,0,0,0,2.748-2.628c.914-1.286,1.52-2.776,2.526-3.994s2.611-2.148,4.125-1.714c1.491.429,2.348,1.983,2.788,3.468a14.25,14.25,0,0,0,1.537,4.359,12.079,12.079,0,0,0,3.1,2.594,12.112,12.112,0,0,1,4.091,4.479c2.166,4.531-.783,7.633-4.639,9.119" transform="translate(-797.383 -914.565)" fill="#a8674e"/><path d="M977.181,1274.741a1.143,1.143,0,0,1-1.143-1.142c0-11.221,5.581-30.536,5.819-31.353a1.143,1.143,0,0,1,2.195.638c-.057.2-5.728,19.82-5.728,30.714a1.143,1.143,0,0,1-1.142,1.142" transform="translate(-671.344 -853.882)" fill="#bc9a80"/><path d="M1067.34,1276.191a1.143,1.143,0,0,1-1.037-1.622c4.12-8.928.676-25.821.64-25.991a1.143,1.143,0,0,1,2.237-.466c.151.722,3.635,17.8-.8,27.414a1.142,1.142,0,0,1-1.038.664" transform="translate(-733.358 -857.857)" fill="#bc9a80"/><path d="M1135.415,1276.262a1.143,1.143,0,0,1-1.029-.644c-5.924-12.219-.624-25.959-.4-26.538a1.142,1.142,0,0,1,2.126.838c-.052.133-5.154,13.4.326,24.7a1.143,1.143,0,0,1-1.027,1.641" transform="translate(-778.337 -858.651)" fill="#bc9a80"/><path d="M920.448,1277.274a1.136,1.136,0,0,1-.384-.067c-15.624-5.58-19.013-27.756-19.15-28.7a1.143,1.143,0,0,1,2.261-.329c.031.217,3.334,21.758,17.657,26.874a1.143,1.143,0,0,1-.385,2.219" transform="translate(-619.663 -857.858)" fill="#bc9a80"/><path d="M812.127,1063c1.531,1.786-3.789,7.4-5.774,5.954s-4.51-3.068-3.789-5.052,8.48-2.165,9.563-.9" transform="translate(-551.937 -730.605)" fill="#42312f"/><path d="M872.222,1041.54a1.142,1.142,0,0,1-1-.583c-1.461-2.6-8.362-2.449-10.665-2.191a1.143,1.143,0,0,1-.255-2.271c1.062-.119,10.446-1.04,12.912,3.342a1.143,1.143,0,0,1-1,1.7" transform="translate(-591.042 -712.817)" fill="#bc9a80"/><path d="M863.514,1094.491a1.143,1.143,0,0,1-.022-2.285c.157,0,11.9-.325,15.38-6.627a1.143,1.143,0,0,1,2,1.1c-4.12,7.468-16.8,7.8-17.337,7.808Z" transform="translate(-593.161 -746.283)" fill="#bc9a80"/><path d="M912.783,1086.6a1.162,1.162,0,0,1-.143-.009,1.142,1.142,0,0,1-.994-1.254c-.216-.383-1.819-.972-3.549-1.148a1.143,1.143,0,0,1,.229-2.274c.637.064,3.879.459,5.094,1.982a2.237,2.237,0,0,1,.5,1.7,1.142,1.142,0,0,1-1.132,1m-1.129-1.245h0Z" transform="translate(-623.905 -744.164)" fill="#bc9a80"/><path d="M919.6,1026.988c2.646.241.481,9.142-1.2,8.179s-1.443-8.42,1.2-8.179" transform="translate(-630.96 -706.384)" fill="#42312f"/><path d="M928.429,1094.815c-.722.481-9.141,12.75-17.8,17.08s-19,3.608-19,3.608-2.165,2.165-.962,4.571c0,0,11.307,2.165,20.207-2.165s18.524-14.193,19.245-18.042-1.684-5.052-1.684-5.052" transform="translate(-612.368 -753.041)" fill="#ffbf69"/><path d="M968.138,937.354s3.969-7.578,3.729-9.262-1.925-9.622-.962-11.547,16.84-.24,18.523,2.887-4.089,9.382-4.089,9.382-10.1,13.472-12.75,15.4-4.45-6.856-4.45-6.856" transform="translate(-665.91 -629.861)" fill="#bc9a80"/><path d="M864.256,937.434s-.722-15.155-4.571-18.283-12.991,1.684-13.472,3.368-1.443,11.307.962,12.028,6.976-4.33,6.976-4.33,4.812,4.089,4.812,8.179Z" transform="translate(-581.633 -631.505)" fill="#bc9a80"/><path d="M981.274,957.342c-.161,0-.313-.006-.455-.021-3.125-.312-4.3-4.012-4.346-4.169a1.143,1.143,0,0,1,2.183-.676c.007.024.8,2.413,2.391,2.571,1.775.18,7.106-1.587,9.566-2.57a1.143,1.143,0,0,1,.849,2.122c-.072.029-6.953,2.743-10.186,2.743" transform="translate(-671.607 -654.585)" fill="#d3b297"/><path d="M870.45,938.008a1.142,1.142,0,0,1-.853-1.9c1.861-2.093,5.895-7.783,5.935-7.84a1.143,1.143,0,0,1,1.865,1.321c-.169.238-4.148,5.85-6.093,8.037a1.139,1.139,0,0,1-.854.383" transform="translate(-597.932 -638.153)" fill="#d3b297"/><path d="M224.968,26.418c-1.083-5.413-2.165-6.856-2.165-8.3s1.083-9.382-1.082-10.825a7.873,7.873,0,0,0-3.972-1.443A10.779,10.779,0,0,0,208.728.074C204.4-.286,190.325.8,187.8.44s-5.771,2.885-6.856,5.771S169.4,12.346,169.4,14.871s3.251,6.136,3.251,7.936c2.525-2.525,4.331-6.856,11.187-7.576,6.614-.695,13.9-.72,15.372-2.342l11.329,32.653,6.5,2.165s4.33.361,3.608-2.887,1.443-4.691,2.887-7.939,2.526-5.052,1.443-10.465" transform="translate(-116.515 0)" fill="#70453a"/><path d="M520.176,809.873c.1.12,1.371,1.663,2.908,3.554a.278.278,0,0,0,.04.046c1.114,1.377,2.365,2.931,3.411,4.262l.046.063a30.9,30.9,0,0,1,2.177,2.959.021.021,0,0,1,.006.012c.617,1.263-.012,4.177-1.051,4.8s-1.468,2.72-2.931,3.977-3.771,1.68-5.028,2.308-3.977,3.559-6.285,3.348-2.12,2.285-5.679,1.24a9.094,9.094,0,0,1-4.451-3.811,45.469,45.469,0,0,1-3.245-5.816c-2.645-5.291-4.634-9.41-4.839-14.226a12.711,12.711,0,0,1,2.3-7.959s7.748-4.817,10.679-5.028,9,1.257,11.73,3.142,10.467,6.907,10.89,7.748,0,1.674-2.1,1.885c-2.057.206-8.33-2.405-8.582-2.508" transform="translate(-340.64 -549.976)" fill="#d68e61"/><path d="M519.394,861.064a6.706,6.706,0,0,1-1.887-.3c-1.788-.527-3.445-1.918-5.068-4.255a1.144,1.144,0,0,1-.192-.487l-.47-3.224c-.8-2.969-2.517-9.909-1.745-11.837.743-1.848,2.872-2.536,3.939-2.77.988-1.712,2.66-4.084,4.338-4.084a8.995,8.995,0,0,1,3.005.709,3.1,3.1,0,0,1,3.321-1.413,6.722,6.722,0,0,1,3.015,1.314,3.682,3.682,0,0,1,4.645-.417,9.531,9.531,0,0,1,1.679,1.587l.033.038.009.01c.88.986,2.015,2.4,3.471,4.335l.039.054c.713.946,1.451,1.949,2.2,2.99h0a1.208,1.208,0,0,1,.1.176h0c.821,1.68.178,5.278-1.487,6.285l0,0a4.348,4.348,0,0,0-.869,1.274,8.921,8.921,0,0,1-1.9,2.589,11.759,11.759,0,0,1-3.847,1.917,13.3,13.3,0,0,0-1.414.546,10.952,10.952,0,0,0-1.247.891c-1.508,1.166-3.576,2.758-5.653,2.573-.515-.048-.745.1-1.263.485a4.263,4.263,0,0,1-2.746,1.017m-4.925-5.645a7.7,7.7,0,0,0,3.683,3.15,2.38,2.38,0,0,0,2.638-.366,3.815,3.815,0,0,1,2.822-.917c1.182.107,2.906-1.224,4.046-2.1a11.254,11.254,0,0,1,1.623-1.127,14.662,14.662,0,0,1,1.686-.661,9.91,9.91,0,0,0,3.11-1.494,6.935,6.935,0,0,0,1.39-1.958,5.221,5.221,0,0,1,1.691-2.128,4.353,4.353,0,0,0,.646-3.263c-.716-.994-1.421-1.952-2.1-2.849l-.045-.061c-1.409-1.869-2.5-3.234-3.335-4.172-.023-.024-.053-.057-.086-.1a7.556,7.556,0,0,0-1.208-1.172c-1.171-.781-2.214.523-2.412.793a1.149,1.149,0,0,1-.916.471H527.7a1.144,1.144,0,0,1-.914-.452,4.237,4.237,0,0,0-2.526-1.36.964.964,0,0,0-1.214.874,1.153,1.153,0,0,1-1.635.821,9.369,9.369,0,0,0-3.063-.959c-.517.176-1.763,1.767-2.64,3.375a1.141,1.141,0,0,1-.862.587c-.574.075-2.309.505-2.692,1.458-.324.938.694,6.166,1.848,10.458a1.046,1.046,0,0,1,.027.132Zm23.282-6.627h0Zm-3.716-12.835c.016.021.032.044.046.066-.015-.024-.031-.046-.046-.066" transform="translate(-350.679 -573.193)" fill="#ad6842"/><path d="M529.041,865.576a1.143,1.143,0,0,1-1.056-.705l-6.134-14.792a1.143,1.143,0,1,1,2.111-.876L530.1,864a1.143,1.143,0,0,1-1.055,1.581" transform="translate(-358.882 -583.618)" fill="#ad6842"/><path d="M554.323,858.124a1.142,1.142,0,0,1-1.023-.632l-8.3-16.6a1.143,1.143,0,1,1,2.044-1.022l8.3,16.6a1.143,1.143,0,0,1-1.021,1.654" transform="translate(-374.781 -577.248)" fill="#ad6842"/><path d="M571.741,853.073a1.141,1.141,0,0,1-.97-.538l-7.215-11.549a1.143,1.143,0,1,1,1.938-1.211l7.215,11.549a1.143,1.143,0,0,1-.968,1.749" transform="translate(-387.509 -577.249)" fill="#ad6842"/><path d="M257.188,300.88s-4.868,17.317-9.2,20.026-18.946,19.488-23.277,18.946-18.4-8.119-18.4-8.119l-11.7,6.108a8.05,8.05,0,0,0-2.371-1.777,12.9,12.9,0,0,1-4.851-4.291l.034-.063,1.029-2.143s.234-.1.657-.3c2.868-1.32,14.3-6.748,16.66-10.53,2.708-4.331,25.442-31.932,29.23-36.806,3.651-4.7,13.335-41.565,14.032-44.227l1.663.383a29.6,29.6,0,0,1,5.5,1.291c.12,10-8.747,42.011-8.747,42.011Z" transform="translate(-128.889 -163.501)" fill="#a8674e"/><path d="M257.622,436.273a1.143,1.143,0,0,1-.865-1.889c7.5-8.7,27.348-32.041,29.072-35.489a1.143,1.143,0,1,1,2.044,1.022c-2.2,4.407-28.276,34.673-29.385,35.959a1.139,1.139,0,0,1-.866.4" transform="translate(-176.414 -273.936)" fill="#7c3f29"/><path d="M349.579,407.118c-.48,1.879-3.327,3.124-3.831,2.032s1.444-8.242,2.29-7.785,1.787,4.792,1.541,5.753" transform="translate(-237.757 -276.054)" fill="#eacdc7"/><path d="M296.138,460.583c-2.841,0-7.965-2.255-10.3-3.357a1.143,1.143,0,0,1-.38-1.777c.2-.236,20.2-23.569,21.6-25.442a1.642,1.642,0,0,1,2.09-.5c.395.188,1.6.76,3.731,5.587.609,1.378,2,4.7,1.735,5.743-.236.946-5.06,6.581-7.915,9.856-3.533,4.053-8.01,9.018-9.281,9.653a2.913,2.913,0,0,1-1.286.241m-7.955-4.8c3.786,1.667,7.443,2.8,8.23,2.51,1.619-.913,14.4-15.612,15.944-18-.26-1.53-2.594-6.988-3.85-8.424-2.723,3.356-16.455,19.4-20.324,23.917" transform="translate(-196.157 -295.299)" fill="#7c3f29"/><path d="M260.71,175.174c-2.646,2.165-14.192,1.925-20.449-1.685s-11.787-6.616-11.546-7.576c.114-.451.806-3.468,1.36-6.953.634-3.976,1.1-8.559.326-10.61-1.44-3.845,23.094-18.523,23.094-18.523l3.611-.12s.091,3.594.348,8.073c.337,5.862.394,13.815,1.486,16.677,1.925,5.051,3.605,5.53,3.605,5.53s.817,13.021-1.834,15.186" transform="translate(-157.311 -89.216)" fill="#d68e61"/><path d="M260.466,137.779c-1.543,3.651-3.251,7.582-3.959,8.884-1.44,2.651-7.216,9.867-14.432,12.273a12.6,12.6,0,0,1-8.987.023c.634-3.976,1.1-8.559.326-10.61-1.44-3.845,23.094-18.523,23.094-18.523l3.611-.12s.091,3.594.348,8.073" transform="translate(-160.323 -89.215)" fill="#ad6842"/><path d="M223.472,64.51c-.725,1.445-3.971,2.166-3.971,2.166s-1.08,10.827-2.885,12.992-15.518,9.022-19.489,8.3S184.5,78.222,183.055,73.531s-1.44-15.158-2.166-18.043a43.407,43.407,0,0,1-1.08-8.662c2.525-2.525,4.331-6.856,11.187-7.576s14.432-.72,15.512-2.525a4.046,4.046,0,0,1,3.251-1.805l.234.091c2.177,1.029.52,6.839,1.571,8.93,1.08,2.165,3.965,5.051,3.965,7.216s-.72,5.051,1.086,5.051,5.051-5.411,7.936-3.245-.36,10.1-1.08,11.547" transform="translate(-123.678 -24.019)" fill="#d68e61"/><path d="M246.478,95.581c2.209-.316,1.571,5.707.18,6.135-2.345.721-2.706-5.774-.18-6.135" transform="translate(-168.335 -65.735)" fill="#42312f"/><g transform="translate(82.738 37.87)" opacity="0.5"><g clip-path="url(#c)"><path d="M272.711,121.585c2.647,2.941-5.593,7.939-7.4,6.856s5.773-8.66,7.4-6.856" transform="translate(-265.037 -121.309)" fill="#ad6842"/></g></g><path d="M232.809,77.183c-.73,1.461,3.969-.18,6.5.361s4.15,1.083,5.052.541-2.706-2.707-5.593-2.707-5.413.722-5.954,1.8" transform="translate(-160.08 -51.848)" fill="#70453a"/><path d="M228,150.5s-.783,3.605-2.045,4.331-6.13,1.983-7.4,1.44c-1.086-.463-2.7-2.657-3.131-3.268a29.766,29.766,0,0,1,5.3-1.24A29.775,29.775,0,0,0,227.8,150.5Z" transform="translate(-148.175 -103.516)" fill="#fff"/><path d="M191.72,103.571c2.171-.7,3.428,5.232,1.263,5.774s-3.488-5.052-1.263-5.774" transform="translate(-131.079 -71.199)" fill="#42312f"/><path d="M186.23,87.46c1.14.965-1.8,1.714-2.8,2.255s-1.624.812-1.624.812l-.271-2.165s3.518-1.895,4.691-.9" transform="translate(-124.867 -59.96)" fill="#70453a"/><path d="M203.8,103.537a1.157,1.157,0,0,1-.289-.037,1.143,1.143,0,0,1-.817-1.394,23.029,23.029,0,0,0,.874-5.163c-.139-1.112-1.455-5.853-1.95-7.586a1.143,1.143,0,1,1,2.2-.628c.187.655,1.834,6.442,2.02,7.931.2,1.581-.741,5.295-.931,6.023a1.143,1.143,0,0,1-1.1.854" transform="translate(-138.647 -60.46)" fill="#ad6842"/><path d="M211.094,136.336a5.976,5.976,0,0,1-1.784-.254,1.143,1.143,0,0,1,.682-2.182c1.959.612,4.949-.757,5.935-1.337a1.143,1.143,0,0,1,1.162,1.968,13.636,13.636,0,0,1-5.995,1.8" transform="translate(-143.417 -91.071)" fill="#ad6842"/><path d="M300.97,109.541h-.058a1.143,1.143,0,0,1-1.084-1.2c.2-3.986,3.769-7.787,3.922-7.947a1.143,1.143,0,0,1,1.658,1.573c-.031.033-3.14,3.354-3.3,6.488a1.143,1.143,0,0,1-1.14,1.086" transform="translate(-206.228 -68.809)" fill="#ad6842"/><path d="M306.71,116a1.137,1.137,0,0,1-.8-.329,2.993,2.993,0,0,0-2.422-.772,1.143,1.143,0,0,1-.409-2.249,5.341,5.341,0,0,1,4.441,1.4,1.143,1.143,0,0,1-.808,1.95" transform="translate(-207.818 -77.428)" fill="#ad6842"/><path d="M207.344,151.415a1.143,1.143,0,0,1-.377-2.222c.03-.01.751-.262,1.776-.579a28.62,28.62,0,0,1,5.547-1.287,28.623,28.623,0,0,0,6.735-1.187,2.5,2.5,0,0,0,.449-.228,1.143,1.143,0,0,1,1.324,1.863,4.59,4.59,0,0,1-.9.477,32.249,32.249,0,0,1-7.429,1.353,27.547,27.547,0,0,0-5.05,1.193c-.982.3-1.69.55-1.7.553a1.145,1.145,0,0,1-.377.064" transform="translate(-141.83 -100.217)" fill="#ad6842"/><path d="M252.637,146.464a1.143,1.143,0,0,1-1.143-1.143,4.805,4.805,0,0,0-1.9-1.5,1.143,1.143,0,0,1,1.023-2.044c.741.37,3.158,1.721,3.158,3.548a1.143,1.143,0,0,1-1.143,1.143" transform="translate(-171.247 -97.433)" fill="#ad6842"/><path d="M213.448,591.987,209.654,609.3l-52.026-6.971c-.028-6.553,5.434-16.426,8.187-20.094,3.131-4.177,11.821-8.359,12.415-8.644l.034-.012Z" transform="translate(-108.42 -394.526)" fill="#d68e61"/><path d="M322.061,628.466s10.1-1.083,12.63-.722,9.743,3.608,13.712,4.33,4.691.722,5.052,1.8-4.33,2.526-5.413,2.887,6.5,6.134,8.66,9.382,0,5.413-.361,6.5-1.083,3.969-2.165,5.052-1.8.722-3.248,2.526-2.887,3.248-4.691,2.887-7.578-2.526-14.434-7.217-11.186-8.66-12.991-12.269,3.248-15.155,3.248-15.155" transform="translate(-219.02 -431.727)" fill="#d68e61"/><path d="M412.72,684.823a1.137,1.137,0,0,1-.774-.3l-6.108-5.628-5.023-4.067a1.143,1.143,0,0,1,1.438-1.776l5.052,4.09c.019.015.037.031.056.048l6.135,5.653a1.143,1.143,0,0,1-.775,1.983" transform="translate(-275.399 -462.766)" fill="#ad6842"/><path d="M403.134,702.064a1.137,1.137,0,0,1-.693-.235l-6.135-4.691-6.235-4.556a1.143,1.143,0,1,1,1.349-1.845l6.254,4.57,6.155,4.706a1.143,1.143,0,0,1-.7,2.05" transform="translate(-267.979 -474.955)" fill="#ad6842"/><path d="M390.443,716.105a1.136,1.136,0,0,1-.612-.179l-5.292-3.368a1.115,1.115,0,0,1-.093-.066L377.71,707.2a1.143,1.143,0,1,1,1.412-1.8l6.691,5.258L391.058,714a1.143,1.143,0,0,1-.615,2.107" transform="translate(-259.498 -485.026)" fill="#ad6842"/><path d="M320.464,665.964a1.143,1.143,0,0,1-1.041-.67c-2.018-4.434.988-10.151,1.117-10.393a1.143,1.143,0,0,1,2.016,1.076c-.026.049-2.6,4.969-1.053,8.37a1.143,1.143,0,0,1-1.04,1.616" transform="translate(-219.23 -450.042)" fill="#ad6842"/></g></g></g></g></g></svg>