<svg xmlns="http://www.w3.org/2000/svg" xmlns:xlink="http://www.w3.org/1999/xlink" width="491" height="478" viewBox="0 0 491 478"><defs><clipPath id="a"><rect width="253.248" height="378.439" fill="none"/></clipPath><clipPath id="b"><path d="M467.09,919.9c0,30.014,22.7,54.346,50.7,54.346s50.7-24.332,50.7-54.346-22.7-54.346-50.7-54.346-50.7,24.331-50.7,54.346" transform="translate(-467.09 -865.554)" fill="none"/></clipPath><clipPath id="d"><rect width="91.399" height="91.399" fill="none"/></clipPath></defs><g transform="translate(-1057 -2478)"><rect width="491" height="478" transform="translate(1057 2478)" fill="#ffe12b"/><g transform="translate(1175.876 2528.208)"><g clip-path="url(#a)"><path d="M256.922,142.058H17.608a5.332,5.332,0,0,0-5.332,5.332V477.321a5.332,5.332,0,0,0,5.332,5.332H256.922a5.332,5.332,0,0,0,5.332-5.332V147.39a5.332,5.332,0,0,0-5.332-5.332" transform="translate(-9.006 -104.214)" fill="#765a9d"/><rect width="235.396" height="322.888" transform="translate(10.561 45.829)" fill="#fff"/><path d="M364.79,112.734H233.858a.674.674,0,0,0-.674.674V129.4h132.28V113.408a.674.674,0,0,0-.674-.674" transform="translate(-171.065 -82.702)" fill="#add9e0"/><path d="M425.051,40.968a20.484,20.484,0,1,1,20.484-20.485,20.507,20.507,0,0,1-20.484,20.485m0-28.469a7.985,7.985,0,1,0,7.985,7.985,7.994,7.994,0,0,0-7.985-7.985" transform="translate(-296.792)" fill="#add9e0"/><path d="M296.577,1319.1H99.8a1.756,1.756,0,0,1-1.75-1.751v-1.531a1.756,1.756,0,0,1,1.75-1.75H296.577a1.756,1.756,0,0,1,1.75,1.75v1.531a1.756,1.756,0,0,1-1.75,1.751" transform="translate(-71.933 -964.005)" fill="#add9e0"/><path d="M521.458,593.5a10.993,10.993,0,1,0-10.993,10.993A10.993,10.993,0,0,0,521.458,593.5" transform="translate(-366.415 -427.328)" fill="#70aab8"/><path d="M518.94,614l-7.1-7.1,3.6-3.6,3.077,3.076,5.328-6.681,3.978,3.173Z" transform="translate(-375.487 -439.943)" fill="#fff"/><path d="M638.109,602.481H600.032a1.319,1.319,0,0,1,0-2.637h38.078a1.319,1.319,0,0,1,0,2.637" transform="translate(-439.219 -440.048)" fill="#add9e0"/><path d="M798.794,603.1H771.431a1.319,1.319,0,0,1,0-2.637h27.363a1.319,1.319,0,1,1,0,2.637" transform="translate(-564.958 -440.502)" fill="#add9e0"/><path d="M662.34,632.8H600.032a1.319,1.319,0,0,1,0-2.637H662.34a1.319,1.319,0,1,1,0,2.637" transform="translate(-439.219 -462.291)" fill="#add9e0"/><path d="M627.23,658.789h-27.2a1.319,1.319,0,0,1,0-2.637h27.2a1.319,1.319,0,1,1,0,2.637" transform="translate(-439.219 -481.356)" fill="#add9e0"/><path d="M521.458,480.362a10.993,10.993,0,1,0-10.993,10.993,10.993,10.993,0,0,0,10.993-10.993" transform="translate(-366.415 -344.331)" fill="#70aab8"/><path d="M518.94,500.871l-7.1-7.1,3.6-3.6,3.077,3.076,5.328-6.681,3.978,3.174Z" transform="translate(-375.487 -356.947)" fill="#fff"/><path d="M644.949,488.109H598.795a1.319,1.319,0,1,1,0-2.637h46.154a1.319,1.319,0,1,1,0,2.637" transform="translate(-438.311 -356.144)" fill="#add9e0"/><path d="M615.319,522.76H598.176a1.319,1.319,0,1,1,0-2.637h17.143a1.319,1.319,0,0,1,0,2.637" transform="translate(-437.857 -381.565)" fill="#add9e0"/><path d="M736.775,522.76H691.61a1.319,1.319,0,0,1,0-2.637h45.165a1.319,1.319,0,0,1,0,2.637" transform="translate(-506.401 -381.565)" fill="#add9e0"/><path d="M521.458,711.248a10.993,10.993,0,1,0-10.993,10.993,10.993,10.993,0,0,0,10.993-10.993" transform="translate(-366.415 -513.71)" fill="#70aab8"/><path d="M518.94,731.756l-7.1-7.1,3.6-3.6,3.077,3.076,5.328-6.681,3.978,3.173Z" transform="translate(-375.487 -526.325)" fill="#fff"/><path d="M644.949,719H598.795a1.319,1.319,0,0,1,0-2.637h46.154a1.319,1.319,0,0,1,0,2.637" transform="translate(-438.311 -525.523)" fill="#add9e0"/><path d="M615.319,753.646H598.176a1.319,1.319,0,1,1,0-2.637h17.143a1.319,1.319,0,1,1,0,2.637" transform="translate(-437.857 -550.944)" fill="#add9e0"/><path d="M736.775,753.646H691.61a1.319,1.319,0,1,1,0-2.637h45.165a1.319,1.319,0,1,1,0,2.637" transform="translate(-506.401 -550.944)" fill="#add9e0"/><path d="M442.492,241.694a25.631,25.631,0,1,0-25.631,25.631,25.631,25.631,0,0,0,25.631-25.631" transform="translate(-287.008 -158.505)" fill="#dc4747"/><rect width="13.134" height="34.478" transform="translate(123.286 65.95)" fill="#fff"/><rect width="34.478" height="13.134" transform="translate(112.614 76.622)" fill="#fff"/><path d="M467.09,919.9c0-30.014,22.7-54.346,50.7-54.346s50.7,24.332,50.7,54.346-22.7,54.345-50.7,54.345-50.7-24.331-50.7-54.345" transform="translate(-342.659 -634.974)" fill="#f8e6da"/></g><g transform="translate(124.431 230.58)"><g clip-path="url(#b)"><path d="M466.486,921.2c0-30.014,22.7-54.345,50.7-54.345s50.7,24.331,50.7,54.345-22.7,54.345-50.7,54.345-50.7-24.331-50.7-54.345" transform="translate(-466.647 -866.505)" fill="#adbe9c"/><path d="M514.665,912.034l-13.521-53.483S571,851.3,569.392,914.794s-60.2,57.969-65.994,57.624-34.045-16.049-38.308-25.189c-.966-2.07,49.576-35.2,49.576-35.2" transform="translate(-465.612 -860.233)" fill="#70aab8"/><path d="M604.241,929.827l42.816-47.272s32.836,52.793,18.671,85.573-60.2,35.885-78.549,29.674Z" transform="translate(-555.188 -878.026)" fill="#3c6a7c"/><path d="M651.226,1060l75.651,8.626s-11.911,64.179-55.693,67.285Z" transform="translate(-602.173 -1008.204)" fill="#efc266"/><path d="M507.61,1060l19.959,75.911s-32.514,5.866-52.473-8.626-19.637-33.125-19.637-33.125Z" transform="translate(-458.557 -1008.204)" fill="#dc4747"/><path d="M503.8,817.994l6.574,48.04-20.617,16.013-.9-5.765-24.5-16.654L477.212,827.6Z" transform="translate(-465.09 -830.664)" fill="#add9e0"/><path d="M525.89,968.775c0-20.748,15.692-37.567,35.049-37.567s35.049,16.819,35.049,37.567-15.692,37.567-35.049,37.567-35.049-16.819-35.049-37.567" transform="translate(-510.226 -913.718)" fill="#fff"/></g></g><g clip-path="url(#a)"><path d="M260.245,966.847H205.664a2.085,2.085,0,0,1,0-4.16h54.581a2.085,2.085,0,0,1,0,4.16" transform="translate(-149.453 -706.232)" fill="#add9e0"/><path d="M260.245,1001.008H205.664a2.085,2.085,0,0,1,0-4.16h54.581a2.085,2.085,0,0,1,0,4.16" transform="translate(-149.453 -731.292)" fill="#add9e0"/><path d="M260.245,1164.844H205.664a2.085,2.085,0,0,1,0-4.16h54.581a2.085,2.085,0,0,1,0,4.16" transform="translate(-149.453 -851.483)" fill="#add9e0"/><path d="M260.245,1199H205.664a2.085,2.085,0,0,1,0-4.16h54.581a2.085,2.085,0,0,1,0,4.16" transform="translate(-149.453 -876.543)" fill="#add9e0"/><path d="M235.2,1065.792H210.218a2.085,2.085,0,0,1,0-4.16H235.2a2.085,2.085,0,0,1,0,4.16" transform="translate(-152.793 -778.818)" fill="#add9e0"/><path d="M247.575,1107.76H210.218a2.085,2.085,0,0,1,0-4.16h37.357a2.085,2.085,0,0,1,0,4.16" transform="translate(-152.793 -809.606)" fill="#add9e0"/><path d="M347.159,1065.792h-13.1a2.085,2.085,0,0,1,0-4.16h13.1a2.085,2.085,0,0,1,0,4.16" transform="translate(-243.644 -778.818)" fill="#add9e0"/><path d="M129.5,964.209a6.313,6.313,0,1,0-6.3,6.75,6.536,6.536,0,0,0,6.3-6.75" transform="translate(-85.764 -702.396)" fill="#1a2e3c"/><path d="M129.5,1070.279a6.313,6.313,0,1,0-6.3,6.75,6.536,6.536,0,0,0,6.3-6.75" transform="translate(-85.764 -780.21)" fill="#1a2e3c"/><path d="M129.5,1166.331a6.313,6.313,0,1,0-6.3,6.75,6.536,6.536,0,0,0,6.3-6.75" transform="translate(-85.764 -850.674)" fill="#1a2e3c"/></g><g transform="translate(27.401 121.622)"><g clip-path="url(#d)"><rect width="110.929" height="112.882" transform="translate(-11.718 -14.061)" fill="#add9e0"/><path d="M331.41,796.5l8.759,22.4s11.455-1.011,10.781,7.58H332.589s-12.465-23.752-12.634-25.436S331.41,796.5,331.41,796.5" transform="translate(-262.12 -705.941)" fill="#e69654"/><path d="M256.727,482.961s1.179-9.939,5.391-9.6,2.19,12.971,2.19,12.971l-5.727-.674Z" transform="translate(-215.737 -468.875)" fill="#e69654"/><path d="M275.28,488.385a.438.438,0,0,0,.424-.332c.021-.075.056-.239.106-.458a22.238,22.238,0,0,1,1.024-3.788.462.462,0,0,0,.2-.164.436.436,0,0,0-.121-.605.6.6,0,0,0-.463-.051c-.346.14-.619.506-1.494,4.417-.046.209-.082.363-.1.438a.435.435,0,0,0,.318.53.391.391,0,0,0,.106.014" transform="translate(-229.027 -475.924)" fill="#3e3148"/><path d="M44.976,498.321s3.537-13.392,6.317-14.655,6.317,4.8,4.3,9.6c0,0,11.623-4.3,14.15-4.548s3.537,2.78,3.537,2.78,25.268,7.075,22.488,20.972c0,0,27.542,16.171,25.52,20.972s-10.865-.253-10.865-.253,11.876,10.865,8.591,13.9a8.634,8.634,0,0,1-7.075,2.274s.758,11.623-5.811,15.666-21.478,10.36-21.478,10.36l6.064,15.161s8.338-2.021,9.854,2.274-1.264,4.043-1.264,4.043H31.837s-16.171-5.812-13.9-17.435c0,0-19.709-2.274-17.687-8.591s4.8-6.317,4.8-6.317-11.37-13.139,0-18.193,20.972-.758,24,12.634l8.086-5.812s-8.844-18.7-5.559-28.805,12.128-20.972,13.392-26.025" transform="translate(-27.401 -476.317)" fill="#efc266"/><path d="M386.906,714.453a.438.438,0,0,0,.217-.817,14.333,14.333,0,0,1-3.9-3.58.428.428,0,0,0-.443-.174.437.437,0,0,0-.34.332c-.144.639-.74,2.4-1.771,2.876a1.583,1.583,0,0,1-1.47-.134,4.089,4.089,0,0,1-2.464-3.631.438.438,0,0,0-.41-.462.08.08,0,0,0-.027,0,.438.438,0,0,0-.436.41,4.937,4.937,0,0,0,2.927,4.459,2.415,2.415,0,0,0,2.25.154,4.579,4.579,0,0,0,2.005-2.643,14.329,14.329,0,0,0,3.65,3.156.418.418,0,0,0,.217.058" transform="translate(-303.129 -641.644)" fill="#3e3148"/><path d="M221.443,710.408a3.693,3.693,0,0,0,2.987-1.2,4.867,4.867,0,0,0,.814-3.607.442.442,0,0,0-.506-.356.437.437,0,0,0-.355.506,4.044,4.044,0,0,1-.624,2.9,2.87,2.87,0,0,1-2.315.885c-3.773,0-6.3-7.129-6.326-7.2a.456.456,0,0,0-.475-.291.438.438,0,0,0-.376.41c-.01.188-.284,4.554-3.857,4.554-3.005,0-4.657-6.842-5.04-9.478a.422.422,0,0,0-.5-.373.439.439,0,0,0-.373.5c.062.421,1.539,10.23,5.908,10.23,2.677,0,3.963-2.031,4.469-3.823,1.019,2.253,3.317,6.349,6.565,6.349" transform="translate(-177.42 -633.052)" fill="#3e3148"/><path d="M333.989,704.991a2.786,2.786,0,0,0,2.588-1.764c1.07-2.3.426-6.907-3.517-11.587a.437.437,0,1,0-.67.561c3.7,4.39,4.349,8.6,3.393,10.657a1.955,1.955,0,0,1-1.795,1.258c-2.407,0-3.975-4.438-4.377-6.148a.452.452,0,0,0-.525-.328.438.438,0,0,0-.327.526c.065.28,1.636,6.825,5.228,6.825" transform="translate(-268.573 -628.896)" fill="#3e3148"/><path d="M164.53,615.633a14.476,14.476,0,0,0,4.175-.9.433.433,0,0,0,.26-.561.44.44,0,0,0-.561-.26c-.909.335-3.508,1.128-4.64.752-.947-.318-.827-2.646-.711-3.436a.439.439,0,0,0-.732-.387c-2.178,2.024-3.812,2.554-5.3,1.706a.475.475,0,0,1-.253-.366c-.2-1.2,1.9-4.106,3.272-5.655a.438.438,0,0,0-.656-.581c-.39.441-3.816,4.377-3.478,6.38a1.358,1.358,0,0,0,.684.988c2.031,1.135,4,.1,5.5-1.115-.024,1.169.161,2.886,1.4,3.293a3.267,3.267,0,0,0,1.039.144" transform="translate(-141.757 -566.037)" fill="#3e3148"/><path d="M265.953,862.362a.739.739,0,0,0,.089-.007.439.439,0,0,0,.352-.509.431.431,0,0,0-.51-.352c-1.123-.174-5.963-8.5-9.974-16.443a.433.433,0,0,0-.588-.192.438.438,0,0,0-.195.588c2.59,5.125,8.767,16.914,10.825,16.914" transform="translate(-214.529 -741.378)" fill="#3e3148"/><path d="M184.592,805.695a.435.435,0,0,0,.436-.407c.022-.3.484-7.413-3.472-9.027-2.3-.94-6.192-.828-8.972-.585,3.036-1.511,7.389-4.5,8.4-9.54a8.138,8.138,0,0,0-3.723-9.081c1.71,0,3.805-.325,4.373-1.8.376-.978-.492-2.605-2.164-4.052-3.723-3.228-10.678-5.012-19.007-.362a.438.438,0,0,0,.424.766c7.943-4.431,14.514-2.78,18.012.26,1.586,1.375,2.082,2.646,1.918,3.074-.584,1.521-4.452,1.275-5.754,1.074a.391.391,0,0,0-.5.335.442.442,0,0,0,.308.516,7.564,7.564,0,0,1,5.249,9.095c-1.446,7.238-10.719,10.083-10.815,10.111a.438.438,0,0,0,.2.851c.079-.01,8.172-1.3,11.724.14,3.373,1.381,2.934,8.09,2.927,8.158a.439.439,0,0,0,.407.468Z" transform="translate(-144.949 -685.045)" fill="#3e3148"/><path d="M79.1,775.783a.439.439,0,0,0,.373-.205,93.234,93.234,0,0,1,7.614-9.714.434.434,0,0,0-.034-.615.428.428,0,0,0-.615.034,93.787,93.787,0,0,0-7.71,9.83.437.437,0,0,0,.373.67" transform="translate(-85.109 -682.928)" fill="#3e3148"/><path d="M28.669,741.968a.438.438,0,0,0,.233-.81c-2.041-1.268-4.175-3.063-4.1-3.716.01-.1.195-.178.3-.215a4.363,4.363,0,0,1,3.662.123.44.44,0,0,0,.677-.39c-.058-1.009.133-2.5.636-2.575.629-.106,2.052.954,2.831,1.73a.438.438,0,0,0,.615-.622c-.222-.222-2.168-2.134-3.569-1.976-1.142.164-1.368,1.778-1.4,2.787a5.774,5.774,0,0,0-3.734.1,1.134,1.134,0,0,0-.9.94c-.181,1.525,3.4,3.877,4.5,4.564a.444.444,0,0,0,.233.065" transform="translate(-44.954 -659.726)" fill="#3e3148"/><path d="M185.418,504.072c.8,0,2.824-1.217,4-1.969a.438.438,0,0,0,.133-.605.446.446,0,0,0-.605-.133,22.237,22.237,0,0,1-3.224,1.771c.055-1.754,1.976-9.334,2.79-9.991a9.164,9.164,0,0,1,.738,3.2.42.42,0,0,0,.475.393.433.433,0,0,0,.393-.475c-.092-1.005-.4-3.4-1.265-3.877a.774.774,0,0,0-.752-.01c-1.32.656-3.4,9.916-3.235,11.136a.567.567,0,0,0,.438.55.606.606,0,0,0,.116.01" transform="translate(-163.011 -482.763)" fill="#3e3148"/><path d="M319.936,578.125l-3.453-3.032,3.369-.379Z" transform="translate(-259.574 -543.234)" fill="#3e3148"/><path d="M253.038,562.652c-.442-1.4-.315-2.683.284-2.872s1.442.789,1.884,2.187.315,2.683-.284,2.872-1.443-.79-1.884-2.187" transform="translate(-212.838 -532.261)" fill="#3e3148"/><path d="M292.559,551.586c-.442-1.4-.315-2.683.284-2.872s1.442.79,1.884,2.187.315,2.683-.284,2.872-1.443-.79-1.884-2.187" transform="translate(-241.83 -524.143)" fill="#3e3148"/><path d="M304.784,605.258c2.106.758,1.263,9.686,3.706,10.275s3.959-2.274,2.611-6.738-4.885-4.211-4.885-4.211Z" transform="translate(-250.992 -565.146)" fill="#e38064"/><path d="M281.507,576.371c3.792,0,7.857-1.121,9.216-2.79,1.746-2.147,1.13-6.237,1.1-6.411a.477.477,0,0,0-.458-.369l-8.613.492-2.005-2.595a.438.438,0,0,0-.694.533l2.147,2.78a.438.438,0,0,0,.373.171l8.432-.482c.1,1.029.251,3.833-.964,5.327-1.46,1.8-7.454,3.152-11.813,2.123a.439.439,0,0,0-.2.855,15.459,15.459,0,0,0,3.479.366" transform="translate(-231.116 -535.761)" fill="#3e3148"/></g></g><g clip-path="url(#a)"><path d="M606.157,1034.737c7.746.7,25.79,24.971,18.421,29.474s-33.568,5.731-37.661-.409,10.234-29.883,19.24-29.065" transform="translate(-430.038 -759.073)" fill="#add9e0"/><path d="M724.5,1033.571c0-3.583-2.075-6.488-4.634-6.488s-4.634,2.9-4.634,6.488,2.075,6.488,4.634,6.488,4.634-2.9,4.634-6.488" transform="translate(-524.695 -753.473)" fill="#add9e0"/><path d="M580.994,1033.777c0-3.7-2.113-6.694-4.72-6.694s-4.72,3-4.72,6.694,2.113,6.694,4.72,6.694,4.72-3,4.72-6.694" transform="translate(-419.295 -753.473)" fill="#add9e0"/><path d="M679.91,980.689c0-4.28-2.478-7.749-5.535-7.749s-5.535,3.469-5.535,7.749,2.478,7.749,5.535,7.749,5.535-3.469,5.535-7.749" transform="translate(-490.664 -713.753)" fill="#add9e0"/><path d="M622.82,981.642c0-4.28-2.478-7.749-5.535-7.749s-5.535,3.469-5.535,7.749,2.478,7.749,5.535,7.749,5.535-3.47,5.535-7.749" transform="translate(-448.783 -714.452)" fill="#add9e0"/></g></g></g></svg>