<svg xmlns="http://www.w3.org/2000/svg" width="670" height="645" viewBox="0 0 670 645"><g transform="translate(-979.5 -214)"><rect width="670" height="645" transform="translate(979.5 214)" fill="#d9cbec"/><g transform="translate(1112.5 307.866)"><g transform="translate(0 0.003)"><path d="M404.028,2084.775c0,27.545-91.112,35.78-202.681,35.78S0,2112.32,0,2084.775c0-33.208,90.445-49.874,202.014-49.874s202.014,6.314,202.014,49.874" transform="translate(0 -1666.292)" fill="#fff"/><path d="M659.621,34.18s-7.22-21.9-38.2-16.829-42.35,29.369-38.593,47.976c3.017,14.943-1.287,27.976-10.579,41.458-15.157,21.991-5.341,44.8.009,58.923,3.471,9.163-4.092,19.78-9.19,27.907-5.639,8.989,153.158.047,153.158.047s22.491-35.088,1.309-70.066c-18.518-30.58-17.182-34.4-13.517-57.175s-14.1-45.174-44.394-32.24" transform="translate(-460.95 -13.584)" fill="#bb6c65"/><path d="M910.209,670.994c-19.65,18.5-40.644,18.052-60.781,0,7.747-6.055,9.6-15.126,9.625-22.318a44.569,44.569,0,0,0-1.385-11.308s40.5-.679,40.434-.27a35.648,35.648,0,0,0,2.8,21.571,36.166,36.166,0,0,0,9.311,12.327" transform="translate(-695.56 -521.584)" fill="#ffc1ae"/><path d="M938.143,659.258c-4.256-.556-9.1,3.121-19.349,3.986-11.671.985-20.567-8.825-22.5-13.978a44.57,44.57,0,0,0-1.385-11.309l40.435-.27a35.649,35.649,0,0,0,2.8,21.571" transform="translate(-732.804 -522.175)" fill="#f7a68d"/><path d="M878.458,189.114c1.078,30.068-21.285,53.177-37.644,53.177-14.912,0-39.092-22.919-38.834-53.177.264-30.979,14.287-55.9,37.644-55.9s37.726,24.989,38.834,55.9" transform="translate(-656.705 -109.081)" fill="#ffc1ae"/><path d="M844.3,136.2s-10.4,19.889-51.209,35.512c0,0-9.1-51.768,39.478-54.918s39.077,56.251,39.077,56.251S855.256,170.682,844.3,136.2" transform="translate(-648.871 -95.542)" fill="#bb6c65"/><path d="M1203.551,410.648c-1.546,6.2-5.816,10.481-9.538,9.553s-5.487-6.708-3.941-12.912,5.816-10.481,9.538-9.553,5.487,6.708,3.941,12.912" transform="translate(-974.04 -325.586)" fill="#ffc1ae"/><path d="M752.014,410.648c1.546,6.2,5.816,10.481,9.538,9.553s5.487-6.708,3.941-12.912-5.816-10.481-9.538-9.553-5.487,6.708-3.941,12.912" transform="translate(-615.333 -325.586)" fill="#ffc1ae"/><path d="M1074.988,36.027a.454.454,0,0,1-.417-.633,13.191,13.191,0,0,0,.778-5.111,16.961,16.961,0,0,0-5.052-11.226.454.454,0,0,1,.658-.625,17.839,17.839,0,0,1,5.3,11.869,15.655,15.655,0,0,1-.195,2.973c1.649-1.822,4.919-4.414,11.01-6.1a.454.454,0,1,1,.242.875c-9.562,2.645-11.889,7.656-11.911,7.706a.455.455,0,0,1-.415.27" transform="translate(-876.318 -14.979)" fill="#bb6c65"/><path d="M1149.865,249.6a.454.454,0,0,1-.384-.7,131.575,131.575,0,0,0,10.967-23.133,79.579,79.579,0,0,0,4.7-20.954c.533-7.87-.728-14.632-3.749-20.1-3.182-5.757-7.886-11.53-12.436-17.112-8.37-10.271-16.277-19.973-13.644-28.242,7.362-23.12,6.9-38.689-1.371-46.275-3.573-3.277-10.658-6.736-24.121-4.606A73.182,73.182,0,0,0,1095,92.539a.454.454,0,0,1-.349-.838,74.149,74.149,0,0,1,15.022-4.114,44.529,44.529,0,0,1,13.091-.334,21.521,21.521,0,0,1,11.8,5.164c8.556,7.846,9.1,23.733,1.623,47.22-2.484,7.8,5.272,17.317,13.483,27.393,4.575,5.613,9.305,11.418,12.527,17.246,3.107,5.623,4.406,12.556,3.859,20.607a80.5,80.5,0,0,1-4.757,21.2,132.526,132.526,0,0,1-11.048,23.3.454.454,0,0,1-.385.212" transform="translate(-896.13 -71.171)" fill="#bb6c65"/><path d="M538.721,184.149a.454.454,0,0,1-.388-.688c.113-.188,11.265-18.911,5.29-28.865-11.141-18.562-15.718-32-14.405-42.294,1.172-9.188,6.786-14.5,12.731-20.121,6.163-5.829,12.535-11.856,13.744-22.713a64.631,64.631,0,0,0-.445-15.75c-.363-3.135-.738-6.378-.843-10.169-.365-13.209,2.775-23.737,9.333-31.291C569.3,5.852,577.276,1.772,586.809.459a54.7,54.7,0,0,1,28.906,4.187c8.96,3.99,15.007,9.893,16.591,16.2a.454.454,0,1,1-.88.221c-1.516-6.031-7.377-11.713-16.08-15.588a53.761,53.761,0,0,0-28.412-4.117c-9.312,1.283-17.1,5.258-22.51,11.494-6.4,7.377-9.469,17.7-9.111,30.671.1,3.752.476,6.973.837,10.09a65.377,65.377,0,0,1,.445,15.955c-1.246,11.187-7.741,17.331-14.022,23.272-5.823,5.508-11.323,10.71-12.454,19.576-.609,4.776.1,10.2,2.163,16.594,2.319,7.178,6.284,15.394,12.12,25.118,2.638,4.4,2.542,10.759-.286,18.914a64.952,64.952,0,0,1-5.006,10.887.454.454,0,0,1-.389.22" transform="translate(-433.174 -0.003)" fill="#bb6c65"/><path d="M965.8,597.459c-8.712,13-20.586,12.333-28.567,0,8.242,2.475,20.325,2.475,28.567,0" transform="translate(-767.46 -489.234)" fill="#ff6e6e"/><path d="M963.6,600.372a31.7,31.7,0,0,0,2.2-2.913c-8.242,2.475-20.325,2.475-28.567,0a30.042,30.042,0,0,0,2.121,2.9,34.582,34.582,0,0,0,24.25.018" transform="translate(-767.46 -489.234)" fill="#fff"/><path d="M989.139,469.648a6.028,6.028,0,0,1-1.068-.1,2.752,2.752,0,0,1-2.045-1.467c-.355-.731-.551-2.031.535-4.073a35.015,35.015,0,0,0,3.633-14.037.357.357,0,0,1,.368-.358.363.363,0,0,1,.358.368,35.8,35.8,0,0,1-3.718,14.367c-.746,1.4-.927,2.584-.523,3.415a2.04,2.04,0,0,0,1.519,1.07,6.594,6.594,0,0,0,2.4-.066,11.841,11.841,0,0,1,4.678.067.363.363,0,1,1-.137.713,11.218,11.218,0,0,0-4.428-.063,9.747,9.747,0,0,1-1.573.16" transform="translate(-807.184 -368.172)" fill="#ea9d88"/><path d="M878.784,394.434c1.814-3.094,7.25-5.538,10.38-3.878a.594.594,0,0,1-.251,1.113c-2.382.152-7.046.739-9.87,2.989a.175.175,0,0,1-.259-.224" transform="translate(-719.578 -319.371)" fill="#bb6c65"/><path d="M912.464,438.76c0,2.465-1.37,4.463-3.06,4.463s-3.059-2-3.059-4.463,1.37-4.463,3.059-4.463,3.06,2,3.06,4.463" transform="translate(-742.166 -355.627)" fill="#804a45"/><path d="M859.514,507.253c1.114-1.238,3.352-1.042,5,.439s2.075,3.685.961,4.923-3.352,1.042-5-.439-2.076-3.685-.961-4.923" transform="translate(-703.311 -414.702)" fill="#ff9c8c"/><path d="M774.008,437.178a.363.363,0,0,1-.31-.173c-.175-.286-4.275-7.037-2.113-10.1a2.821,2.821,0,0,1,2.172-1.377,3.789,3.789,0,0,1,2.655,1.354.363.363,0,0,1-.557.466,3.083,3.083,0,0,0-2.071-1.094,2.146,2.146,0,0,0-1.605,1.071c-.965,1.366-.351,3.794.333,5.589a25.222,25.222,0,0,0,1.805,3.711.363.363,0,0,1-.309.553" transform="translate(-631.303 -348.446)" fill="#ea9d88"/><path d="M1099.935,394.434c-1.814-3.094-7.25-5.538-10.38-3.878a.594.594,0,0,0,.251,1.113c2.382.152,7.046.739,9.87,2.989a.175.175,0,0,0,.259-.224" transform="translate(-891.936 -319.371)" fill="#bb6c65"/><path d="M1081.435,438.76c0,2.465,1.37,4.463,3.06,4.463s3.059-2,3.059-4.463-1.37-4.463-3.059-4.463-3.06,2-3.06,4.463" transform="translate(-885.54 -355.627)" fill="#804a45"/><path d="M1129.512,507.253c-1.114-1.238-3.352-1.042-5,.439s-2.075,3.685-.961,4.923,3.352,1.042,5-.439,2.075-3.685.961-4.923" transform="translate(-919.522 -414.702)" fill="#ff9c8c"/><path d="M1222.511,437.177a.363.363,0,0,1-.309-.553,25.232,25.232,0,0,0,1.805-3.711c.685-1.8,1.3-4.223.333-5.589a2.144,2.144,0,0,0-1.608-1.071,3.07,3.07,0,0,0-2.068,1.094.363.363,0,1,1-.557-.466,3.785,3.785,0,0,1,2.655-1.354,2.822,2.822,0,0,1,2.172,1.377c2.162,3.062-1.937,9.813-2.113,10.1a.363.363,0,0,1-.31.173" transform="translate(-999.024 -348.445)" fill="#ea9d88"/><path d="M670.854,1026.4s-1.148-150.478,0-164.062c1.971-23.325,3.042-23.86-27.778-36.565C632.588,821.453,602,808.8,602,808.8q-29.021,15.7-58.042,0s-29.148,11.623-41.072,16.976c-26.6,11.941-28.156,25.18-27.778,36.565.452,13.624,0,164.062,0,164.062Z" transform="translate(-389.015 -662.292)" fill="#ff8e9c"/><path d="M872.539,807.389c-10.114,0-20.227-2.717-30.27-8.15a2.626,2.626,0,1,1,2.5-4.619c9.24,5,18.584,7.534,27.771,7.534s18.531-2.535,27.771-7.534a2.626,2.626,0,1,1,2.5,4.619c-10.043,5.433-20.156,8.15-30.27,8.15" transform="translate(-688.57 -650.421)" fill="#f76f7e"/><path d="M843.172,1545.094c-4.188,14.2-13.2,26.528-35.533,28.127a64.691,64.691,0,0,1-18.529-1.559c-1.46-.339-2.95-.746-4.452-1.229a49.015,49.015,0,0,1-9.638-4.245,40.991,40.991,0,0,1-19.065-24.655l-39.872-46.041,29.66-21.5a8.718,8.718,0,0,0,2.122,5.926,7.366,7.366,0,0,0,.728.667c5.416,4.352,22.739,7.855,36.817,5.779,5.022-.741,14.179,1.734,24.46,6.193l0,.005q.923.4,1.823.813c25.519,11.674,36.735,33.9,31.477,51.72" transform="translate(-586.369 -1206.988)" fill="#ffefec"/><path d="M955.489,1523.173c-1.175,2.707-5.61,11.158-14.8,9.849-10.917-1.554-14.624,3.359-22.149,3.251s-9.76-9.519-18.333-10.982c-9.453-1.614-9.19-9.63-7.823-14.909,5.416,4.352,22.739,7.856,36.817,5.779,5.022-.741,14.179,1.734,24.46,6.193l0,.005q.923.4,1.823.813" transform="translate(-730.163 -1236.787)" fill="#a6605a"/><path d="M854.506,1713.239c-6.918-11.978-23.758-12.169-31.17-14.546s-69.818-15.442-69.818-15.442l-13.588,28.411s69.094,6.427,77.162,7.6,19.694,6.067,21.911,13.549,8.7-2.017,11.633-3.09c2.712-.993.353-7.882-.882-10.943,1.461,2.753,4.929,8.934,6.5,8.731,4.3-.557,3.546-5.106-1.746-14.268" transform="translate(-605.897 -1378.341)" fill="#ffc1ae"/><path d="M285.092,2164.885s-33.85-5.953-36.392,18.5c-2.56,24.626,29.5,25.681,29.5,25.681Z" transform="translate(-203.531 -1772.208)" fill="#fff"/><path d="M370.038,2174.4s-54.637-7.443-57.637-7.8c-11.957-1.42-30.254,2.731-30.493,18.85s11.46,23.46,19.183,24.8c18.556,3.208,58.145-4.533,74.8-8.9s-5.852-26.942-5.852-26.942" transform="translate(-230.84 -1773.92)" fill="#c594c7"/><path d="M780.332,2183.093s-11.658,4.829-20.292,5.024c-3.908,10.013-1.51,18.914,5.852,26.942l42.784-12.669Z" transform="translate(-620.843 -1787.64)" fill="#ffc1ae"/><path d="M486.436,2251.774a.487.487,0,0,0,.4-.293c1.326-3.106,1.985-7.4,1.96-12.746a62.269,62.269,0,0,0-.433-7.108.493.493,0,0,0-.547-.417.486.486,0,0,0-.418.547c.016.121,1.587,12.21-1.457,19.344a.486.486,0,0,0,.491.675" transform="translate(-397.888 -1827.037)" fill="#fff"/><path d="M532.032,2252.567a.487.487,0,0,0,.4-.293c1.326-3.106,1.985-7.4,1.96-12.746a62.278,62.278,0,0,0-.433-7.108.493.493,0,0,0-.547-.417.486.486,0,0,0-.418.547c.016.121,1.587,12.21-1.457,19.344a.486.486,0,0,0,.491.675" transform="translate(-435.224 -1827.687)" fill="#fff"/><path d="M577.411,2250.947a.486.486,0,0,0,.4-.293c1.326-3.107,1.985-7.4,1.96-12.747a62.271,62.271,0,0,0-.433-7.108.493.493,0,0,0-.547-.417.487.487,0,0,0-.418.546c.016.121,1.587,12.21-1.457,19.344a.485.485,0,0,0,.491.675" transform="translate(-472.383 -1826.36)" fill="#fff"/><path d="M628.406,2250.947a.485.485,0,0,0,.4-.293c1.326-3.107,1.985-7.4,1.96-12.747a62.245,62.245,0,0,0-.433-7.108.493.493,0,0,0-.547-.417.487.487,0,0,0-.418.546c.016.121,1.587,12.21-1.457,19.344a.485.485,0,0,0,.491.675" transform="translate(-514.141 -1826.36)" fill="#fff"/><path d="M1149.322,1725.1c-3.785,1.27-13.591,4.331-14.566,4.623l-52.8-22.541.844-.535,15.413-9.775c24.52-15.55,68.631-43.522,73.429-46.552,10.283-6.494,47.019-46.2,76.245-20.935,23.588,20.394-7.981,65.312-98.567,95.715" transform="translate(-885.968 -1327.414)" fill="#595687"/><path d="M1822.953,2128.541s33.178-8.972,37.908,15.153c4.764,24.3-27.074,28.229-27.074,28.229Z" transform="translate(-1492.737 -1741.633)" fill="#fff"/><path d="M1464,2145.117s53.747-12.326,56.7-12.95c11.781-2.489,30.376,0,32.064,16.032s-9.3,24.4-16.876,26.42c-18.193,4.863-58.317.714-75.3-2.142s3.406-27.359,3.406-27.359" transform="translate(-1190.49 -1745.259)" fill="#c594c7"/><path d="M1364.054,2189.865s12.045,3.761,20.661,3.179c4.792,9.62,3.2,18.7-3.406,27.359l-24.294-4.087Z" transform="translate(-1111.201 -1793.186)" fill="#ffc1ae"/><path d="M1783.455,2223.63a.487.487,0,0,1-.429-.256c-1.6-2.975-2.642-7.187-3.1-12.519a62.273,62.273,0,0,1-.208-7.118.493.493,0,0,1,.507-.465.486.486,0,0,1,.465.507c-.005.122-.483,12.3,3.191,19.134a.486.486,0,0,1-.428.717" transform="translate(-1457.314 -1804.165)" fill="#fff"/><path d="M1738.114,2228.52a.486.486,0,0,1-.429-.256c-1.6-2.975-2.642-7.187-3.1-12.518a62.312,62.312,0,0,1-.208-7.119.493.493,0,0,1,.507-.465.487.487,0,0,1,.465.507c-.005.122-.483,12.3,3.191,19.134a.486.486,0,0,1-.428.717" transform="translate(-1420.187 -1808.168)" fill="#fff"/><path d="M1692.774,2230.988a.486.486,0,0,1-.429-.256c-1.6-2.975-2.643-7.187-3.1-12.519a62.21,62.21,0,0,1-.208-7.119.493.493,0,0,1,.507-.465.487.487,0,0,1,.465.507c-.005.122-.483,12.3,3.191,19.134a.486.486,0,0,1-.428.717" transform="translate(-1383.06 -1810.189)" fill="#fff"/><path d="M1642.838,2233.62a.486.486,0,0,1-.429-.256c-1.6-2.975-2.643-7.187-3.1-12.519a62.191,62.191,0,0,1-.208-7.118.493.493,0,0,1,.507-.465.486.486,0,0,1,.465.507c-.005.122-.483,12.3,3.191,19.134a.486.486,0,0,1-.428.717" transform="translate(-1342.169 -1812.344)" fill="#fff"/><path d="M420.5,1772.835c-5.533-7.559-54.318-14.4-62.733-18.97s-107.7-61.776-126.824-66.63-41.679,24.836-27.406,44.534,33.686,36.31,85.643,49.843,111.851,35.479,121.613,24.952c3.4-3.665,12.442-29.993,9.707-33.729" transform="translate(-162.98 -1381.173)" fill="#646194"/><path d="M445.749,951.839c6.529-2.762,15.159-.686,20.328,17.51,6.474,22.785,6.106,92.871,6.106,92.871s25.838,12.267,25.316,21.663c-.218,3.923-6.787,7.238-9.924,13.241-4.375,8.373-5.726,23.36-12.414,22.144-11.484-2.088-41.738-16.288-47.086-31.732-5.942-17.157-10.048-123.97,17.673-135.7" transform="translate(-346.982 -778.601)" fill="#ff7080"/><path d="M687.665,1638.67c-3.987,5-13.7,9.529-16.184,22.142s.616,14.175-6.475,16.292-21.986-.5-24.269-5.856c-4.453-10.451,10.007-34.287,31.829-40.713,14.729-4.337,17.609,4.987,15.1,8.134" transform="translate(-524.011 -1334.25)" fill="#e35b6a"/><path d="M883.134,1311.6l-10.221-12s-2.853,28.791,17.2,34.337c.956.264,2,.614,3.111,1.038a17.687,17.687,0,0,1-1.163-2.2c-3.595-7.7-3.134-14.806-8.924-21.171" transform="translate(-714.676 -1064.184)" fill="#f7b39e"/><path d="M810.109,1303.818s3.976-14.374-.6-21.989a3.9,3.9,0,0,0-4.087-1.809c-3.647.708-10.448,3.205-14,12.014Z" transform="translate(-648.056 -1048.093)" fill="#ffefec"/><path d="M731.232,1635.557c-11.239-2.392-18.892,1.786-24.177,9.753a60.579,60.579,0,0,0-8.24,18.8c-.485,1.841-.417,4.05-1.163,5.568-2.639,5.372-11.357,7.224-13.29-.842-.648-2.7.446-3.458.867-5.5a163.319,163.319,0,0,0,2.08-17.136c2.635-32,31.3-27.138,34.444-26.774,8.127.941,9.478,16.126,9.478,16.126" transform="translate(-560.231 -1325.696)" fill="#ffefec"/><path d="M714.354,1897.625a.181.181,0,0,1-.193-.069,2.44,2.44,0,0,1,.139-2.788.181.181,0,1,1,.3.209,2.046,2.046,0,0,0-.142,2.367.182.182,0,0,1-.1.282" transform="translate(-584.493 -1551.481)" fill="#a6605a"/><path d="M698.865,1893.847a.181.181,0,0,1-.193-.069,2.44,2.44,0,0,1,.139-2.788.182.182,0,1,1,.3.209,2.045,2.045,0,0,0-.142,2.367.182.182,0,0,1-.041.253.18.18,0,0,1-.06.029" transform="translate(-571.81 -1548.386)" fill="#a6605a"/><path d="M730.961,1899a.181.181,0,0,1-.2-.08,2.472,2.472,0,0,1,.321-2.7.181.181,0,1,1,.3.209,2.125,2.125,0,0,0-.308,2.3.182.182,0,0,1-.109.27" transform="translate(-598.18 -1552.671)" fill="#a6605a"/><path d="M616.675,1604.823c-7.5-1.127-12.648,4.473-17.775,9.6-5.654,5.66-6.672,12.857-8.24,18.8-.485,1.841-.417,4.05-1.163,5.568-2.639,5.372-11.357,7.224-13.29-.842-.648-2.7.446-3.458.867-5.5.872-4.227,1.187-10.806,2.08-17.136,2.946-20.879,14.371-27.768,18.954-28.279a86.987,86.987,0,0,1,12.389-.172c8.127.941,6.177,17.952,6.177,17.952" transform="translate(-471.667 -1299.287)" fill="#ffefec"/><path d="M605.737,1871.359a.181.181,0,0,1-.194-.066,2.439,2.439,0,0,1,.09-2.79.181.181,0,1,1,.3.2,2.046,2.046,0,0,0-.1,2.369.182.182,0,0,1-.037.254.178.178,0,0,1-.06.03" transform="translate(-495.531 -1529.971)" fill="#a6605a"/><path d="M590.182,1867.854a.181.181,0,0,1-.194-.065,2.44,2.44,0,0,1,.09-2.79.181.181,0,0,1,.3.2,2.045,2.045,0,0,0-.1,2.369.182.182,0,0,1-.037.254.185.185,0,0,1-.06.03" transform="translate(-482.794 -1527.101)" fill="#a6605a"/><path d="M622.375,1872.438a.181.181,0,0,1-.2-.076,2.471,2.471,0,0,1,.273-2.7.181.181,0,1,1,.3.2,2.124,2.124,0,0,0-.268,2.305.182.182,0,0,1-.056.25.177.177,0,0,1-.049.022" transform="translate(-509.247 -1530.916)" fill="#a6605a"/><path d="M680.482,1413.12c2.354,10.522-4.006,21.8-17.8,26-13.613,4.151-27.544-2.259-29.9-12.781s7-21.571,20.886-24.678,24.463.932,26.817,11.454" transform="translate(-517.859 -1145.246)" fill="#c594c7"/><path d="M649.307,1354.452c1.241,8.1-2.165,16.117-8.7,21.5-3.469,2.86-14.422,12.87-33.463,5.126-7.844-3.19-13.493-9.813-14.734-17.914-1.684-11,5.4-21.593,16.615-26.413a33.09,33.09,0,0,1,8.1-2.311,31.949,31.949,0,0,1,17.426,2.09c7.791,3.336,13.514,9.81,14.756,17.918" transform="translate(-484.897 -1092.399)" fill="#ffefec"/><path d="M658.963,1528.48a.182.182,0,0,1-.141-.321,13.645,13.645,0,0,1,10.9-2.856.181.181,0,0,1-.085.353,13.273,13.273,0,0,0-10.591,2.787.181.181,0,0,1-.086.038" transform="translate(-539.425 -1248.839)" fill="#a6605a"/><path d="M659.059,1543.4a.182.182,0,0,1-.169-.294,15.278,15.278,0,0,1,11.673-5.62.182.182,0,0,1-.018.363,14.9,14.9,0,0,0-11.373,5.486.182.182,0,0,1-.113.065" transform="translate(-539.503 -1258.976)" fill="#a6605a"/><path d="M807.817,1507.371a.183.183,0,0,1-.093-.01,13.275,13.275,0,0,0-10.939.511.181.181,0,1,1-.187-.311,13.647,13.647,0,0,1,11.258-.539.182.182,0,0,1-.039.349" transform="translate(-652.227 -1233.252)" fill="#a6605a"/><path d="M808.579,1525.588a.181.181,0,0,1-.128-.028,14.9,14.9,0,0,0-12.494-1.83.181.181,0,0,1-.126-.34,15.276,15.276,0,0,1,12.82,1.868.181.181,0,0,1-.073.331" transform="translate(-651.575 -1246.904)" fill="#a6605a"/><path d="M689.684,1477.852c.555,1.247.314,2.565-.539,2.945s-1.995-.323-2.55-1.57-.314-2.565.539-2.945,1.995.323,2.55,1.57" transform="translate(-561.979 -1208.78)" fill="#7a4742"/><path d="M669.137,1446.549c-.4-.824-2.3-.722-4.24.227s-3.182,2.387-2.778,3.21,1.682-.868,3.62-1.817,3.8-.8,3.4-1.62" transform="translate(-542.119 -1184.061)" fill="#a6605a"/><path d="M798.336,1460.843c-.156,1.356.468,2.542,1.4,2.649s1.807-.905,1.963-2.261-.468-2.542-1.4-2.649-1.807.905-1.963,2.261" transform="translate(-653.703 -1194.363)" fill="#7a4742"/><path d="M791.15,1430.06c.138-.907,1.98-1.378,4.113-1.052s3.75,1.325,3.612,2.232-1.865-.324-4-.65-3.865.378-3.727-.529" transform="translate(-647.832 -1170.068)" fill="#a6605a"/><path d="M747.4,1536.5a6.639,6.639,0,0,1-1.559,1.71,8.024,8.024,0,0,1-5.953.919,9.471,9.471,0,0,1-2.234-1.046,6.231,6.231,0,0,0,4.072-4.95c.976,1.5,2.433,3.519,5.673,3.367" transform="translate(-604.03 -1255.415)" fill="#ffa1a1"/><path d="M755.936,1556a8.023,8.023,0,0,1-5.953.919,3.68,3.68,0,0,1,5.953-.919" transform="translate(-614.128 -1273.208)" fill="#f56565"/><path d="M727.508,1532.294a.182.182,0,0,0-.253-.046c-2.456,1.7-4.64,2.271-6.492,1.7a6.162,6.162,0,0,1-3.514-3.364.157.157,0,0,0-.014-.022.182.182,0,0,0-.022-.035.187.187,0,0,0-.028-.022.171.171,0,0,0-.027-.019.176.176,0,0,0-.046-.013.193.193,0,0,0-.019-.005h0a.212.212,0,0,0-.037,0,.209.209,0,0,0-.037.007h0c-.005,0-.009.007-.014.009a.183.183,0,0,0-.043.028.167.167,0,0,0-.018.023.173.173,0,0,0-.022.032.185.185,0,0,0-.01.038.194.194,0,0,0-.007.026,6.16,6.16,0,0,1-2.346,4.261c-1.6,1.1-3.853,1.2-6.7.318a.182.182,0,0,0-.108.347,10.618,10.618,0,0,0,4.7.526,5.528,5.528,0,0,0,2.324-.893,6.184,6.184,0,0,0,2.413-3.928,6.184,6.184,0,0,0,3.479,3.026,5.523,5.523,0,0,0,2.485.156,10.618,10.618,0,0,0,4.324-1.907.182.182,0,0,0,.046-.253" transform="translate(-579.434 -1253.238)" fill="#a6605a"/><path d="M746.859,1512.739l1.1-1.941a1.151,1.151,0,0,0-1.176-1.7l-3.1.475a1.151,1.151,0,0,0-.612,1.978l1.628,1.523a1.391,1.391,0,0,0,2.162-.331" transform="translate(-608.168 -1235.72)" fill="#7a4742"/><path d="M824.255,1323.282a1.308,1.308,0,0,0,2.2-.586c.95-3.677,2.236-10.545-.932-11.976-3.213-1.452-7.636,3.543-9.757,6.3a1.307,1.307,0,0,0,.749,2.067,15.974,15.974,0,0,1,7.743,4.2" transform="translate(-667.771 -1073.08)" fill="#ffd4cc"/><path d="M705.527,1342.785c-1.42,2.831-3.254.859-11.492,7.533-7.22,5.848-9.059-3.869-14.958-4.144-8.376-.39-2.631-9.155-2.608-9.418a33.092,33.092,0,0,1,8.1-2.311,31.95,31.95,0,0,1,17.426,2.09c.108.091,5.564,2.2,3.534,6.25" transform="translate(-552.339 -1092.399)" fill="#a6605a"/><path d="M567.109,1347.353s-8.4-11.848-6.3-20.486a3.9,3.9,0,0,1,3.358-2.95c3.691-.416,10.928-.069,16.955,7.272Z" transform="translate(-458.944 -1084.004)" fill="#ffefec"/><path d="M588.455,1363.287a1.308,1.308,0,0,1-2.272.1c-2.007-3.224-5.29-9.392-2.7-11.706,2.631-2.347,8.346,1.095,11.195,3.087a1.307,1.307,0,0,1-.1,2.2,15.975,15.975,0,0,0-6.132,6.323" transform="translate(-477.008 -1106.186)" fill="#ffd4cc"/><path d="M1085.814,1920.372s-7.9,17.735-21.255,16.932c-3.371-.2-6.391-1.381-9.842-2.559,8.255-.994,17.549-4.919,31.1-14.373" transform="translate(-863.662 -1572.51)" fill="#f0b4aa"/><path d="M916.121,1928.378c-13.62,21.449-70.5,34.039-81.137,11.7-5.116-10.745,3.347-14.623,10.355-13.94h0l.015,0a14.683,14.683,0,0,1,2.7.516,11.169,11.169,0,0,1,1.589.592c11.062,5.13,20,7.139,27.589,6.841,11.213-.434,19.495-5.889,27.367-13.718Z" transform="translate(-682.449 -1572.51)" fill="#ffefec"/><path d="M930.656,1960.156c-.33,1.781-.19,5.283-4.344,4.778-6.518-.794-8.262,5.621-13.29,1.179-3.393-3-3.09-6.25-10.053-7.311-5.362-.818-4.208-6.6-4.208-6.6a17.393,17.393,0,0,1,2.714.509,12.03,12.03,0,0,1,1.592.6c11.062,5.131,20,7.139,27.589,6.841" transform="translate(-735.871 -1598.575)" fill="#a6605a"/><path d="M798.91,1282.3s-54.695-21.85-59.488-27.911-14.586-21.444-24.105-25.374c-9.98-4.12-18.827-4.806-25.092-3.806-5.442.869-20.466,7.334-18.789,11.524s9.99-2.842,12.645-3.671c0,0-13.124,6.87-9.746,10.707,2.856,3.243,7.5-3.965,14.251-7.42,0,0-12.392,7.977-6.674,10.547,3.532,1.588,8.848-7.949,15.792-10.281,0,0-7.411,4.31-4.163,6.824s8.052-5.951,15.535-3.334c10.311,3.606,11.946,29.36,19.173,33.62,21.972,12.954,73.978,47.061,73.978,47.061,3.777-13.6,3.347-26.537-3.317-38.486" transform="translate(-549.703 -1002.937)" fill="#ffc1ae"/><path d="M1399.789,941.921c-6.55.739-16.289,2.732-17.136,20.839-.857,18.332,1.311,67.362,4.8,79.574s2.668,53.654,2.668,53.654,10.614,7.4,22.52,5.366c15.671-2.677,20.16-28.775,21.169-64.253,1.251-44.015-10.554-97.828-34.021-95.18" transform="translate(-1132.041 -771.222)" fill="#ff7080"/><path d="M1337.919,1498.076c1.808,6.115,5.031,9.534,2.985,22.248s-7.138,16.814-2.607,19.693c14.618,9.285,17.24,10.8,23.524,4.079s12.6-38.6-6.138-49.834c-6.572-3.938-18.9-.036-17.764,3.815" transform="translate(-1094.38 -1222.242)" fill="#e35b6a"/></g></g></g></svg>