<svg xmlns="http://www.w3.org/2000/svg" xmlns:xlink="http://www.w3.org/1999/xlink" width="491" height="478" viewBox="0 0 491 478"><defs><filter id="a" x="180.068" y="27.303" width="130.864" height="67.498" filterUnits="userSpaceOnUse"><feOffset dy="3" input="SourceAlpha"/><feGaussianBlur stdDeviation="3" result="b"/><feFlood flood-color="#f0f0f0" flood-opacity="0.161"/><feComposite operator="in" in2="b"/><feComposite in="SourceGraphic"/></filter><clipPath id="c"><rect width="79.317" height="79.307" fill="none"/></clipPath></defs><g transform="translate(-456 -1966)"><rect width="491" height="478" transform="translate(456 1966)" fill="#fa8e4c"/><g transform="translate(-15.813 -12.438)"><rect width="266.501" height="349.52" transform="translate(584.063 2049.739)" fill="#fff"/><path d="M9.643,138.057H266.5V480.116H9.643ZM0,488.668H276.143V129.505H0Z" transform="translate(579.241 1915.413)" fill="#fff" stroke="#f0f0f0" stroke-width="1"/><path d="M214.791,631.39H120.477a3.18,3.18,0,0,1-3.18-3.18v-2.225a3.18,3.18,0,0,1,3.18-3.18h94.314a3.18,3.18,0,0,1,3.18,3.18v2.225a3.18,3.18,0,0,1-3.18,3.18" transform="translate(491.54 1529.804)" fill="#fa8e4c"/><path d="M169.425,718.536H120.477a3.18,3.18,0,0,1-3.18-3.18v-2.225a3.18,3.18,0,0,1,3.18-3.18h48.948a3.18,3.18,0,0,1,3.18,3.18v2.225a3.18,3.18,0,0,1-3.18,3.18" transform="translate(491.54 1462.299)" fill="#fa8e4c"/><path d="M395.37,718.536H361.853a3.18,3.18,0,0,1-3.18-3.18v-2.225a3.18,3.18,0,0,1,3.18-3.18H395.37a3.18,3.18,0,0,1,3.18,3.18v2.225a3.18,3.18,0,0,1-3.18,3.18" transform="translate(311.066 1462.299)" fill="#fa8e4c"/><path d="M214.791,803.757H120.477a3.18,3.18,0,0,1-3.18-3.18v-2.225a3.18,3.18,0,0,1,3.18-3.18h94.314a3.18,3.18,0,0,1,3.18,3.18v2.225a3.18,3.18,0,0,1-3.18,3.18" transform="translate(491.54 1396.285)" fill="#fa8e4c"/><path d="M153.994,890.9H120.477a3.18,3.18,0,0,1-3.18-3.18V885.5a3.18,3.18,0,0,1,3.18-3.18h33.517a3.18,3.18,0,0,1,3.18,3.18v2.225a3.18,3.18,0,0,1-3.18,3.18" transform="translate(491.54 1328.779)" fill="#fa8e4c"/><path d="M214.791,981.9H120.477a3.18,3.18,0,0,1-3.18-3.18V976.5a3.18,3.18,0,0,1,3.18-3.18h94.314a3.18,3.18,0,0,1,3.18,3.18v2.225a3.18,3.18,0,0,1-3.18,3.18" transform="translate(491.54 1258.288)" fill="#fa8e4c"/><path d="M201.338,1069.052H120.477a3.18,3.18,0,0,1-3.18-3.18v-2.225a3.18,3.18,0,0,1,3.18-3.18h80.861a3.18,3.18,0,0,1,3.18,3.18v2.225a3.18,3.18,0,0,1-3.18,3.18" transform="translate(491.54 1190.782)" fill="#fa8e4c"/><path d="M330.373,1204.157H121.59a4.292,4.292,0,1,1,0-8.585H330.373a4.292,4.292,0,1,1,0,8.585" transform="translate(491.539 1086.127)" fill="#fa8e4c"/><path d="M301.326,1291.3H121.589a4.292,4.292,0,1,1,0-8.584H301.326a4.292,4.292,0,1,1,0,8.584" transform="translate(491.54 1018.621)" fill="#fa8e4c"/><path d="M330.373,1389.856H121.59a4.292,4.292,0,1,1,0-8.585H330.373a4.292,4.292,0,1,1,0,8.585" transform="translate(491.539 942.28)" fill="#fa8e4c"/><path d="M301.326,1477H121.589a4.293,4.293,0,0,1,0-8.585H301.326a4.293,4.293,0,0,1,0,8.585" transform="translate(491.54 868.525)" fill="#fa8e4c"/><g transform="matrix(1, 0, 0, 1, 471.81, 1978.44)" filter="url(#a)"><path d="M429.028,25.352H420.6C418.031,10.92,415.232,0,381.48,0c-30.131,0-35.474,10.923-38.045,25.355h-9.5a8.606,8.606,0,0,0-8.384,8.813v5.517a8.606,8.606,0,0,0,8.384,8.813h95.1a8.605,8.605,0,0,0,8.384-8.813V34.165a8.606,8.606,0,0,0-8.384-8.813" transform="translate(-135.98 33.81)" fill="#fff" stroke="#f0f0f0" stroke-width="1"/></g><rect width="100.779" height="64.494" transform="translate(608.837 2069.689)" fill="#fa8e4c"/><rect width="100.779" height="18.137" transform="translate(725.426 2069.689)" fill="#fa8e4c"/><path d="M178.209,296.335v16.988H167.888V269h17.049q7.7,0,12.208,3.562a11.748,11.748,0,0,1,4.506,9.743,9.7,9.7,0,0,1-1.812,5.906,12.846,12.846,0,0,1-5.343,4.019,9.921,9.921,0,0,1,5.861,3.851,11.921,11.921,0,0,1,1.781,6.713v2.8a17.649,17.649,0,0,0,.517,3.958,5.237,5.237,0,0,0,1.8,3.167v.609H193.857a5.066,5.066,0,0,1-1.6-3.349,28.563,28.563,0,0,1-.38-4.445V302.85a6.556,6.556,0,0,0-1.674-4.841,6.645,6.645,0,0,0-4.9-1.674Zm0-7.916H185A7.078,7.078,0,0,0,189.747,287a5.071,5.071,0,0,0,1.644-4.064,5.849,5.849,0,0,0-1.689-4.369,6.514,6.514,0,0,0-4.765-1.659h-6.728Z" transform="translate(453.714 1803.214)" fill="#fff"/><path d="M338.26,283.943l7.307-14.948H357.44l-12.7,21.981,13.67,22.346H345.932l-7.55-15.253-7.55,15.253H318.958l13.031-22.346-12.7-21.981h11.782Z" transform="translate(340.761 1803.215)" fill="#fff"/><rect width="37.264" height="35.654" transform="translate(757.183 2104.528)" fill="#f7f8fb"/><path d="M740.078,446.014H700.339V407.885h39.739Zm-37.264-2.474H737.6v-33.18h-34.79Z" transform="translate(55.607 1695.473)" fill="#fa8e4c"/><rect width="37.264" height="35.654" transform="translate(757.183 2164.934)" fill="#f7f8fb"/><path d="M740.078,716.209H700.339V678.081h39.739Zm-37.264-2.474H737.6v-33.18h-34.79Z" transform="translate(55.607 1485.636)" fill="#fa8e4c"/><rect width="37.264" height="35.654" transform="translate(757.183 2225.34)" fill="#f7f8fb"/><path d="M740.078,986.407H700.339V948.278h39.739Zm-37.264-2.474H737.6v-33.18h-34.79Z" transform="translate(55.607 1275.797)" fill="#fa8e4c"/><path d="M718.316,633.514s17.286-26.191,31.167-32.738c6.687-3.155,5.231,2.622-1.776,8.765-14.2,12.45-27.558,49.379-32.01,37.069-3.652-10.1-17.678-15.384-12.824-20.31s15.444,7.215,15.444,7.215" transform="translate(54.467 1545.868)" fill="#fa8e4c"/><path d="M678.415,1421.909q-.462-.457-.915-.922-.785,1.669-1.411,3.405c.343.242.7.465,1.051.671q.57-1.611,1.275-3.154" transform="translate(73.738 903.988)" fill="#c43356"/><path d="M686.435,1401.951a38.581,38.581,0,0,1,2-3.357c-.136-.543-.253-1.092-.344-1.647a39.361,39.361,0,0,0-2.584,4.151c.314.279.622.565.928.853" transform="translate(66.696 921.962)" fill="#c43356"/><path d="M668.053,1488.475c-.4.091-.8.185-1.191.286v.071a11.577,11.577,0,0,0,1.2.2c0-.185-.006-.37-.007-.555" transform="translate(80.637 853.528)" fill="#c43356"/><path d="M972.645,1519.5q.624-.032,1.247-.066c.045-.205.089-.41.13-.615q-.6-.068-1.2-.115-.082.4-.174.8" transform="translate(-147.993 830.923)" fill="#c43356"/><path d="M960.377,1418.245a9.747,9.747,0,0,1,1.368.188,39.149,39.149,0,0,0-2.276-5.049q-.51.335-1.034.651a38.338,38.338,0,0,1,1.942,4.21" transform="translate(-137.369 909.672)" fill="#c43356"/><path d="M671.815,1521.235l-1.165.317q.3,1.329.687,2.63l1.252-.037q-.443-1.432-.774-2.911" transform="translate(77.805 829.034)" fill="#c43356"/><path d="M967.968,1437.626q.151.43.291.864.536-.277,1.061-.572a7.037,7.037,0,0,0-1.352-.292" transform="translate(-144.496 891.547)" fill="#c43356"/><path d="M666.879,1470.082c.4-.1.8-.2,1.2-.29a38.515,38.515,0,0,1,.4-4.587q-.6-.025-1.206-.045a40.17,40.17,0,0,0-.4,4.922" transform="translate(80.624 870.96)" fill="#c43356"/><path d="M684.173,1558.445l1.261-.242q-.417-.736-.8-1.492-.576.212-1.151.427c.222.44.454.875.692,1.307" transform="translate(68.211 802.509)" fill="#c43356"/><path d="M668.2,1494.816c-.4-.04-.806-.1-1.2-.17a39.955,39.955,0,0,0,.677,5.833l1.162-.326a38.351,38.351,0,0,1-.637-5.337" transform="translate(80.539 848.914)" fill="#c43356"/><path d="M894.479,1349.973l.951-.822a39.3,39.3,0,0,0-5.359-3.118q-.315.525-.651,1.039a38.492,38.492,0,0,1,5.058,2.9" transform="translate(-85.768 969.965)" fill="#c43356"/><path d="M689.861,1566.759q-.637.119-1.273.244a39.607,39.607,0,0,0,3.027,4.4q.572-.258,1.147-.512a38.657,38.657,0,0,1-2.9-4.135" transform="translate(64.393 794.996)" fill="#c43356"/><path d="M709.2,1592.82c-.492.077-.984.142-1.478.192q.633.695,1.3,1.365a40.343,40.343,0,0,0,3.15,2.833l1.064-.7a38.826,38.826,0,0,1-4.037-3.686" transform="translate(50.086 775.51)" fill="#c43356"/><path d="M738,1356.75q-.223-.58-.463-1.152c-.116.075-.233.15-.348.227-.062.522-.107,1.045-.141,1.569q.471-.328.952-.643" transform="translate(28.162 962.736)" fill="#c43356"/><path d="M911.093,1603.584a38.684,38.684,0,0,1-4.063,3.045q.388.474.766.955a39.816,39.816,0,0,0,4.3-3.263l-1-.737" transform="translate(-98.934 767.462)" fill="#c43356"/><path d="M730.966,1610.926q-.545.353-1.087.71a39.436,39.436,0,0,0,5.569,3.5c.125-.39.261-.778.4-1.164a38.587,38.587,0,0,1-4.885-3.044" transform="translate(33.52 761.973)" fill="#c43356"/><path d="M861.607,1337.017q.523-.45,1.061-.882a39.261,39.261,0,0,0-7.067-2.174c-.065.4-.143.789-.23,1.18a38.116,38.116,0,0,1,6.236,1.875" transform="translate(-60.309 979.385)" fill="#c43356"/><path d="M950.374,1559.976q.542.287,1.088.564a39.286,39.286,0,0,0,2.805-4.9q-.659-.043-1.318-.08a38.465,38.465,0,0,1-2.576,4.416" transform="translate(-131.342 803.37)" fill="#c43356"/><path d="M917.662,1365.047q.421-.438.832-.885-1.359-1.226-2.81-2.312-.4.462-.8.922,1.441,1.073,2.776,2.275" transform="translate(-104.808 957.779)" fill="#c43356"/><path d="M799.74,1333.4c-.048-.4-.107-.793-.181-1.186l-.33.046q-.233.636-.426,1.285.467-.078.937-.145" transform="translate(-18.014 980.876)" fill="#c43356"/><path d="M935.832,1383.108q.6-.176,1.2-.361a39.906,39.906,0,0,0-6.126-7.883q-.313-.313-.633-.618l-.8.909a38.726,38.726,0,0,1,6.36,7.954" transform="translate(-115.713 947.698)" fill="#c43356"/><path d="M964.148,1549.631l-1.2-.285c-.062.141-.124.282-.188.422q.65.037,1.3.08c.031-.072.062-.145.093-.217" transform="translate(-140.599 808.016)" fill="#c43356"/><path d="M847.006,1638.279q.213.574.438,1.144c.183-.028.366-.057.548-.088-.132-.385-.268-.768-.406-1.151-.193.032-.386.065-.581.1" transform="translate(-54.055 741.592)" fill="#c43356"/><path d="M857.507,1633.646a38.155,38.155,0,0,1-3.735.939c.137.382.273.763.406,1.146a39.435,39.435,0,0,0,4.026-1.036q-.346-.526-.7-1.05" transform="translate(-59.113 744.985)" fill="#c43356"/><path d="M829.915,1639.2a38.668,38.668,0,0,1-4.121.27q-.014.6-.038,1.2a40.3,40.3,0,0,0,4.6-.311c-.151-.383-.3-.768-.441-1.154" transform="translate(-38.166 740.833)" fill="#c43356"/><path d="M795.555,1637.3a38.336,38.336,0,0,1-6.869-.951q-.142.586-.272,1.172a39.879,39.879,0,0,0,7.541.99q-.2-.607-.4-1.211" transform="translate(-10.246 742.967)" fill="#c43356"/><path d="M767.6,1630.353a38.163,38.163,0,0,1-3.823-1.332c-.294.322-.6.636-.926.932a39.22,39.22,0,0,0,4.684,1.638q.037-.619.065-1.238" transform="translate(8.869 748.444)" fill="#c43356"/><path d="M873.184,1631.17q.349.519.693,1.041.345-.121.687-.247-.209-.568-.446-1.127-.464.172-.934.333" transform="translate(-73.628 747.085)" fill="#c43356"/><path d="M757.7,1625.641q-.522-.234-1.038-.482c-.141.385-.275.771-.4,1.16.158.076.317.149.476.223a10.858,10.858,0,0,0,.957-.9" transform="translate(13.791 751.331)" fill="#c43356"/><path d="M704.141,1375.335c.166.028.331.061.5.092q1.182-1.365,2.487-2.614,0-.84.024-1.679-.753.681-1.476,1.4-1.284,1.284-2.432,2.663.454.059.9.135" transform="translate(53.438 950.499)" fill="#c43356"/><path d="M885.9,1619.982a38.372,38.372,0,0,1-4.754,2.32q.239.56.453,1.128a39.2,39.2,0,0,0,5.224-2.577q-.46-.437-.923-.87" transform="translate(-79.581 755.201)" fill="#c43356"/><path d="M974.808,1476.809a38.564,38.564,0,0,1-.563,6.566c.4.035.8.075,1.2.123a40.158,40.158,0,0,0,.56-6.689q0-1.876-.173-3.723-.59.119-1.181.234c.1,1.15.16,2.313.16,3.489" transform="translate(-149.19 865.034)" fill="#c43356"/><path d="M934.208,1578.7a38.754,38.754,0,0,1-4.1,4.673q.438.419.872.843c.136-.132.272-.262.406-.4a40.2,40.2,0,0,0,4.038-4.717q-.6-.207-1.213-.4" transform="translate(-116.186 786.069)" fill="#c43356"/><path d="M966.917,1526.393a38.109,38.109,0,0,1-1.539,4.625l1.2.283a39.186,39.186,0,0,0,1.608-4.976l-1.265.068" transform="translate(-142.56 825.228)" fill="#c43356"/><path d="M674.634,1439.444q-.269-.167-.536-.349c-.048.148-.094.3-.141.445.267-.009.533-.017.8-.022l-.123-.074" transform="translate(75.332 890.449)" fill="#c43356"/><path d="M806.618,1332.373c.422-.047.845-.089,1.271-.122.069-.4.151-.812.252-1.215q-.845.057-1.682.151c.066.393.118.789.16,1.187" transform="translate(-23.737 981.79)" fill="#c43356"/><path d="M743.491,1349.934q1.036-.632,2.115-1.2.01-.695.029-1.389-1.329.67-2.608,1.443.241.568.465,1.143" transform="translate(23.69 969.059)" fill="#c43356"/><path d="M705.221,1587.383q-.183-.207-.363-.416-.584.254-1.161.508l.034.04c.5-.026.995-.071,1.49-.131" transform="translate(53.096 779.887)" fill="#c43356"/><path d="M817.389,1330.686c-.118.4-.218.8-.3,1.207.581-.026,1.164-.041,1.751-.041.146,0,.292,0,.437.005q-.151-.6-.319-1.2l-.119,0c-.484,0-.966.012-1.447.029" transform="translate(-31.683 982.091)" fill="#c43356"/><path d="M829.753,1331.967a38.409,38.409,0,0,1,4.761.5c.111-.39.232-.776.368-1.158a40,40,0,0,0-5.44-.553q.163.6.311,1.207" transform="translate(-40.922 981.973)" fill="#c43356"/><path d="M761.523,1336.858c.019.074.038.149.057.223a38.142,38.142,0,0,1,7.879-2.509q.174-.653.381-1.3a39.237,39.237,0,0,0-8.582,2.617c.093.321.18.644.264.965" transform="translate(10.057 979.854)" fill="#c43356"/><path d="M671.195,1448.186q.289-1.36.672-2.683-.634.012-1.267.034-.377,1.359-.655,2.75l1.25-.1" transform="translate(78.332 885.658)" fill="#c43356"/><path d="M676.116,1537.459l-1.268.038a39.123,39.123,0,0,0,1.659,4.169q.572-.216,1.145-.427a38.127,38.127,0,0,1-1.536-3.78" transform="translate(74.666 816.903)" fill="#c43356"/><path d="M726.4,1362.561q.613-.505,1.249-.984c.02-.527.048-1.053.09-1.578q-.822.59-1.616,1.225.144.667.277,1.337" transform="translate(36.326 959.266)" fill="#c43356"/><path d="M699.7,1391.582l-.013.016c.281.313.543.638.789.972q.31-.406.631-.8l-.151-.025c-.412-.066-.832-.12-1.256-.159" transform="translate(56.095 925.974)" fill="#c43356"/><path d="M971.616,1443.348q-.538.3-1.09.575a38.175,38.175,0,0,1,1.087,5.013l1.181-.227a39.476,39.476,0,0,0-1.178-5.361" transform="translate(-146.409 887.269)" fill="#c43356"/><path d="M817.206,1339.43a1.613,1.613,0,0,0,.021,3.226h.024a1.612,1.612,0,0,0,1.573-1.39q-.113-.541-.232-1.08a1.612,1.612,0,0,0-1.386-.755" transform="translate(-30.584 975.137)" fill="#c43356"/><path d="M954.29,1437.314c-.69.012-1.378.066-2.063.146a1.609,1.609,0,0,0,.661,2.381c.742-.324,1.481-.654,2.209-1a1.6,1.6,0,0,0-.328-1.527c-.16,0-.32,0-.479,0" transform="translate(-132.514 891.782)" fill="#c43356"/><path d="M932.916,1568.78a1.581,1.581,0,0,0-.081.272q.493.129.985.263c-.3-.176-.6-.355-.9-.535" transform="translate(-118.228 793.485)" fill="#c43356"/><path d="M786.636,1621.443a1.608,1.608,0,0,0-.115-1.25c.022.489.029.979.027,1.468a1.6,1.6,0,0,0,.088-.218" transform="translate(-8.831 755.044)" fill="#c43356"/><path d="M704,1566.118a1.613,1.613,0,1,0,2.255.338,1.613,1.613,0,0,0-2.255-.338" transform="translate(53.358 795.712)" fill="#c43356"/><path d="M703.235,1405.371a22.817,22.817,0,0,0-1.148-2.206,1.543,1.543,0,0,0-.068.2c.146.553.313,1.1.49,1.647a1.571,1.571,0,0,0,.127.1,1.609,1.609,0,0,0,.6.263" transform="translate(54.35 917.313)" fill="#c43356"/><path d="M686.041,1527.593a1.611,1.611,0,0,0-3.139.446c1.071-.034,2.142-.068,3.213-.091a1.618,1.618,0,0,0-.075-.355" transform="translate(68.644 825.104)" fill="#c43356"/><path d="M904.548,1371.458a1.612,1.612,0,0,0,1.5-2.2c-.628.716-1.255,1.433-1.874,2.158a1.619,1.619,0,0,0,.372.044" transform="translate(-96.8 952.128)" fill="#c43356"/><path d="M735.207,1597.591a1.6,1.6,0,0,0-.3,1.072l.216-.148c.673-.467,1.351-.954,2-1.475a1.612,1.612,0,0,0-1.922.551" transform="translate(29.762 772.445)" fill="#c43356"/><path d="M736.7,1370.672a1.61,1.61,0,0,0,2.223-1.565q-.127-.4-.257-.8c-.02-.031-.039-.062-.061-.091a1.612,1.612,0,0,0-1.881-.535c-.03.994-.029,1.992-.023,2.99" transform="translate(28.424 953.347)" fill="#c43356"/><path d="M819.037,1624.516a1.611,1.611,0,0,0-.736,1.36,1.588,1.588,0,0,0,.023.251q.115.3.224.6a1.622,1.622,0,0,0,.494.5c.007-.9,0-1.8,0-2.707" transform="translate(-32.592 751.812)" fill="#c43356"/><path d="M953.126,1527.212a1.611,1.611,0,0,0,.783,2.513,1.609,1.609,0,0,0,2.031-1.038,1.611,1.611,0,0,0-.412-1.654c-.4.025-.8.052-1.2.082s-.8.062-1.2.1" transform="translate(-133.15 824.698)" fill="#c43356"/><path d="M687.28,1439.488a1.6,1.6,0,0,0-2-.317c.177.085.356.169.536.25q.727.019,1.459.067" transform="translate(66.863 890.552)" fill="#c43356"/><path d="M961.255,1478.755a1.612,1.612,0,0,0-1.574,1.449,23.558,23.558,0,0,1,2.485.373.6.6,0,0,1,.143,1.092,13.008,13.008,0,0,1-1.807.785,1.612,1.612,0,0,0,2.4-1.406,1.573,1.573,0,0,0-.04-.355,1.672,1.672,0,0,0,.033-.355,1.613,1.613,0,0,0-1.643-1.583" transform="translate(-138.3 860.795)" fill="#c43356"/><path d="M901.755,1598.7a1.612,1.612,0,1,0,.348-2.253h0a1.61,1.61,0,0,0-.349,2.253" transform="translate(-94.756 773.033)" fill="#c43356"/><path d="M675.661,1485.491a1.584,1.584,0,0,0,.01.879c1.034.046,2.081.008,3.1-.035a1.6,1.6,0,0,0-.382-1.528c-.458.124-.913.241-1.358.356s-.911.223-1.371.327" transform="translate(74.101 856.27)" fill="#c43356"/><path d="M860.616,1348.833a1.613,1.613,0,0,0,.475.072c.049,0,.1,0,.146-.007.482-.44.961-.885,1.441-1.328a1.612,1.612,0,1,0-2.062,1.263" transform="translate(-63.379 970.298)" fill="#c43356"/><path d="M737.761,1604.19a1.611,1.611,0,0,0,2.495-1.5c-.844.474-1.674.978-2.495,1.5" transform="translate(27.627 768.13)" fill="#c43356"/><path d="M825.948,1623.6c.01,1.054.016,2.108.006,3.162a1.613,1.613,0,0,0-.006-3.162" transform="translate(-38.31 752.493)" fill="#c43356"/><path d="M862.406,1624.914a1.6,1.6,0,0,0,.553.755q-.273-.381-.553-.755" transform="translate(-65.569 751.514)" fill="#c43356"/><path d="M776.349,1620.022a27.321,27.321,0,0,0-.074-3.2,1.613,1.613,0,1,0,.074,3.2" transform="translate(0.162 757.57)" fill="#c43356"/><path d="M900.911,1365.214a1.608,1.608,0,0,0-1.491,1.253c.5-.413,1-.832,1.491-1.253" transform="translate(-93.244 955.336)" fill="#c43356"/><path d="M773.562,1350.146a1.613,1.613,0,1,0-1.527-1.095,1.6,1.6,0,0,0,1.527,1.095" transform="translate(2.064 969.337)" fill="#c43356"/><path d="M683.2,1446.971a1.608,1.608,0,0,0,1.9-.768,18.346,18.346,0,0,1-1.992-.737c-.348-.005-.693-.006-1.035-.006a1.613,1.613,0,0,0,1.129,1.511" transform="translate(69.267 885.69)" fill="#c43356"/><path d="M685.836,1537.6a1.58,1.58,0,0,0,.511-.084,1.6,1.6,0,0,0,.713-.481q-1.193.028-2.387.068a1.617,1.617,0,0,0,1.163.5" transform="translate(67.32 817.218)" fill="#c43356"/><path d="M707.244,1399.568a1.609,1.609,0,0,0-1.561-.169,25.227,25.227,0,0,1,1.473,2.855,1.609,1.609,0,0,0,.088-2.686" transform="translate(51.611 920.225)" fill="#c43356"/><path d="M866.235,1618.625c-.344-.726-.709-1.447-1.075-2.165a1.6,1.6,0,0,0-1.663.533c.647.811,1.259,1.656,1.852,2.515a1.609,1.609,0,0,0,.886-.884" transform="translate(-66.385 757.877)" fill="#c43356"/><path d="M938.118,1565.036a1.613,1.613,0,0,0-1.6-.168q1.115.662,2.251,1.29a1.608,1.608,0,0,0-.653-1.122" transform="translate(-120.983 796.513)" fill="#c43356"/><path d="M934.4,1575.384a1.6,1.6,0,0,0,.945.308,1.631,1.631,0,0,0,.553-.1c-.6-.18-1.208-.354-1.816-.517a1.6,1.6,0,0,0,.318.306" transform="translate(-119.163 788.776)" fill="#c43356"/><path d="M931.434,1398.6a1.613,1.613,0,1,0,.317-2.259,1.614,1.614,0,0,0-.317,2.259" transform="translate(-116.937 922.658)" fill="#c43356"/><path d="M949.29,1453.92q-.472.2-.943.406a32.151,32.151,0,0,1,.719,3.6q.5-.077,1-.161a33.257,33.257,0,0,0-.773-3.85" transform="translate(-129.826 879.364)" fill="#c43356"/><path d="M895.767,1590.077q-.46-.293-.927-.575-1.235.955-2.561,1.79.286.428.587.846a33.3,33.3,0,0,0,2.9-2.061" transform="translate(-87.904 777.991)" fill="#c43356"/><path d="M917.44,1398.32l1.1-.212a33.753,33.753,0,0,0-4.191-5.1c-.136-.136-.274-.269-.411-.4q-.352.371-.708.736a32.654,32.654,0,0,1,4.212,4.975" transform="translate(-103.568 925.206)" fill="#c43356"/><path d="M907.065,1584.176q-.3.267-.611.526.458.279.911.57c.158-.136.315-.274.472-.414q-.384-.343-.771-.682" transform="translate(-98.503 781.973)" fill="#c43356"/><path d="M948.782,1518.16q-.523,0-1.047.012-.17.7-.37,1.386.546-.068,1.094-.122c.117-.423.223-.849.323-1.276" transform="translate(-129.092 831.332)" fill="#c43356"/><path d="M914.571,1571.922q-1.036,1.194-2.184,2.283.385.339.767.68.285-.272.565-.552,1.043-1.043,1.979-2.16-.562-.131-1.127-.252" transform="translate(-102.938 791.136)" fill="#c43356"/><path d="M938.111,1427.735q.519-.1,1.039-.188-.513-1.16-1.115-2.28-.467.219-.936.43.54,1,1.012,2.038" transform="translate(-121.416 900.788)" fill="#c43356"/><path d="M901.636,1383.366q.363-.361.728-.72-1.212-1.074-2.508-2.019c-.22.262-.438.526-.654.792q1.264.916,2.434,1.947" transform="translate(-93.081 943.279)" fill="#c43356"/><path d="M808.528,1357.2l.226-.026q.03-.511.059-1.021l-.4.044c.031.336.067.671.112,1" transform="translate(-25.201 962.37)" fill="#c43356"/><path d="M694.506,1514.744a33.084,33.084,0,0,0,1.178,4.184q.541-.008,1.083-.011a32.1,32.1,0,0,1-1.288-4.468l-.545.164-.428.131" transform="translate(59.968 834.107)" fill="#c43356"/><path d="M727.793,1575.649q-.426.293-.873.562c.286.307.576.612.874.91.241.241.485.475.732.708q.635-.119,1.272-.219-1.044-.937-2-1.961" transform="translate(35.732 788.349)" fill="#c43356"/><path d="M894.133,1378.324l.262.173q.326-.4.659-.794l-.054-.037q-.431.335-.867.659" transform="translate(-89.291 945.732)" fill="#c43356"/><path d="M835.223,1356.9q1.134.1,2.245.285c.063-.334.122-.667.182-.995q-1.306-.211-2.636-.32.1.515.209,1.03" transform="translate(-45.088 962.566)" fill="#c43356"/><path d="M875.544,1367.64a32.385,32.385,0,0,1,3.611,1.866q.449-.323.89-.66a33,33,0,0,0-3.914-2.069l-.026.037q-.281.409-.56.826" transform="translate(-75.392 954.004)" fill="#c43356"/><path d="M953.408,1489.218c0-.158,0-.316.006-.474q-.5-.038-1.006-.06,0,.42-.016.837c.34-.1.679-.2,1.016-.3" transform="translate(-132.85 853.371)" fill="#c43356"/><path d="M796.082,1357.919c-.042-.334-.076-.669-.105-1.006q-1.265.191-2.5.477-.1.546-.2,1.092c.922-.227,1.858-.417,2.809-.564" transform="translate(-13.879 961.737)" fill="#c43356"/><path d="M852.655,1359.713q.458-.39.908-.791-1.545-.477-3.139-.8c-.058.332-.106.668-.139,1.006q1.2.251,2.37.589" transform="translate(-56.506 960.802)" fill="#c43356"/><path d="M816.867,1356.419q.878,0,1.745.047-.1-.509-.2-1.018-.767-.035-1.54-.036-1.184,0-2.354.082-.032.507-.062,1.014,1.2-.089,2.415-.09" transform="translate(-29.714 962.937)" fill="#c43356"/><path d="M759.588,1371.194c-.106-.333-.2-.668-.3-1q-.652.338-1.289.706,0,.593.009,1.186.775-.465,1.577-.888" transform="translate(12.493 951.43)" fill="#c43356"/><path d="M860.206,1610.051q-.234-.461-.463-.921-1.087.38-2.209.684.391.414.763.844.965-.275,1.91-.607" transform="translate(-61.926 763.315)" fill="#c43356"/><path d="M811.292,1615.652c.2.349.392.7.57,1.062q.957.074,1.924.1,0-.5-.008-1.007-1.255-.028-2.487-.15" transform="translate(-27.352 758.439)" fill="#c43356"/><path d="M739.69,1380.854q-.149-.524-.3-1.047a33.629,33.629,0,0,0-2.686,2.13q0,.7-.014,1.39a32.616,32.616,0,0,1,3-2.473" transform="translate(28.429 943.848)" fill="#c43356"/><path d="M865.774,1362.98q-.431.394-.869.78.792.267,1.565.572.266-.4.536-.8l.048-.069q-.635-.255-1.281-.486" transform="translate(-67.437 957.058)" fill="#c43356"/><path d="M692.611,1484.123c0-.231-.009-.463-.009-.7,0-.5.013-1,.035-1.49-.336.128-.677.245-1.021.354-.013.378-.021.756-.021,1.136,0,.243,0,.485.009.727.242-.009.483-.018.719-.024l.287-.007" transform="translate(62.144 858.416)" fill="#c43356"/><path d="M933.837,1418.712c-.358.073-.717.143-1.077.213q.267.424.521.856c.316-.136.631-.276.941-.425q-.189-.324-.385-.643" transform="translate(-118.172 905.688)" fill="#c43356"/><path d="M951.519,1495.618q-.513.16-1.029.314a32.3,32.3,0,0,1-.558,4.141q.518-.01,1.035-.014a33.572,33.572,0,0,0,.552-4.441" transform="translate(-131.011 848.187)" fill="#c43356"/><path d="M937.081,1543.471q-.429.889-.912,1.746.591-.014,1.182-.015.389-.725.741-1.467-.506-.131-1.01-.265" transform="translate(-120.721 812.408)" fill="#c43356"/><path d="M925.026,1564.859q-.285.379-.582.749.553.124,1.1.257.179-.231.354-.465-.439-.268-.875-.541" transform="translate(-111.954 796.416)" fill="#c43356"/><path d="M944.036,1441.856l.944-.407q-.413-1.369-.943-2.7-.517.086-1.03.184.582,1.427,1.029,2.918" transform="translate(-125.833 890.704)" fill="#c43356"/><path d="M797.4,1613.607q-1.205-.177-2.381-.441l-.285.978a33.4,33.4,0,0,0,3.334.573c-.207-.378-.429-.75-.668-1.109" transform="translate(-14.974 760.298)" fill="#c43356"/><path d="M839.078,1614.993q-.521.074-1.047.132.224.479.43.967.419-.05.835-.109c-.081-.329-.154-.658-.218-.99" transform="translate(-47.343 758.932)" fill="#c43356"/><path d="M786.918,1610.784q-.742-.2-1.47-.425.1.554.165,1.117.509.151,1.022.285.14-.488.282-.976" transform="translate(-8.028 762.397)" fill="#c43356"/><path d="M827.686,1615.961q-.9.062-1.8.075,0,.5.009,1.006,1.131-.015,2.249-.105-.216-.494-.453-.976" transform="translate(-38.26 758.208)" fill="#c43356"/><path d="M755.133,1598.192c-.3-.17-.6-.343-.894-.522q-.554.252-1.1.527.873.555,1.777,1.052c.088-.35.161-.7.214-1.057" transform="translate(16.126 771.884)" fill="#c43356"/><path d="M764.848,1602.174c-.063.347-.141.692-.232,1.034q1.247.627,2.543,1.144.284-.435.553-.879-1.468-.581-2.863-1.3" transform="translate(7.547 768.516)" fill="#c43356"/><path d="M779.564,1610.313c-.115.188-.233.374-.352.559.159.057.32.111.48.166q-.054-.364-.128-.725" transform="translate(-3.366 762.431)" fill="#c43356"/><path d="M952.2,1479.348q.5.02,1.009.054-.022-.816-.082-1.625l-1,.194q.049.685.07,1.377" transform="translate(-132.652 861.527)" fill="#c43356"/><path d="M942.8,1528.226q-.453,1.352-1.022,2.648.5.132,1,.261.64-1.489,1.132-3.037-.555.056-1.113.127" transform="translate(-124.918 823.902)" fill="#c43356"/><path d="M848.184,1613.143q-.687.155-1.384.282.091.5.208.989,1-.179,1.992-.42-.4-.437-.816-.851" transform="translate(-53.9 760.315)" fill="#c43356"/><path d="M930.5,1555.034q-.467.757-.974,1.484.436.272.875.54.7-1.006,1.319-2.057-.61.009-1.219.032" transform="translate(-115.752 803.786)" fill="#c43356"/><path d="M740.645,1588.736q-.814-.583-1.589-1.214c-.458.05-.916.114-1.373.187q1.067.92,2.2,1.74.394-.344.764-.712" transform="translate(27.685 779.472)" fill="#c43356"/><path d="M872.9,1603.635q-1.1.532-2.255.981.225.46.456.92,1.428-.56,2.8-1.25-.49-.342-1-.651" transform="translate(-71.728 767.424)" fill="#c43356"/><path d="M885.478,1599.051q-.459.266-.928.517c.317.218.625.442.921.666q.3-.166.595-.339-.3-.417-.588-.845" transform="translate(-82.126 770.852)" fill="#c43356"/><path d="M695.32,1457.819q-.543.113-1.091.2c-.071.316-.135.633-.2.951q.5.077,1,.173.131-.668.289-1.325" transform="translate(60.322 876.449)" fill="#c43356"/><path d="M713.783,1410.123q.524-.833,1.1-1.633c-.036-.528-.072-1.056-.1-1.584q-.785,1.013-1.486,2.077c.163.379.325.76.487,1.14" transform="translate(45.919 914.516)" fill="#c43356"/><path d="M692.988,1469.462q.1-1.128.272-2.235-.5-.1-1-.173-.218,1.388-.321,2.8c.352-.121.7-.251,1.044-.395" transform="translate(61.883 869.545)" fill="#c43356"/><path d="M708.366,1420.722c.153.446.3.894.441,1.344q.266-.509.549-1.007-.253-.59-.5-1.183c-.168.28-.33.563-.489.847" transform="translate(49.605 904.819)" fill="#c43356"/><path d="M700.3,1440.747c-.113-.143-.229-.284-.345-.424-.045.117-.088.236-.131.353q.239.033.477.07" transform="translate(55.994 889.53)" fill="#c43356"/><path d="M702.328,1434.973q.381.43.741.878.1-.238.2-.475c-.3-.178-.589-.368-.871-.568l-.071.165" transform="translate(54.119 893.654)" fill="#c43356"/><path d="M693.242,1498.953a32.354,32.354,0,0,1-.419-3.652c-.342.012-.679.024-1.007.034a33.644,33.644,0,0,0,.448,3.912l.274-.082c.234-.072.468-.142.7-.212" transform="translate(61.978 848.424)" fill="#c43356"/><path d="M697.346,1449.513q-.5-.093-1-.219c-.11.365-.212.732-.31,1.1.375-.07.749-.149,1.119-.24.061-.215.126-.429.191-.642" transform="translate(58.824 882.823)" fill="#c43356"/><path d="M704.792,1429c-.06.121-.119.243-.178.365.121.087.242.173.366.256q-.091-.311-.188-.621" transform="translate(52.41 897.998)" fill="#c43356"/><path d="M702.807,1538.56q-.4-.823-.748-1.672-.551,0-1.1.007.422,1.06.917,2.089.47-.2.933-.423" transform="translate(55.145 817.33)" fill="#c43356"/><path d="M723.794,1400.3q.691-.86,1.439-1.67c-.066-.2-.131-.392-.192-.589-.168-.055-.337-.107-.506-.161-.266.287-.527.575-.782.87,0,.192.007.383.01.575,0,.325.016.65.032.975" transform="translate(38.101 921.264)" fill="#c43356"/><path d="M767.772,1363.012a32.2,32.2,0,0,1,5-1.906q.107-.556.208-1.114a32.973,32.973,0,0,0-5.508,2.025q.142.5.3.994" transform="translate(5.412 959.232)" fill="#c43356"/><path d="M751.777,1377.16l.163-.107q0-.61-.008-1.22c-.154.1-.306.2-.458.3q.154.514.3,1.029" transform="translate(17.374 947.11)" fill="#c43356"/><path d="M718.26,1565.127q-.973-1.119-1.842-2.326c-.38.052-.76.109-1.139.168a33.575,33.575,0,0,0,2.1,2.7c.3-.173.594-.354.882-.544" transform="translate(44.436 797.955)" fill="#c43356"/><path d="M709.27,1550.44q-.873-1.32-1.617-2.725-.464.221-.935.429.666,1.265,1.442,2.473l1.111-.177" transform="translate(50.838 809.235)" fill="#c43356"/><g transform="translate(747.497 2302.187)" clip-path="url(#c)"><path d="M828.4,1641.312q-.037-.6-.062-1.194-.545.026-1.093.037.1.6.186,1.193.486-.012.969-.036" transform="translate(-786.78 -1562.041)" fill="#c43356"/><path d="M751.4,1622.447c-.338-.171-.673-.344-1-.525q-.185.591-.376,1.182c.425.228.856.445,1.289.656q.033-.657.092-1.314" transform="translate(-729.04 -1548.436)" fill="#c43356"/><path d="M770.949,1633.587c.16.057.321.11.481.166,0-.314-.009-.629-.02-.943-.166.25-.318.511-.461.777" transform="translate(-744.685 -1556.576)" fill="#c43356"/><path d="M896.984,1620.264c-.086-.426-.185-.844-.284-1.247q-.823.489-1.673.938c.2.357.4.712.6,1.06q.683-.361,1.352-.751" transform="translate(-837.456 -1546.263)" fill="#c43356"/><path d="M746.036,1619.453q-.181.6-.379,1.19l.066.039q.182-.6.356-1.2l-.043-.026" transform="translate(-725.774 -1546.59)" fill="#c43356"/><path d="M790.5,1636.58q.064.631.131,1.26.981.209,1.977.368,0-.607.007-1.215-1.067-.178-2.115-.413" transform="translate(-759.302 -1559.395)" fill="#c43356"/><path d="M739.206,1615.533c-.11-.071-.219-.145-.329-.217-.179.368-.365.732-.549,1.1.12.079.24.158.361.236q.249-.562.516-1.116" transform="translate(-720.294 -1543.496)" fill="#c43356"/><path d="M759.836,1627.551q.854.383,1.725.723a11.788,11.788,0,0,1,.6-1.071q-1.142-.443-2.247-.956c-.034.434-.061.869-.077,1.3" transform="translate(-736.376 -1551.669)" fill="#c43356"/><path d="M788.736,1333.738a5.465,5.465,0,0,1,.419-.416q.016-.438.043-.875-1.9.285-3.744.749.181.577.349,1.158,1.445-.364,2.932-.616" transform="translate(-755.53 -1331.999)" fill="#c43356"/><path d="M829.985,1330.8a.6.6,0,0,1,0,.181c-.04.332-.075.669-.107,1.011q.955.036,1.9.118.025-.6.059-1.2-.923-.079-1.854-.115" transform="translate(-788.748 -1330.77)" fill="#c43356"/><path d="M778.372,1337.793q-.17-.579-.351-1.154-.489.139-.975.291.15.587.3,1.174c.341-.107.682-.212,1.027-.31" transform="translate(-749.244 -1335.133)" fill="#c43356"/><path d="M744.726,1350.768q.2.588.422,1.166c.413-.245.83-.485,1.252-.716-.289-.309-.587-.608-.9-.895q-.391.218-.777.444" transform="translate(-725.078 -1345.365)" fill="#c43356"/><path d="M805.564,1331.864c-.054-.078-.11-.156-.166-.234-.131.015-.264.028-.394.044-.006.1-.014.2-.02.3a2.007,2.007,0,0,1,.58-.106" transform="translate(-770.132 -1331.388)" fill="#c43356"/><path d="M815.044,1331.865c.094,0,.187,0,.28,0,.033-.328.067-.656.107-.983a.65.65,0,0,1,.062-.209c-.15,0-.3-.005-.449-.005q-1.527,0-3.035.114.366.562.686,1.154c.778-.047,1.56-.074,2.349-.074" transform="translate(-775.385 -1330.671)" fill="#c43356"/><path d="M671.721,1520.892c-.393.077-.787.163-1.176.266q.108.489.227.975.632.046,1.265.082c-.114-.437-.218-.879-.316-1.323" transform="translate(-669.614 -1472.897)" fill="#c43356"/><path d="M954.742,1560.377a13.355,13.355,0,0,0,1.463-.083q.413-.718.793-1.452c-.377-.155-.759-.3-1.142-.445q-.529,1.008-1.113,1.981" transform="translate(-882.105 -1500.938)" fill="#c43356"/><path d="M917.171,1604.949q.286.55.547,1.113.981-.751,1.921-1.565c-.344-.23-.68-.477-1.009-.734q-.714.61-1.458,1.186" transform="translate(-854.013 -1534.858)" fill="#c43356"/><path d="M692.038,1569.948q-1.006-1.361-1.893-2.81-.63.134-1.258.275.939,1.573,2.031,3.064.557-.271,1.121-.529" transform="translate(-683.327 -1507.474)" fill="#c43356"/><path d="M699.867,1582.725q.775.994,1.619,1.943l.22-.317a.554.554,0,0,1,.029-.5c.086-.149.17-.3.256-.447q-.5-.589-.986-1.2-.573.255-1.138.52" transform="translate(-691.538 -1518.74)" fill="#c43356"/><path d="M961.278,1545.125c.381.142.762.288,1.138.441q.756-1.57,1.369-3.2c-.4-.092-.791-.194-1.183-.3q-.6,1.565-1.323,3.064" transform="translate(-886.992 -1488.725)" fill="#c43356"/><path d="M953.857,1408.014q.711,1.153,1.343,2.358.117-.386.229-.771c.087-.3.17-.6.253-.9-.051-.09-.1-.179-.155-.269l-.215-.063c-.48-.136-.966-.252-1.455-.356" transform="translate(-881.443 -1388.5)" fill="#c43356"/><path d="M973.43,1457.656c.392-.089.782-.183,1.168-.289-.077-.481-.16-.961-.255-1.439a12.777,12.777,0,0,0-1.3-.353q.223,1.031.391,2.081" transform="translate(-895.785 -1424.06)" fill="#c43356"/><path d="M962.33,1418.72c.153-.13.3-.263.45-.4s.324-.308.485-.48c-.152-.321-.31-.641-.471-.958-.167.57-.343,1.135-.532,1.693l.068.146" transform="translate(-887.727 -1395.129)" fill="#c43356"/><path d="M674.909,1441.269a12.235,12.235,0,0,0-1.327.181l-.013.042q.549.266,1.116.5.109-.362.224-.721" transform="translate(-671.875 -1413.364)" fill="#c43356"/><path d="M919.756,1363.182q-.608-.5-1.233-.968.012.772.011,1.544.555.44,1.093.9c.049-.491.088-.984.13-1.476" transform="translate(-855.024 -1354.255)" fill="#c43356"/><path d="M927,1371.211a38.814,38.814,0,0,1,3.472,3.627c0-.023-.005-.046-.009-.07-.1-.722-.214-1.443-.345-2.162-.345-.371-.694-.739-1.055-1.1q-.912-.913-1.874-1.756-.083.733-.19,1.459" transform="translate(-861.365 -1359.891)" fill="#c43356"/><path d="M974.805,1509.776c.259,0,.518,0,.777-.006q-.369-.127-.742-.241c-.012.082-.023.165-.035.248" transform="translate(-897.105 -1464.4)" fill="#c43356"/><path d="M878.049,1341.5q-.028-.658-.05-1.315h0q-.021.64-.04,1.281l.094.036" transform="translate(-824.692 -1337.786)" fill="#c43356"/><path d="M668.224,1494.681q-.6.08-1.19.177.046.991.141,1.973.613.177,1.238.322-.134-1.226-.189-2.472" transform="translate(-666.989 -1453.299)" fill="#c43356"/><path d="M976.39,1491.24c0,.2-.012.4-.019.6a9.3,9.3,0,0,0,1.083-.394c-.352-.08-.707-.148-1.064-.206" transform="translate(-898.276 -1450.726)" fill="#c43356"/><path d="M869.218,1631.425c-.036.317-.081.633-.135.949a.572.572,0,0,1-.91.315c0,.111-.007.221-.011.332q1.066-.31,2.112-.678c-.015-.422-.036-.844-.059-1.267q-.5.181-1,.348" transform="translate(-817.37 -1555.281)" fill="#c43356"/><path d="M669.013,1469.472c-.405.016-.81.041-1.214.076-.01.091-.021.182-.03.273q.564.292,1.148.537c.029-.3.062-.591.1-.886" transform="translate(-667.538 -1434.451)" fill="#c43356"/><path d="M676.6,1428.144q.391-1.086.843-2.142c-.347-.218-.695-.435-1.044-.648q-.62,1.432-1.126,2.911c.44-.062.882-.1,1.327-.121" transform="translate(-673.149 -1401.464)" fill="#c43356"/><path d="M906.832,1613.929q-.472.321-.953.63c.1.4.2.823.291,1.256q.763-.476,1.506-.989-.435-.435-.843-.9" transform="translate(-845.57 -1542.459)" fill="#c43356"/><path d="M975.541,1498.975q.585.175,1.163.377.136-1.167.2-2.349a12.048,12.048,0,0,1-1.223.4q-.056.792-.143,1.575" transform="translate(-897.656 -1455.035)" fill="#c43356"/><path d="M972.054,1515.212q-.273,1.5-.663,2.962.25.331.495.667.334-.16.664-.33.433-1.634.727-3.311-.612.017-1.223.012" transform="translate(-894.553 -1468.641)" fill="#c43356"/><path d="M975.258,1467.591q.181,1.412.256,2.855c.406.175.814.347,1.218.525q-.069-1.848-.3-3.663c-.388.1-.778.195-1.169.284" transform="translate(-897.444 -1432.832)" fill="#c43356"/><path d="M937.331,1570.8q-.443.68-.912,1.342c.056.043.111.086.166.131.546.443-.156,1.254-.724.938l-.165-.092a38.8,38.8,0,0,1-3.276,3.772q.41.449.81.906a39.946,39.946,0,0,0,5.547-7c-.478.02-.961.018-1.446,0" transform="translate(-865.415 -1510.213)" fill="#c43356"/><path d="M927.128,1598.256q-.323.308-.654.609c.335.249.677.483,1.03.7.144-.133.288-.265.43-.4q-.4-.458-.807-.906" transform="translate(-860.969 -1530.741)" fill="#c43356"/><path d="M970.941,1446.2q.122.441.235.885c.441.084.88.182,1.313.3-.116-.5-.239-.99-.374-1.479-.388.113-.779.21-1.173.294" transform="translate(-894.216 -1416.827)" fill="#c43356"/><path d="M971.858,1537.416c.078.017.157.032.235.048.033-.1.068-.194.1-.292-.039-.06-.076-.122-.115-.182a.577.577,0,0,1-.22.426" transform="translate(-894.902 -1484.933)" fill="#c43356"/><path d="M978.618,1486.036c.2.038.4.081.6.126,0-.023,0-.046,0-.069q-.334-.16-.673-.312a.592.592,0,0,1,.073.254" transform="translate(-899.902 -1446.645)" fill="#c43356"/><path d="M668.055,1479.444c0-.174-.006-.347-.006-.521,0-.844.03-1.681.084-2.512-.394-.154-.783-.32-1.166-.5q-.112,1.5-.113,3.014c0,.232,0,.463.009.694q.595-.095,1.193-.173" transform="translate(-666.854 -1439.263)" fill="#c43356"/><path d="M713.739,1594.876a38.814,38.814,0,0,1-3.458-3.287q-.358.5-.726,1c.276.294.556.585.843.871q1.384,1.384,2.878,2.613.23-.6.463-1.2" transform="translate(-698.781 -1525.755)" fill="#c43356"/><path d="M703.872,1375.953a38.772,38.772,0,0,1,3.375-3.546c-.159-.406-.316-.813-.465-1.222q-.747.676-1.466,1.394-1.353,1.353-2.557,2.812.564.264,1.113.562" transform="translate(-693.699 -1360.963)" fill="#c43356"/><path d="M946.364,1389.181q-.565-.751-1.168-1.478c.071.522.137,1.044.195,1.566.324-.032.649-.061.973-.088" transform="translate(-874.967 -1373.313)" fill="#c43356"/><path d="M955.443,1402.938q.186.04.372.083c-.055-.087-.113-.173-.168-.259-.069.058-.135.118-.2.176" transform="translate(-882.629 -1384.572)" fill="#c43356"/><path d="M964.58,1426.288q.546,1.295,1,2.636.634,0,1.269-.017-.572-1.763-1.308-3.463a10.538,10.538,0,0,1-.96.844" transform="translate(-889.46 -1401.531)" fill="#c43356"/><path d="M882.949,1343.36a38.427,38.427,0,0,1,7.095,3.924c.082-.434.17-.865.269-1.294a39.247,39.247,0,0,0-7.415-3.964q.022.667.051,1.334" transform="translate(-828.388 -1339.161)" fill="#c43356"/><path d="M669.7,1510.281q-.165-.868-.29-1.75-.63-.133-1.25-.294.15,1.165.368,2.313c.388-.1.78-.191,1.172-.269" transform="translate(-667.834 -1463.435)" fill="#c43356"/><path d="M694.08,1393.573c.275.312.559.615.851.911q.8-1.194,1.69-2.323c-.366-.194-.738-.378-1.114-.548q-.746.96-1.427,1.959" transform="translate(-687.211 -1376.237)" fill="#c43356"/><path d="M724.874,1363.992q-.422-.446-.867-.868-.747.575-1.469,1.189.217.608.448,1.212.919-.8,1.888-1.532" transform="translate(-708.488 -1354.936)" fill="#c43356"/><path d="M684.191,1407.266q.777-1.52,1.683-2.959-.444-.445-.867-.912a39.351,39.351,0,0,0-2.163,3.842,11.636,11.636,0,0,1,1.346.029" transform="translate(-678.811 -1385.046)" fill="#c43356"/><path d="M669.71,1451.334a38.149,38.149,0,0,1,.849-4.068c-.377-.154-.751-.316-1.119-.49a39.39,39.39,0,0,0-.95,4.614q.609-.042,1.22-.057" transform="translate(-668.078 -1417.481)" fill="#c43356"/><path d="M846.4,1333.459q1.254.187,2.48.456c.018-.192.037-.384.053-.577.019-.21.035-.421.051-.632q-1.327-.281-2.679-.472.055.612.095,1.225" transform="translate(-801.026 -1331.84)" fill="#c43356"/><path d="M861.093,1336.372q1.095.274,2.165.609.036-.623.066-1.247-1.047-.318-2.115-.576-.049.608-.116,1.214" transform="translate(-812.084 -1334.025)" fill="#c43356"/><path d="M733.059,1356.907q.83-.593,1.693-1.143-.231-.578-.438-1.165-1.078.677-2.114,1.428.44.428.859.879" transform="translate(-715.713 -1348.561)" fill="#c43356"/><path d="M752.928,1342.252c.043.047.086.1.129.143a38.3,38.3,0,0,1,4.555-1.937q-.15-.588-.3-1.178a39.084,39.084,0,0,0-5.133,2.2q.386.378.752.776" transform="translate(-730.649 -1337.108)" fill="#c43356"/><path d="M850.334,1636.121q-1.533.367-3.109.612,0,.606.011,1.211,1.585-.233,3.137-.594c-.027-.409-.042-.818-.04-1.229" transform="translate(-801.715 -1559.052)" fill="#c43356"/><path d="M837.412,1639.327c-.431.049-.865.092-1.3.126.013.4.032.8.055,1.2.464-.035.926-.081,1.387-.132q-.065-.6-.142-1.189" transform="translate(-793.406 -1561.449)" fill="#c43356"/><path d="M803.543,1638.926q-.005.6-.008,1.208,1.932.25,3.9.313-.077-.6-.155-1.2-1.895-.069-3.741-.319" transform="translate(-769.049 -1561.149)" fill="#c43356"/><path d="M880.706,1626.036c.025.427.049.853.07,1.28q1.565-.607,3.074-1.349c-.209-.349-.41-.7-.607-1.058q-1.244.608-2.537,1.128" transform="translate(-826.749 -1550.668)" fill="#c43356"/><path d="M674.676,1532.767q-.375-1.044-.69-2.114-.641-.035-1.281-.078.359,1.278.8,2.527.581-.182,1.17-.335" transform="translate(-671.228 -1480.136)" fill="#c43356"/><path d="M681.683,1551.295q-.824-1.515-1.513-3.109-.654.029-1.308.036.732,1.756,1.632,3.437.593-.185,1.189-.363" transform="translate(-675.833 -1493.303)" fill="#c43356"/><path d="M780.061,1633.85q-.015.626-.023,1.254.787.229,1.585.425-.068-.638-.135-1.277c-.48-.125-.955-.26-1.427-.4" transform="translate(-751.481 -1557.354)" fill="#c43356"/><path d="M728.785,1609.4c.223-.34.443-.683.664-1.024q-.413-.307-.818-.625-.229.592-.455,1.185c.2.156.4.312.609.464" transform="translate(-712.703 -1537.84)" fill="#c43356"/><path d="M775.23,1620.274a1.6,1.6,0,0,0-.051.741.589.589,0,0,1,.156.064q.037-.613.1-1.223a1.6,1.6,0,0,0-.2.418" transform="translate(-747.831 -1546.89)" fill="#c43356"/><path d="M735.766,1598a1.611,1.611,0,0,0-.174,1.549,14.6,14.6,0,0,1,1.113-1.423.605.605,0,0,1,1.02.422,4.5,4.5,0,0,1-.392,1.979,1.613,1.613,0,1,0-1.566-2.527" transform="translate(-718.156 -1530.042)" fill="#c43356"/><path d="M780.121,1350.13a1.611,1.611,0,0,0-.66-2.728q.088.363.173.727.234,1.007.487,2" transform="translate(-751.049 -1343.18)" fill="#c43356"/><path d="M872.715,1619.993a1.615,1.615,0,0,0,.692-1.323,1.582,1.582,0,0,0-.084-.511,1.6,1.6,0,0,0-.614-.815,24.945,24.945,0,0,1,.006,2.649" transform="translate(-820.77 -1545.013)" fill="#c43356"/><path d="M828.688,1343.077a1.6,1.6,0,0,0-.294-.926c-.072.728-.16,1.458-.295,2.172a1.609,1.609,0,0,0,.588-1.246" transform="translate(-787.415 -1339.254)" fill="#c43356"/><path d="M862.812,1620.18a1.59,1.59,0,0,0,.136,1.481c0-.289.011-.577.014-.866-.049-.205-.1-.41-.15-.615" transform="translate(-813.279 -1547.133)" fill="#c43356"/><path d="M817.267,1339.807a25.259,25.259,0,0,1,1.032,2.852h.027a1.617,1.617,0,0,0,.325-.039l.044.007c.073-.324.135-.648.188-.968.122-.736.2-1.477.273-2.219a1.549,1.549,0,0,0-.181-.011,1.577,1.577,0,0,0-.355.04,1.622,1.622,0,0,0-1.354.339" transform="translate(-779.316 -1337.219)" fill="#c43356"/><path d="M903.326,1366.6a1.612,1.612,0,1,0-.534,3c.019-.1.039-.2.059-.3.177-.893.321-1.8.476-2.7" transform="translate(-841.866 -1357.381)" fill="#c43356"/><path d="M825.922,1625.615q.005-.467.025-.933a1.611,1.611,0,0,0-1.569-1.189,1.638,1.638,0,0,0-.318.035q.34,1.571.627,3.162a1.612,1.612,0,0,0,1.235-1.075" transform="translate(-784.395 -1549.61)" fill="#c43356"/><path d="M954.876,1443.994c-.748,0-1.5,0-2.245.007a1.652,1.652,0,0,0,.037.228c.737-.073,1.476-.142,2.208-.234" transform="translate(-880.526 -1415.401)" fill="#c43356"/><path d="M771.409,1349.862a1.611,1.611,0,0,0,1.5,1.085c-.252-1.008-.482-2.02-.729-3.032a1.611,1.611,0,0,0-.767,1.947" transform="translate(-744.963 -1343.564)" fill="#c43356"/><path d="M940.39,1570.949a1.607,1.607,0,0,0,.214-.8c0-.008,0-.017,0-.025-.6-.041-1.193-.088-1.785-.126a16.815,16.815,0,0,1,1.572.951" transform="translate(-870.198 -1509.613)" fill="#c43356"/><path d="M685.115,1442.328a1.616,1.616,0,0,0-.406-1.068,18.417,18.417,0,0,0-2.234-.173,1.6,1.6,0,0,0-.581,1.148c.97.356,1.963.668,2.953.982a1.607,1.607,0,0,0,.268-.889" transform="translate(-678.099 -1413.227)" fill="#c43356"/><path d="M903.773,1596.82a1.609,1.609,0,0,0-.277.262c.591.862,1.2,1.713,1.86,2.52a1.662,1.662,0,0,0,.151-.073c-.517-.939-1.077-1.856-1.641-2.771-.031.02-.063.04-.093.062" transform="translate(-843.788 -1529.621)" fill="#c43356"/><path d="M936.14,1564.439c.621.035,1.251.088,1.884.138-.031-.026-.061-.053-.095-.077a1.614,1.614,0,0,0-1.789-.061" transform="translate(-868.196 -1505.276)" fill="#c43356"/><path d="M960.661,1481.553a27.554,27.554,0,0,1,2.79.1,1.62,1.62,0,0,0-.632-.649l-.177-.088a1.614,1.614,0,0,0-1.981.635" transform="translate(-886.53 -1442.918)" fill="#c43356"/><path d="M678.412,1493.947a1.608,1.608,0,0,0,1.358-.782c-.871.056-1.74.127-2.606.219a1.608,1.608,0,0,0,1.248.563" transform="translate(-674.563 -1452.166)" fill="#c43356"/><path d="M958.867,1448.509q.377.032.753.071a1.6,1.6,0,0,0,.3-.2q-.527.069-1.056.126" transform="translate(-885.189 -1418.682)" fill="#c43356"/><path d="M732.541,1371.712a1.613,1.613,0,0,0,2.259.317l.006,0c-.641-.849-1.308-1.7-2.019-2.511a1.612,1.612,0,0,0-.245,2.2" transform="translate(-715.725 -1359.713)" fill="#c43356"/><path d="M678.823,1484.716a1.611,1.611,0,0,0-3.175.266c1.054-.117,2.113-.2,3.175-.266" transform="translate(-673.429 -1444.924)" fill="#c43356"/><path d="M934.234,1573.914a1.6,1.6,0,0,0,1.061.3q-.8-.454-1.582-.927a1.6,1.6,0,0,0,.521.63" transform="translate(-866.382 -1512.069)" fill="#c43356"/><path d="M705.874,1568.146q.539-.245,1.08-.5a1.613,1.613,0,1,0-2.871,1.29l.007.009c.6-.266,1.192-.528,1.784-.8" transform="translate(-694.451 -1506.89)" fill="#c43356"/><path d="M955.623,1437.213q-.11.2-.224.4c.708,0,1.416,0,2.124,0a1.612,1.612,0,0,0-1.721-.473,1.547,1.547,0,0,0-.179.072" transform="translate(-882.596 -1410.217)" fill="#c43356"/><path d="M910.875,1596.557a1.6,1.6,0,0,0-.9-.6c.4.648.786,1.3,1.161,1.958a1.635,1.635,0,0,0,.051-.4,1.606,1.606,0,0,0-.315-.957" transform="translate(-848.636 -1529.019)" fill="#c43356"/><path d="M686.2,1532.426a1.59,1.59,0,0,0,.068-1.142c-1.012-.037-2.023-.073-3.034-.118a1.606,1.606,0,0,0,.382,1.764c.856-.19,1.719-.351,2.584-.5" transform="translate(-679.016 -1480.579)" fill="#c43356"/><path d="M961.81,1490.935a1.612,1.612,0,0,0,1.355-.752c-.93-.091-1.868-.127-2.8-.14a1.61,1.61,0,0,0,1.448.892" transform="translate(-886.306 -1449.831)" fill="#c43356"/><path d="M932.376,1404.739a1.607,1.607,0,0,0,.292.765c.314-.2.627-.409.938-.617-.4-.053-.816-.1-1.23-.147" transform="translate(-865.382 -1386.05)" fill="#c43356"/><path d="M953.833,1525.433a1.607,1.607,0,0,0-.688,2.038c.433.118.865.246,1.3.375.153.011.307.018.46.024q.6-.231,1.2-.475a12.162,12.162,0,0,0-2.266-1.962" transform="translate(-880.812 -1476.292)" fill="#c43356"/><path d="M740.49,1368.667a1.606,1.606,0,0,0-1.087-.628c.485.573.951,1.16,1.4,1.749,0-.05.009-.1.009-.15a1.611,1.611,0,0,0-.325-.97" transform="translate(-721.098 -1358.611)" fill="#c43356"/><path d="M781.066,1617.111a1.6,1.6,0,0,0-.542-.071c-.147,1.053-.222,2.118-.265,3.19a1.607,1.607,0,0,0,1.215-.236c-.105-.957-.219-1.913-.355-2.863-.018-.006-.036-.014-.054-.02" transform="translate(-751.646 -1544.784)" fill="#c43356"/><path d="M934.332,1399.388c.641.089,1.282.175,1.923.266-.015-.178-.031-.357-.046-.535-.628.076-1.253.165-1.876.269" transform="translate(-866.844 -1381.848)" fill="#c43356"/><path d="M861.5,1347.425a1.61,1.61,0,0,0,1.74,2.095c.061-1.047.133-2.1.2-3.156a1.61,1.61,0,0,0-1.94,1.061" transform="translate(-812.33 -1342.364)" fill="#c43356"/><path d="M704.333,1402.373a1.613,1.613,0,0,0-.391-2.247,1.612,1.612,0,0,0-2.533,1.471c.552.509,1.114.994,1.665,1.458a1.606,1.606,0,0,0,1.258-.682" transform="translate(-692.686 -1382.382)" fill="#c43356"/><path d="M841.887,1357.641q0-.51,0-1.02l-.25-.034q0,.509,0,1.019l.248.035" transform="translate(-797.539 -1350.048)" fill="#c43356"/><path d="M796.227,1358.562q-.022-.511-.042-1.022c-.44.079-.878.166-1.313.262-.038.351-.065.7-.081,1.059q.712-.166,1.436-.3" transform="translate(-762.511 -1350.76)" fill="#c43356"/><path d="M804.943,1355.984q.018.508.038,1.016,1.373-.2,2.783-.29c-.065-.329-.127-.663-.191-1q-1.325.085-2.63.271" transform="translate(-770.102 -1349.395)" fill="#c43356"/><path d="M872.844,1606.337c.026-.39.065-.78.118-1.169q-.559.25-1.13.479.059.529.109,1.058.454-.177.9-.369" transform="translate(-820.114 -1535.909)" fill="#c43356"/><path d="M849.083,1357.823q-.894-.209-1.8-.37,0,.514,0,1.028.866.159,1.715.364c0-.019,0-.038,0-.057q.04-.483.086-.965" transform="translate(-801.754 -1350.695)" fill="#c43356"/><path d="M736.332,1382.861q-.3-.415-.6-.827a33.74,33.74,0,0,0-2.925,2.481q.24.477.49.949a32.656,32.656,0,0,1,3.038-2.6" transform="translate(-716.164 -1369.074)" fill="#c43356"/><path d="M713.139,1557.441q-.5.168-1.009.33l.053.081q.57-.073,1.143-.127c-.063-.094-.125-.188-.187-.283" transform="translate(-700.707 -1500.224)" fill="#c43356"/><path d="M768.55,1365.408q1.163-.539,2.373-.989-.146-.492-.278-.986-1.35.493-2.653,1.1.284.433.558.872" transform="translate(-742.474 -1355.167)" fill="#c43356"/><path d="M945.709,1520.162q-.382,1.468-.9,2.88c.341.054.68.119,1.017.194q.437-1.229.776-2.494c-.3-.2-.6-.389-.9-.58" transform="translate(-874.681 -1472.351)" fill="#c43356"/><path d="M757.591,1370.806q-.275-.435-.558-.866-1.136.584-2.228,1.256.236.457.476.912,1.126-.7,2.31-1.3" transform="translate(-732.614 -1360.032)" fill="#c43356"/><path d="M949.519,1514.261q.457.289.911.583.1-.426.184-.856l-1.018-.076c-.024.117-.051.233-.076.349" transform="translate(-878.199 -1467.678)" fill="#c43356"/><path d="M783.312,1361.875q.52-.17,1.047-.324-.116-.5-.234-.991-.546.156-1.086.331.133.493.273.985" transform="translate(-753.724 -1353.018)" fill="#c43356"/><path d="M825.614,1356.465q1.461.018,2.89.161,0-.507,0-1.013-1.262-.122-2.543-.15a9.616,9.616,0,0,1-.348,1" transform="translate(-785.557 -1349.207)" fill="#c43356"/><path d="M899.334,1590.856q.284.426.569.854c.141-.1.282-.2.421-.31q-.27-.438-.537-.878c-.15.113-.3.223-.453.334" transform="translate(-840.677 -1524.958)" fill="#c43356"/><path d="M696.1,1517.732l-1.019.1q.263,1.131.6,2.238l1.083.04q-.378-1.172-.668-2.381" transform="translate(-687.957 -1470.534)" fill="#c43356"/><path d="M692.72,1492.737q-.5.021-1.006.047a33.808,33.808,0,0,0,.352,3.773l1.046.138a32.459,32.459,0,0,1-.392-3.958" transform="translate(-685.442 -1451.846)" fill="#c43356"/><path d="M944.995,1444.536q-.028-.2-.055-.4l-.12,0c.048.133.095.267.142.4l.034,0" transform="translate(-874.685 -1415.507)" fill="#c43356"/><path d="M940.321,1538.38c.447-.175.9-.341,1.352-.5q.132-.306.259-.613-.509-.107-1.014-.23-.283.681-.6,1.345" transform="translate(-871.322 -1484.966)" fill="#c43356"/><path d="M885.537,1596.034q-.158-.511-.314-1.021A32.489,32.489,0,0,1,882,1596.89q.366.384.69.8,1.459-.754,2.845-1.655" transform="translate(-827.718 -1528.316)" fill="#c43356"/><path d="M820.627,1617.069l.19,0c.694,0,1.384-.023,2.07-.065q.068-.511.163-1.02c-.738.05-1.482.078-2.233.078-.364,0-.726-.008-1.087-.02q.059.367.116.734a.624.624,0,0,1,.781.291" transform="translate(-781.158 -1543.997)" fill="#c43356"/><path d="M707.428,1548.223q-.506-.85-.962-1.731-.562.024-1.12.059.5,1.015,1.08,2,.5-.159,1-.323" transform="translate(-695.634 -1492.037)" fill="#c43356"/><path d="M951.058,1508.051c-.1-.145-.2-.292-.3-.438-.021.137-.045.274-.068.41l.368.027" transform="translate(-879.075 -1462.968)" fill="#c43356"/><path d="M724.734,1571.591l-.179.106q-.249.338-.493.679.767.88,1.6,1.714c.295.3.6.582.9.864q.2-.507.411-1.013-1.176-1.118-2.237-2.35" transform="translate(-709.627 -1510.804)" fill="#c43356"/><path d="M787.414,1610.967q.092.554.172,1.111,1.423.4,2.885.67.034-.509.079-1.016a32.158,32.158,0,0,1-3.135-.765" transform="translate(-756.995 -1540.245)" fill="#c43356"/><path d="M837.15,1617.428c-.034.187-.065.375-.094.562l.209-.022c-.039-.18-.075-.36-.115-.54" transform="translate(-794.112 -1545.075)" fill="#c43356"/><path d="M847.339,1611.766c.011.342.019.683.021,1.025a33.28,33.28,0,0,0,3.629-.855q-.132-.493-.277-.981a32.1,32.1,0,0,1-3.373.812" transform="translate(-801.801 -1540.235)" fill="#c43356"/><path d="M763.132,1601.2q-.095.531-.186,1.062a33.031,33.031,0,0,0,3.64,1.626c.064-.339.136-.676.22-1.011a32.271,32.271,0,0,1-3.673-1.677" transform="translate(-738.701 -1532.944)" fill="#c43356"/><path d="M756.883,1597.75q-.128.523-.247,1.048c.157.093.315.185.473.276q.1-.537.2-1.074c-.141-.083-.283-.165-.422-.25" transform="translate(-733.983 -1530.363)" fill="#c43356"/><path d="M841.989,1615.963c0-.334-.005-.674-.018-1.018l-.224.031q.113.494.218.99l.024,0" transform="translate(-797.62 -1543.219)" fill="#c43356"/><path d="M907.738,1581.7c.283.2.56.412.833.63q.576-.5,1.133-1.034-.338-.383-.667-.776-.633.607-1.3,1.18" transform="translate(-846.96 -1517.482)" fill="#c43356"/><path d="M926.815,1552.994c.1.035.2.068.3.1a.658.658,0,0,1,.211-.044q.357-.014.722-.011a33.184,33.184,0,0,0,2.226-3.541q-.456-.231-.9-.495a32.537,32.537,0,0,1-2.561,3.986" transform="translate(-861.224 -1493.919)" fill="#c43356"/><path d="M918.117,1568.7q-.906,1.116-1.907,2.147c.22.262.444.52.67.775a33.986,33.986,0,0,0,2.259-2.56c-.338-.129-.678-.249-1.022-.362" transform="translate(-853.295 -1508.641)" fill="#c43356"/><path d="M716.437,1563c-.394.027-.788.064-1.181.109q.436.625.9,1.23.274-.483.551-.967c-.092-.123-.181-.248-.271-.372" transform="translate(-703.044 -1504.378)" fill="#c43356"/><path d="M804.294,1614.816q-.044.505-.078,1.01,1.418.211,2.863.3-.079-.51-.163-1.02-1.327-.093-2.623-.291" transform="translate(-769.558 -1543.123)" fill="#c43356"/><path d="M781.885,1611.1l.315.1c-.048-.3-.1-.6-.152-.9-.06.264-.114.53-.163.8" transform="translate(-752.862 -1539.75)" fill="#c43356"/><path d="M741.635,1587a32.625,32.625,0,0,1-3.542-2.71q-.2.5-.406,1a33.545,33.545,0,0,0,3.7,2.771c.079-.353.16-.709.247-1.066" transform="translate(-719.815 -1520.296)" fill="#c43356"/><path d="M890.1,1374.882c.1-.366.185-.735.267-1.1a33.266,33.266,0,0,0-5.661-3.7q.064.617.14,1.234a32.515,32.515,0,0,1,5.254,3.569" transform="translate(-829.743 -1360.136)" fill="#c43356"/><path d="M922.058,1402.941l-.084.483q.716.843,1.375,1.734l.863-.559q-.532-.721-1.1-1.418a10.6,10.6,0,0,1-1.05-.24" transform="translate(-857.604 -1384.706)" fill="#c43356"/><path d="M692.617,1484.74c0-.013,0-.026,0-.039q0-.413.01-.824l-1-.241c-.011.354-.018.709-.018,1.065,0,.029,0,.057,0,.085q.5-.026,1.006-.046" transform="translate(-685.364 -1445.041)" fill="#c43356"/><path d="M952.495,1489.087c-.094.017-.188.037-.281.058q-.011,1.014-.083,2.013l1.016-.1q.058-.866.072-1.742h-.255a.543.543,0,0,1-.469-.234" transform="translate(-880.152 -1449.117)" fill="#c43356"/><path d="M948.828,1460.793c.335-.063.673-.1,1-.133a33.516,33.516,0,0,0-1.145-7.811l-1.075-.075a32.276,32.276,0,0,1,1.218,8.019" transform="translate(-876.772 -1421.966)" fill="#c43356"/><path d="M932.333,1417.4a32.374,32.374,0,0,1,2.5,4.728c.181-.111.362-.222.545-.331-.039-.4-.073-.8-.1-1.195a33.022,33.022,0,0,0-2.034-3.694q-.449.253-.9.492" transform="translate(-865.35 -1395.153)" fill="#c43356"/><path d="M703.466,1539.7q-.17-.364-.33-.733-.52.09-1.04.176.133.313.272.623l.123-.008q.485-.031.975-.057" transform="translate(-693.204 -1486.409)" fill="#c43356"/><path d="M724.936,1397.388q.476-.544.975-1.067-.254-.473-.5-.951-.673.688-1.3,1.408.416.3.826.61" transform="translate(-709.664 -1379.046)" fill="#c43356"/><path d="M715.536,1405.178q-.41-.307-.826-.607a33.521,33.521,0,0,0-2.145,2.958c.269.213.539.425.813.632a32.61,32.61,0,0,1,2.159-2.983" transform="translate(-701.032 -1385.925)" fill="#c43356"/><path d="M709.377,1421.387q.124-.218.252-.433-.414-.312-.821-.632-.217.365-.425.736c.333.105.664.216.994.329" transform="translate(-697.905 -1397.702)" fill="#c43356"/><path d="M748.8,1378.719q.274-.192.552-.378-.242-.457-.481-.914-.341.227-.677.463.305.413.606.829" transform="translate(-727.67 -1365.629)" fill="#c43356"/><path d="M910.747,1389.944q.034-.67.064-1.341-.262-.239-.527-.471c-.093.369-.192.736-.3,1.1q.388.35.764.712" transform="translate(-848.639 -1373.634)" fill="#c43356"/><path d="M876.917,1366.456q-.031.545-.067,1.09c.294.133.586.273.875.414q-.067-.6-.125-1.2-.34-.158-.682-.308" transform="translate(-823.865 -1357.427)" fill="#c43356"/><path d="M858.706,1361.113q1.22.343,2.4.776.02-.533.048-1.068-1.166-.414-2.364-.74-.043.516-.085,1.032" transform="translate(-810.3 -1352.66)" fill="#c43356"/><path d="M917.583,1394.333q-.034.7-.073,1.394l.117.126q.108-.626.217-1.251c-.087-.09-.173-.18-.262-.269" transform="translate(-854.267 -1378.27)" fill="#c43356"/><path d="M694.876,1512.8l-.949-.13c.014.074.027.149.041.223l.908-.093" transform="translate(-687.096 -1466.752)" fill="#c43356"/><path d="M700.389,1532.474c-.087-.222-.173-.445-.255-.669l-1.1-.044q.157.448.326.892.515-.088,1.029-.179" transform="translate(-690.916 -1481.023)" fill="#c43356"/><path d="M693.156,1469.813q-.507-.014-1.015-.034-.157,1.155-.234,2.328l.995.241q.078-1.281.255-2.535" transform="translate(-685.586 -1434.68)" fill="#c43356"/><path d="M694.542,1457.818q.2-1.128.478-2.229-.485-.166-.968-.324-.314,1.248-.532,2.525.511.017,1.022.028" transform="translate(-686.792 -1423.828)" fill="#c43356"/><path d="M704.681,1427.8c-.141-.047-.28-.1-.421-.141l-.567-.182c-.288.561-.561,1.128-.816,1.7.3.175.594.349.895.517q.425-.965.909-1.9" transform="translate(-693.788 -1403.051)" fill="#c43356"/><path d="M698.549,1443.066q-.5-.116-1.008-.217-.348.965-.635,1.953c.324.1.646.211.967.321q.3-1.043.675-2.057" transform="translate(-689.325 -1414.545)" fill="#c43356"/></g><path d="M533.728,48.485a6.875,6.875,0,1,1-6.875-6.875,6.875,6.875,0,0,1,6.875,6.875" transform="translate(190.46 1981.131)" fill="#fff"/><rect width="276.143" height="391.839" transform="translate(579.241 2012.241)" fill="none"/><rect width="276.143" height="391.838" transform="translate(579.241 2012.242)" fill="none"/></g></g></svg>